<svg width="20" height="20" viewBox="0 0 20 20" fill="none" xmlns="http://www.w3.org/2000/svg">
    <g id="Frame" clip-path="url(#clip0_3949_10186)">
        <g id="Group">
            <path id="Vector"
                d="M10 12.8125C8.9375 12.8125 8.5625 12.5625 8.21875 12.3125C8.125 12.25 8.0625 12.1875 7.96875 12.1563C7.03125 11.5938 6.34375 10.625 6.03125 9.25C5.59375 9.09375 5 8.625 5 7.5C5 6.625 5.40625 6.34375 5.4375 6.3125C5.59375 6.21875 5.78125 6.25 5.875 6.40625C5.96875 6.5625 5.9375 6.75 5.78125 6.84375C5.625 6.9375 5.59375 7 5.59375 7.53125C5.59375 8.59375 6.25 8.71875 6.3125 8.71875C6.4375 8.75 6.5625 8.84375 6.59375 8.96875C6.78125 9.84375 7.1875 11.0312 8.25 11.6562C8.375 11.7188 8.46875 11.7813 8.5625 11.8438C8.875 12.0625 9.125 12.2187 9.96875 12.2187C10.8437 12.2187 11.0625 12.0625 11.375 11.8438C11.4688 11.7813 11.5625 11.7188 11.6875 11.6562C12.75 11.0312 13.1875 9.875 13.3437 8.96875C13.375 8.84375 13.5 8.71875 13.625 8.71875C13.6875 8.71875 14.3438 8.59375 14.3438 7.53125C14.3438 7 14.1562 6.84375 14.1562 6.84375C14 6.75 13.9687 6.5625 14.0937 6.40625C14.1875 6.25 14.4062 6.21875 14.5312 6.34375C14.5625 6.375 14.9688 6.6875 14.9688 7.53125C14.9688 8.65625 14.375 9.125 13.9375 9.28125C13.625 10.625 12.9687 11.625 12 12.1875C11.9062 12.25 11.8125 12.3125 11.75 12.3438C11.4375 12.5625 11.0625 12.8125 10 12.8125Z"
                fill="var(--svg-color,#9C9EAF)" />
            <path id="Vector_2"
                d="M5.625 6.875C5.5 6.875 5.40625 6.8125 5.34375 6.6875C5.28125 6.53125 5.34375 6.34375 5.5 6.28125C6.3125 5.90625 6.9375 5.09375 7.53125 3.625C7.5625 3.53125 7.65625 3.46875 7.75 3.4375C7.84375 3.40625 7.96875 3.4375 8.03125 3.53125C8.9375 4.375 10.2188 4.1875 11.0625 4.0625C11.3125 4.03125 11.5312 4 11.6875 4C12.9375 4 13.4375 4.90625 13.7812 5.5625C14 6 14.1562 6.28125 14.375 6.28125C14.5625 6.28125 14.6875 6.40625 14.6875 6.59375C14.6875 6.78125 14.5625 6.90625 14.375 6.90625C13.7812 6.90625 13.5 6.375 13.2188 5.875C12.875 5.25 12.5625 4.65625 11.6875 4.65625C11.5625 4.65625 11.375 4.6875 11.1562 4.71875C10.3438 4.84375 9 5.03125 7.9375 4.3125C7.3125 5.6875 6.625 6.5 5.75 6.90625C5.71875 6.875 5.65625 6.875 5.625 6.875ZM19.375 19.6875C19.1875 19.6875 19.0625 19.5625 19.0625 19.375C19.0625 17.6562 19.0625 16.2812 16.625 15.6875C14.5938 15.2187 12.1875 14.2812 12.1875 12.6875V11.4062C12.1875 11.2187 12.3125 11.0937 12.5 11.0937C12.6875 11.0937 12.8125 11.2187 12.8125 11.4062V12.6875C12.8125 13.5937 14.25 14.4687 16.75 15.0937C19.6875 15.7812 19.6875 17.6875 19.6875 19.3437C19.6875 19.5312 19.5625 19.6875 19.375 19.6875ZM0.625 19.375H0.3125C0.3125 17.6875 0.3125 15.7812 3.25 15.0937C5.75 14.5 7.1875 13.625 7.1875 12.6875V11.4062C7.1875 11.2187 7.3125 11.0937 7.5 11.0937C7.6875 11.0937 7.8125 11.2187 7.8125 11.4062V12.6875C7.8125 14.2812 5.40625 15.2187 3.375 15.6875C0.9375 16.2812 0.9375 17.6562 0.9375 19.3437L0.625 19.375Z"
                fill="var(--svg-color,#9C9EAF)" />
            <path id="Vector_3"
                d="M10 17.1875C8.21875 17.1875 6.5 16.375 5.3125 14.9688C5.1875 14.8438 5.21875 14.6562 5.34375 14.5312C5.46875 14.4062 5.65625 14.4375 5.78125 14.5625C6.875 15.8437 8.40625 16.5625 10 16.5625C11.5937 16.5625 13.125 15.8437 14.2187 14.5625C14.3437 14.4375 14.5312 14.4062 14.6562 14.5312C14.7812 14.6562 14.8125 14.8438 14.6875 14.9688C13.5 16.375 11.7812 17.1875 10 17.1875ZM5.53125 6.96875C5.40625 6.96875 5.28125 6.90625 5.25 6.78125C5 6.125 5 5.90625 5 4.375C5 3.0625 5.8125 2 6.65625 1.625C7.3125 0.71875 8.34375 0.3125 10 0.3125C10.8125 0.3125 11.5937 0.46875 12.25 0.75C13.3437 1.0625 14.3125 0.9375 14.3125 0.9375C14.4687 0.90625 14.625 1.03125 14.6562 1.1875C14.6562 1.21875 14.8125 1.90625 14.4062 2.5C14.8125 3.15625 14.9688 4.09375 14.9688 4.75C14.9688 5.34375 14.9687 6.125 14.7187 6.78125C14.6562 6.9375 14.4687 7.03125 14.3125 6.96875C14.1562 6.90625 14.0625 6.71875 14.125 6.5625C14.3437 6.03125 14.3438 5.34375 14.3438 4.75C14.3438 4.125 14.1562 3.1875 13.7812 2.6875C13.6875 2.5625 13.6875 2.40625 13.7812 2.28125C13.9687 2.03125 14.0312 1.78125 14.0312 1.5625C13.625 1.5625 12.875 1.5625 12.0625 1.34375C12.0312 1.34375 12.0312 1.34375 12 1.3125C11.4375 1.0625 10.75 0.9375 10 0.9375C8.15625 0.9375 7.53125 1.46875 7.125 2.0625C7.09375 2.125 7.03125 2.15625 6.96875 2.1875C6.3125 2.4375 5.625 3.28125 5.625 4.375C5.625 5.875 5.625 6 5.84375 6.53125C5.90625 6.6875 5.8125 6.875 5.65625 6.9375C5.625 6.96875 5.5625 6.96875 5.53125 6.96875Z"
                fill="var(--svg-color,#9C9EAF)" />
        </g>
    </g>
    <defs>
        <clipPath id="clip0_3949_10186">
            <rect width="20" height="20" fill="none" />
        </clipPath>
    </defs>
</svg>