<svg width="17" height="16" viewBox="0 0 17 16" fill="none" xmlns="http://www.w3.org/2000/svg">
<path d="M10.1667 11.6667C10.1667 12.7667 9.26671 13.6667 8.16671 13.6667C7.06671 13.6667 6.16671 12.7667 6.16671 11.6667H7.50004C7.50004 12.0333 7.80004 12.3333 8.16671 12.3333C8.53337 12.3333 8.83337 12.0333 8.83337 11.6667C8.83337 11.3 8.53337 11 8.16671 11H1.83337V9.66666H8.16671C9.26671 9.66666 10.1667 10.5667 10.1667 11.6667ZM13.1667 4.66666C13.1667 3.37999 12.12 2.33333 10.8334 2.33333C9.54671 2.33333 8.50004 3.37999 8.50004 4.66666H9.83337C9.83337 4.11333 10.28 3.66666 10.8334 3.66666C11.3867 3.66666 11.8334 4.11333 11.8334 4.66666C11.8334 5.21999 11.3867 5.66666 10.8334 5.66666H1.83337V6.99999H10.8334C12.12 6.99999 13.1667 5.95333 13.1667 4.66666ZM12.8334 7.66666H1.83337V8.99999H12.8334C13.3867 8.99999 13.8334 9.44666 13.8334 9.99999C13.8334 10.5533 13.3867 11 12.8334 11V12.3333C14.12 12.3333 15.1667 11.2867 15.1667 9.99999C15.1667 8.71333 14.12 7.66666 12.8334 7.66666Z" fill="#888888"/>
</svg>
