<svg xmlns="http://www.w3.org/2000/svg" width="16" height="16" fill="none" xmlns:v="https://vecta.io/nano"><g clip-path="url(#A)" stroke="#64748b" stroke-linejoin="round"><path d="M1.332 4c0-1.473 1.194-2.667 2.667-2.667h8c1.473 0 2.667 1.194 2.667 2.667v8c0 1.473-1.194 2.667-2.667 2.667h-8c-1.473 0-2.667-1.194-2.667-2.667V4z"/><path d="M5.332 1.333h5.333v5.057a.67.67 0 0 1-1.138.471L8.47 5.805c-.26-.26-.682-.26-.943 0L6.47 6.862a.67.67 0 0 1-1.138-.471V1.333z"/></g><defs><clipPath id="A"><path fill="#fff" d="M0 0h16v16H0z"/></clipPath></defs></svg>