<svg width="20" height="20" viewBox="0 0 20 20" fill="none" xmlns="http://www.w3.org/2000/svg">
<g clip-path="url(#clip0_13_5814)">
<path d="M11.667 1.66669C12.0875 1.66655 12.4925 1.82536 12.8008 2.11127C13.1091 2.39718 13.298 2.78906 13.3295 3.20835L13.3337 3.33335V5.00002H14.167C14.5875 4.99989 14.9925 5.15869 15.3008 5.4446C15.6091 5.73051 15.798 6.12239 15.8295 6.54169L15.8337 6.66669V15.8334C15.8337 16.2754 15.6581 16.6993 15.3455 17.0119C15.0329 17.3244 14.609 17.5 14.167 17.5C14.1668 17.7124 14.0854 17.9167 13.9396 18.0712C13.7938 18.2256 13.5945 18.3186 13.3825 18.331C13.1705 18.3434 12.9617 18.2745 12.7988 18.1381C12.6359 18.0018 12.5312 17.8084 12.5062 17.5975L12.5003 17.5H7.50033C7.50033 17.721 7.41253 17.933 7.25625 18.0893C7.09997 18.2456 6.88801 18.3334 6.66699 18.3334C6.44598 18.3334 6.23402 18.2456 6.07774 18.0893C5.92146 17.933 5.83366 17.721 5.83366 17.5C5.41318 17.5002 5.00819 17.3413 4.69987 17.0554C4.39155 16.7695 4.2027 16.3777 4.17116 15.9584L4.16699 15.8334V6.66669C4.16686 6.24621 4.32566 5.84122 4.61157 5.5329C4.89748 5.22458 5.28936 5.03572 5.70866 5.00419L5.83366 5.00002H6.66699V3.33335C6.66686 2.91287 6.82566 2.50788 7.11157 2.19956C7.39748 1.89125 7.78936 1.70239 8.20866 1.67085L8.33366 1.66669H11.667ZM14.167 6.66669H5.83366V15.8334H14.167V6.66669ZM8.33366 8.33335C8.55467 8.33335 8.76663 8.42115 8.92292 8.57743C9.0792 8.73371 9.16699 8.94567 9.16699 9.16669V13.3334C9.16699 13.5544 9.0792 13.7663 8.92292 13.9226C8.76663 14.0789 8.55467 14.1667 8.33366 14.1667C8.11265 14.1667 7.90068 14.0789 7.7444 13.9226C7.58812 13.7663 7.50033 13.5544 7.50033 13.3334V9.16669C7.50033 8.94567 7.58812 8.73371 7.7444 8.57743C7.90068 8.42115 8.11265 8.33335 8.33366 8.33335ZM11.667 8.33335C11.888 8.33335 12.1 8.42115 12.2562 8.57743C12.4125 8.73371 12.5003 8.94567 12.5003 9.16669V13.3334C12.5003 13.5544 12.4125 13.7663 12.2562 13.9226C12.1 14.0789 11.888 14.1667 11.667 14.1667C11.446 14.1667 11.234 14.0789 11.0777 13.9226C10.9215 13.7663 10.8337 13.5544 10.8337 13.3334V9.16669C10.8337 8.94567 10.9215 8.73371 11.0777 8.57743C11.234 8.42115 11.446 8.33335 11.667 8.33335ZM11.667 3.33335H8.33366V5.00002H11.667V3.33335Z" fill="#7E8B98"/>
</g>
<defs>
<clipPath id="clip0_13_5814">
<rect width="20" height="20" fill="white"/>
</clipPath>
</defs>
</svg>
