<svg width="20" height="20" viewBox="0 0 20 20" fill="none" xmlns="http://www.w3.org/2000/svg">
<path d="M6.66667 9.99996V8.33329H8.33333V9.99996H6.66667ZM11.6667 9.99996V8.33329H13.3333V9.99996H11.6667ZM2.5 18.3333V11.6666H3.33333V8.33329C3.33333 7.41663 3.50694 6.55204 3.85417 5.73954C4.20139 4.92704 4.67708 4.21871 5.28125 3.61454C5.88542 3.01038 6.59375 2.53468 7.40625 2.18746C8.21875 1.84024 9.08333 1.66663 10 1.66663C10.9167 1.66663 11.7813 1.84024 12.5938 2.18746C13.4063 2.53468 14.1146 3.01038 14.7188 3.61454C15.3229 4.21871 15.7986 4.92704 16.1458 5.73954C16.4931 6.55204 16.6667 7.41663 16.6667 8.33329V11.6666H17.5V18.3333H2.5ZM4.16667 16.6666H5.83333V13.3333H4.16667V16.6666ZM7.5 16.6666H9.16667V13.3333H7.5V16.6666ZM5 11.6666H9.16667V3.39579C7.97222 3.59024 6.97917 4.14926 6.1875 5.07288C5.39583 5.99649 5 7.08329 5 8.33329V11.6666ZM10.8333 11.6666H15V8.33329C15 7.08329 14.6042 5.99649 13.8125 5.07288C13.0208 4.14926 12.0278 3.59024 10.8333 3.39579V11.6666ZM10.8333 16.6666H12.5V13.3333H10.8333V16.6666ZM14.1667 16.6666H15.8333V13.3333H14.1667V16.6666Z" fill="#5F6368"/>
</svg>
