<svg width="20" height="20" viewBox="0 0 20 20" fill="none" xmlns="http://www.w3.org/2000/svg">
<path d="M7.49996 15C7.73607 15 7.93399 14.9201 8.09371 14.7604C8.25343 14.6007 8.33329 14.4027 8.33329 14.1666C8.33329 13.9305 8.25343 13.7326 8.09371 13.5729C7.93399 13.4132 7.73607 13.3333 7.49996 13.3333C7.26385 13.3333 7.06593 13.4132 6.90621 13.5729C6.74649 13.7326 6.66663 13.9305 6.66663 14.1666C6.66663 14.4027 6.74649 14.6007 6.90621 14.7604C7.06593 14.9201 7.26385 15 7.49996 15ZM9.99996 15C10.2361 15 10.434 14.9201 10.5937 14.7604C10.7534 14.6007 10.8333 14.4027 10.8333 14.1666C10.8333 13.9305 10.7534 13.7326 10.5937 13.5729C10.434 13.4132 10.2361 13.3333 9.99996 13.3333C9.76385 13.3333 9.56593 13.4132 9.40621 13.5729C9.24649 13.7326 9.16663 13.9305 9.16663 14.1666C9.16663 14.4027 9.24649 14.6007 9.40621 14.7604C9.56593 14.9201 9.76385 15 9.99996 15ZM12.5 15C12.7361 15 12.934 14.9201 13.0937 14.7604C13.2534 14.6007 13.3333 14.4027 13.3333 14.1666C13.3333 13.9305 13.2534 13.7326 13.0937 13.5729C12.934 13.4132 12.7361 13.3333 12.5 13.3333C12.2638 13.3333 12.0659 13.4132 11.9062 13.5729C11.7465 13.7326 11.6666 13.9305 11.6666 14.1666C11.6666 14.4027 11.7465 14.6007 11.9062 14.7604C12.0659 14.9201 12.2638 15 12.5 15ZM7.49996 12.5C7.73607 12.5 7.93399 12.4201 8.09371 12.2604C8.25343 12.1007 8.33329 11.9027 8.33329 11.6666C8.33329 11.4305 8.25343 11.2326 8.09371 11.0729C7.93399 10.9132 7.73607 10.8333 7.49996 10.8333C7.26385 10.8333 7.06593 10.9132 6.90621 11.0729C6.74649 11.2326 6.66663 11.4305 6.66663 11.6666C6.66663 11.9027 6.74649 12.1007 6.90621 12.2604C7.06593 12.4201 7.26385 12.5 7.49996 12.5ZM9.99996 12.5C10.2361 12.5 10.434 12.4201 10.5937 12.2604C10.7534 12.1007 10.8333 11.9027 10.8333 11.6666C10.8333 11.4305 10.7534 11.2326 10.5937 11.0729C10.434 10.9132 10.2361 10.8333 9.99996 10.8333C9.76385 10.8333 9.56593 10.9132 9.40621 11.0729C9.24649 11.2326 9.16663 11.4305 9.16663 11.6666C9.16663 11.9027 9.24649 12.1007 9.40621 12.2604C9.56593 12.4201 9.76385 12.5 9.99996 12.5ZM12.5 12.5C12.7361 12.5 12.934 12.4201 13.0937 12.2604C13.2534 12.1007 13.3333 11.9027 13.3333 11.6666C13.3333 11.4305 13.2534 11.2326 13.0937 11.0729C12.934 10.9132 12.7361 10.8333 12.5 10.8333C12.2638 10.8333 12.0659 10.9132 11.9062 11.0729C11.7465 11.2326 11.6666 11.4305 11.6666 11.6666C11.6666 11.9027 11.7465 12.1007 11.9062 12.2604C12.0659 12.4201 12.2638 12.5 12.5 12.5ZM5.83329 9.99996H14.1666V9.16663C14.1666 8.01385 13.7604 7.03121 12.9479 6.21871C12.1354 5.40621 11.1527 4.99996 9.99996 4.99996C8.84718 4.99996 7.86454 5.40621 7.05204 6.21871C6.23954 7.03121 5.83329 8.01385 5.83329 9.16663V9.99996ZM7.12496 8.74996C7.23607 8.04163 7.55899 7.44788 8.09371 6.96871C8.62843 6.48954 9.26385 6.24996 9.99996 6.24996C10.7361 6.24996 11.3715 6.48954 11.9062 6.96871C12.4409 7.44788 12.7638 8.04163 12.875 8.74996H7.12496ZM3.33329 18.3333C2.87496 18.3333 2.4826 18.1701 2.15621 17.8437C1.82982 17.5173 1.66663 17.125 1.66663 16.6666V3.33329C1.66663 2.87496 1.82982 2.4826 2.15621 2.15621C2.4826 1.82982 2.87496 1.66663 3.33329 1.66663H16.6666C17.125 1.66663 17.5173 1.82982 17.8437 2.15621C18.1701 2.4826 18.3333 2.87496 18.3333 3.33329V16.6666C18.3333 17.125 18.1701 17.5173 17.8437 17.8437C17.5173 18.1701 17.125 18.3333 16.6666 18.3333H3.33329ZM3.33329 16.6666H16.6666V3.33329H3.33329V16.6666Z" fill="#5F6368"/>
</svg>
