<svg width="25" height="24" viewBox="0 0 25 24" fill="none" xmlns="http://www.w3.org/2000/svg">
<g clip-path="url(#clip0_1093_10622)">
<path d="M18.0533 16.75C16.6468 15.3437 14.7392 14.5536 12.7503 14.5536C10.7613 14.5536 8.85376 15.3437 7.44727 16.75" stroke="#0EA5E9" stroke-width="1.5" stroke-linecap="round" stroke-linejoin="round"/>
<path d="M18.4997 3.804C17.1216 3.00839 15.484 2.79278 13.9469 3.20461C12.4099 3.61644 11.0994 4.62196 10.3037 6L20.6957 12C21.4913 10.6219 21.7069 8.98425 21.2951 7.44721C20.8833 5.91017 19.8777 4.59968 18.4997 3.804Z" stroke="#0EA5E9" stroke-width="1.5" stroke-linecap="round" stroke-linejoin="round"/>
<path d="M17.2316 10C18.8896 7.13 19.4566 4.356 18.4996 3.804C17.5426 3.252 15.4246 5.13 13.7676 8" stroke="#0EA5E9" stroke-width="1.5" stroke-linecap="round" stroke-linejoin="round"/>
<path d="M15.5 9L12.5 14.196" stroke="#0EA5E9" stroke-width="1.5" stroke-linecap="round" stroke-linejoin="round"/>
<path d="M3.5 19.25C3.81129 19.0952 4.15249 19.0099 4.5 19C4.8895 18.9918 5.27512 19.0786 5.62358 19.2529C5.97203 19.4271 6.27283 19.6835 6.5 20C6.72717 20.3165 7.02797 20.5729 7.37642 20.7472C7.72488 20.9214 8.1105 21.0082 8.5 21C8.8895 21.0082 9.27512 20.9214 9.62358 20.7472C9.97203 20.5729 10.2728 20.3165 10.5 20C10.7272 19.6835 11.028 19.4271 11.3764 19.2529C11.7249 19.0786 12.1105 18.9918 12.5 19C12.8895 18.9918 13.2751 19.0786 13.6236 19.2529C13.972 19.4271 14.2728 19.6835 14.5 20C14.7272 20.3165 15.028 20.5729 15.3764 20.7472C15.7249 20.9214 16.1105 21.0082 16.5 21C16.8895 21.0082 17.2751 20.9214 17.6236 20.7472C17.972 20.5729 18.2728 20.3165 18.5 20C18.7272 19.6835 19.028 19.4271 19.3764 19.2529C19.7249 19.0786 20.1105 18.9918 20.5 19C20.8475 19.0099 21.1887 19.0952 21.5 19.25" stroke="#0EA5E9" stroke-width="1.5" stroke-linecap="round" stroke-linejoin="round"/>
</g>
<defs>
<clipPath id="clip0_1093_10622">
<rect width="24" height="24" fill="white" transform="translate(0.5)"/>
</clipPath>
</defs>
</svg>
