<svg width="20" height="20" viewBox="0 0 20 20" fill="none" xmlns="http://www.w3.org/2000/svg">
<path d="M5 7.5H8.33333" stroke="#9C9EAF" stroke-width="1.5" stroke-linecap="round" stroke-linejoin="round"/>
<path d="M11.6665 7.5H14.9998" stroke="#9C9EAF" stroke-width="1.5" stroke-linecap="round" stroke-linejoin="round"/>
<path d="M17.5 14.1667V17.5M17.5 14.1667H2.5M17.5 14.1667V11.6667C17.5 11.2246 17.3244 10.8007 17.0118 10.4882C16.6993 10.1756 16.2754 10 15.8333 10H4.16667C3.72464 10 3.30072 10.1756 2.98816 10.4882C2.67559 10.8007 2.5 11.2246 2.5 11.6667V17.5" stroke="#9C9EAF" stroke-width="1.5" stroke-linecap="round" stroke-linejoin="round"/>
<path d="M2.5 7.5V3.33333C2.5 3.11232 2.5878 2.90036 2.74408 2.74408C2.90036 2.5878 3.11232 2.5 3.33333 2.5H16.6667C16.8877 2.5 17.0996 2.5878 17.2559 2.74408C17.4122 2.90036 17.5 3.11232 17.5 3.33333V7.5" stroke="#9C9EAF" stroke-width="1.5" stroke-linecap="round" stroke-linejoin="round"/>
</svg>
