<svg width="20" height="20" viewBox="0 0 20 20" fill="none" xmlns="http://www.w3.org/2000/svg">
<path d="M4.16663 14.1666H5.41663V12.9166H14.5833V14.1666H15.8333V10.9583C15.8333 10.6666 15.7777 10.3923 15.6666 10.1354C15.5555 9.87843 15.4027 9.65274 15.2083 9.45829V7.49996C15.2083 7.04163 15.0451 6.64926 14.7187 6.32288C14.3923 5.99649 14 5.83329 13.5416 5.83329H10.8333C10.6805 5.83329 10.5347 5.85413 10.3958 5.89579C10.2569 5.93746 10.125 5.99996 9.99996 6.08329C9.87496 5.99996 9.74301 5.93746 9.60413 5.89579C9.46524 5.85413 9.3194 5.83329 9.16663 5.83329H6.45829C5.99996 5.83329 5.6076 5.99649 5.28121 6.32288C4.95482 6.64926 4.79163 7.04163 4.79163 7.49996V9.45829C4.59718 9.65274 4.4444 9.87843 4.33329 10.1354C4.22218 10.3923 4.16663 10.6666 4.16663 10.9583V14.1666ZM5.41663 11.6666V10.8333C5.41663 10.5972 5.49649 10.3993 5.65621 10.2395C5.81593 10.0798 6.01385 9.99996 6.24996 9.99996H13.75C13.9861 9.99996 14.184 10.0798 14.3437 10.2395C14.5034 10.3993 14.5833 10.5972 14.5833 10.8333V11.6666H5.41663ZM6.04163 8.74996V7.08329H9.37496V8.74996H6.04163ZM10.625 8.74996V7.08329H13.9583V8.74996H10.625ZM3.33329 18.3333C2.87496 18.3333 2.4826 18.1701 2.15621 17.8437C1.82982 17.5173 1.66663 17.125 1.66663 16.6666V3.33329C1.66663 2.87496 1.82982 2.4826 2.15621 2.15621C2.4826 1.82982 2.87496 1.66663 3.33329 1.66663H16.6666C17.125 1.66663 17.5173 1.82982 17.8437 2.15621C18.1701 2.4826 18.3333 2.87496 18.3333 3.33329V16.6666C18.3333 17.125 18.1701 17.5173 17.8437 17.8437C17.5173 18.1701 17.125 18.3333 16.6666 18.3333H3.33329ZM3.33329 16.6666H16.6666V3.33329H3.33329V16.6666Z" fill="#5F6368"/>
</svg>
