<svg width="20" height="20" viewBox="0 0 20 20" fill="none" xmlns="http://www.w3.org/2000/svg">
<path d="M4.16663 15.8333H3.33329L2.79163 14.1666H1.66663V9.97913C1.66663 9.52079 1.82982 9.1319 2.15621 8.81246C2.4826 8.49302 2.87496 8.33329 3.33329 8.33329V5.83329C3.33329 5.37496 3.49649 4.9826 3.82288 4.65621C4.14926 4.32982 4.54163 4.16663 4.99996 4.16663H15C15.4583 4.16663 15.8507 4.32982 16.177 4.65621C16.5034 4.9826 16.6666 5.37496 16.6666 5.83329V8.33329C17.125 8.33329 17.5173 8.49649 17.8437 8.82288C18.1701 9.14927 18.3333 9.54163 18.3333 9.99996V14.1666H17.2083L16.6666 15.8333H15.8333L15.2916 14.1666H4.70829L4.16663 15.8333ZM10.8333 8.33329H15V5.83329H10.8333V8.33329ZM4.99996 8.33329H9.16663V5.83329H4.99996V8.33329ZM3.33329 12.5H16.6666V9.99996H3.33329V12.5Z" fill="#5F6368"/>
</svg>
