<svg width="25" height="24" viewBox="0 0 25 24" fill="none" xmlns="http://www.w3.org/2000/svg">
<g id="vuesax/bulk/briefcase">
<g id="briefcase">
<path id="Vector" d="M21.965 6.98002C21.115 6.04002 19.695 5.57002 17.635 5.57002H17.395V5.53002C17.395 3.85002 17.395 1.77002 13.635 1.77002H12.115C8.35504 1.77002 8.35504 3.86002 8.35504 5.53002V5.58002H8.11504C6.04504 5.58002 4.63504 6.05002 3.78504 6.99002C2.79504 8.09002 2.82504 9.57002 2.92504 10.58L2.93504 10.65L3.03504 11.7C3.04504 11.71 3.06504 11.73 3.08504 11.74C3.41504 11.96 3.75504 12.18 4.11504 12.38C4.25504 12.47 4.40504 12.55 4.55504 12.63C6.26504 13.57 8.14504 14.2 10.055 14.51C10.145 15.45 10.555 16.55 12.745 16.55C14.935 16.55 15.365 15.46 15.435 14.49C17.475 14.16 19.445 13.45 21.225 12.41C21.285 12.38 21.325 12.35 21.375 12.32C21.835 12.06 22.265 11.78 22.685 11.47C22.705 11.46 22.725 11.44 22.735 11.42L22.775 11.06L22.825 10.59C22.835 10.53 22.835 10.48 22.845 10.41C22.925 9.40002 22.905 8.02002 21.965 6.98002ZM13.965 13.83C13.965 14.89 13.965 15.05 12.735 15.05C11.505 15.05 11.505 14.86 11.505 13.84V12.58H13.965V13.83ZM9.78504 5.57002V5.53002C9.78504 3.83002 9.78504 3.20002 12.115 3.20002H13.635C15.965 3.20002 15.965 3.84002 15.965 5.53002V5.58002H9.78504V5.57002Z" fill="white"/>
<path id="Vector_2" opacity="0.4" d="M21.3749 12.2999C21.3249 12.3299 21.2749 12.3599 21.2249 12.3899C19.4449 13.4299 17.4749 14.1299 15.4349 14.4699C15.3549 15.4299 14.9349 16.5299 12.7449 16.5299C10.5549 16.5299 10.1349 15.4399 10.0549 14.4899C8.14491 14.1899 6.26491 13.5599 4.55491 12.6099C4.40491 12.5299 4.25491 12.4499 4.11491 12.3599C3.75491 12.1599 3.41491 11.9399 3.08491 11.7199C3.06491 11.7099 3.04491 11.6899 3.03491 11.6799L3.64491 18.1899C3.85491 20.1799 4.67491 22.2299 9.07491 22.2299H16.6949C21.0949 22.2299 21.9149 20.1799 22.1249 18.1799L22.7549 11.3999C22.7449 11.4199 22.7249 11.4399 22.7049 11.4499C22.2749 11.7599 21.8349 12.0499 21.3749 12.2999Z" fill="white"/>
</g>
</g>
</svg>
