<svg width="24" height="24" viewBox="0 0 24 24" fill="none" xmlns="http://www.w3.org/2000/svg">
<path d="M21.75 8.25H20.25V11.25H21.75V8.25Z" fill="#9C9EAF"/>
<path d="M3.75 8.25H2.25V11.25H3.75V8.25Z" fill="#9C9EAF"/>
<path d="M16.5 15H15V16.5H16.5V15Z" fill="#9C9EAF"/>
<path d="M9 15H7.5V16.5H9V15Z" fill="#9C9EAF"/>
<path d="M15.75 3H8.25C7.25576 3.00106 6.30255 3.39649 5.59952 4.09952C4.89649 4.80255 4.50106 5.75576 4.5 6.75V17.25C4.50053 17.6477 4.65873 18.0289 4.93992 18.3101C5.22111 18.5913 5.60234 18.7495 6 18.75V21H7.5V18.75H16.5V21H18V18.75C18.3977 18.7495 18.7789 18.5913 19.0601 18.3101C19.3413 18.0289 19.4995 17.6477 19.5 17.25V6.75C19.4987 5.75584 19.1032 4.80279 18.4002 4.09981C17.6972 3.39684 16.7442 3.00132 15.75 3ZM18 7.5V12H6V7.5H18ZM8.25 4.5H15.75C16.2138 4.50134 16.6659 4.64625 17.044 4.91484C17.4222 5.18342 17.7079 5.5625 17.862 6H6.138C6.29206 5.5625 6.57779 5.18342 6.95596 4.91484C7.33412 4.64625 7.78617 4.50134 8.25 4.5ZM6 17.25V13.5H18L18.002 17.25H6Z" fill="#9C9EAF"/>
</svg>
