<svg width="18" height="18" viewBox="0 0 18 18" fill="none" xmlns="http://www.w3.org/2000/svg">
<path d="M2.25 7.5V14.25C2.25 14.6478 2.40804 15.0294 2.68934 15.3107C2.97064 15.592 3.35218 15.75 3.75 15.75H14.25C14.6478 15.75 15.0294 15.592 15.3107 15.3107C15.592 15.0294 15.75 14.6478 15.75 14.25V7.5H2.25Z" stroke="#9C9EAF" stroke-width="1.71429" stroke-linecap="round" stroke-linejoin="round"/>
<path d="M2.25 7.5V4.5C2.25 4.10218 2.40804 3.72064 2.68934 3.43934C2.97064 3.15804 3.35218 3 3.75 3H5.25" stroke="#9C9EAF" stroke-width="1.71429" stroke-linecap="round" stroke-linejoin="round"/>
<path d="M5.24976 1.5V4.5" stroke="#9C9EAF" stroke-width="1.71429" stroke-linecap="round" stroke-linejoin="round"/>
<path d="M15.75 7.5V4.5C15.75 4.10218 15.592 3.72064 15.3107 3.43934C15.0294 3.15804 14.6478 3 14.25 3H13.875" stroke="#9C9EAF" stroke-width="1.71429" stroke-linecap="round" stroke-linejoin="round"/>
<path d="M11.25 1.5V4.5" stroke="#9C9EAF" stroke-width="1.71429" stroke-linecap="round" stroke-linejoin="round"/>
<path d="M11.25 3H7.875" stroke="#9C9EAF" stroke-width="1.71429" stroke-linecap="round" stroke-linejoin="round"/>
</svg>
