<svg xmlns="http://www.w3.org/2000/svg" fill="none" viewBox="0 0 18 18">
    <path fill="var(--svg-color,white)"
        d="M13.4 4a1.6 1.6 0 1 0 0-3.2 1.6 1.6 0 0 0 0 3.2Zm-2.8 3.5-.5 2a2 2 0 0 0 .5 2l2.4 2.6.7 3a1 1 0 0 0 2-.6l-.7-3c0-.3-.2-.5-.4-.7L13 11l.6-2.2.3.8.8.8.9.4a1 1 0 1 0 1-1.9l-.8-.3-.5-1.3A3.7 3.7 0 0 0 12 5.1c-.7 0-1.5.1-2.2.4l-.2.2C8.4 6 7.5 7 7 8.2v.3A1 1 0 0 0 9 9c.3-.6.7-1 1.2-1.3l.3-.1Zm-1 4.5-.8 2-2 2a1 1 0 0 0 1.5 1.6l2-2.1.4-.5.5-1.2-1.4-1.5-.2-.3Zm-2-2a.5.5 0 0 0-.8.1l-1 1.9-1.9-1a1 1 0 0 0-1.4.3L.3 15a1 1 0 0 0 .4 1.5l1.9 1a1 1 0 0 0 1.4-.3l2.2-3.7v-.3l1.5-2.5c.2-.3 0-.6-.2-.8Z" />
</svg>