<svg width="20" height="20" viewBox="0 0 20 20" fill="none" xmlns="http://www.w3.org/2000/svg">
<path d="M3 18V17.3125C3 17.0104 3.08333 16.7335 3.25 16.4817C3.41667 16.23 3.63889 16.0486 3.91667 15.9375C4.25 15.7847 4.59028 15.6736 4.9375 15.6042C5.28472 15.5347 5.63889 15.5 6 15.5C6.36111 15.5 6.71611 15.5381 7.065 15.6142C7.41403 15.6903 7.75347 15.7981 8.08333 15.9375C8.36111 16.0625 8.58333 16.2465 8.75 16.4896C8.91667 16.7326 9 17.0069 9 17.3125V18H3ZM11 18V17.3125C11 17.0104 11.0833 16.7335 11.25 16.4817C11.4167 16.23 11.6389 16.0486 11.9167 15.9375C12.25 15.7847 12.5903 15.6736 12.9375 15.6042C13.2847 15.5347 13.6389 15.5 14 15.5C14.3611 15.5 14.7161 15.5381 15.065 15.6142C15.414 15.6903 15.7535 15.7981 16.0833 15.9375C16.3611 16.0625 16.5833 16.2465 16.75 16.4896C16.9167 16.7326 17 17.0069 17 17.3125V18H11ZM5.99563 15C5.58188 15 5.22917 14.8527 4.9375 14.5581C4.64583 14.2635 4.5 13.9094 4.5 13.4956C4.5 13.0819 4.64729 12.7292 4.94188 12.4375C5.23646 12.1458 5.59062 12 6.00437 12C6.41813 12 6.77083 12.1473 7.0625 12.4419C7.35417 12.7365 7.5 13.0906 7.5 13.5044C7.5 13.9181 7.35271 14.2708 7.05813 14.5625C6.76354 14.8542 6.40938 15 5.99563 15ZM13.9956 15C13.5819 15 13.2292 14.8527 12.9375 14.5581C12.6458 14.2635 12.5 13.9094 12.5 13.4956C12.5 13.0819 12.6473 12.7292 12.9419 12.4375C13.2365 12.1458 13.5906 12 14.0044 12C14.4181 12 14.7708 12.1473 15.0625 12.4419C15.3542 12.7365 15.5 13.0906 15.5 13.5044C15.5 13.9181 15.3527 14.2708 15.0581 14.5625C14.7635 14.8542 14.4094 15 13.9956 15ZM10 13.5L7.5 11L8.20833 10.2917L9.5 11.5833V9H10.5V11.5833L11.7917 10.2917L12.5 11L10 13.5ZM2 8V7.3125C2 7.01042 2.08333 6.73347 2.25 6.48167C2.41667 6.23 2.63889 6.04861 2.91667 5.9375C3.25 5.78472 3.59028 5.67361 3.9375 5.60417C4.28472 5.53472 4.63889 5.5 5 5.5C5.26833 5.5 5.53333 5.52083 5.795 5.5625C6.05667 5.60417 6.3125 5.66667 6.5625 5.75C6.38194 5.97222 6.24306 6.21875 6.14583 6.48958C6.04861 6.76042 6 7.03472 6 7.3125V8H2ZM7 8V7.3125C7 7.01042 7.08333 6.73347 7.25 6.48167C7.41667 6.23 7.63889 6.04861 7.91667 5.9375C8.25 5.78472 8.59028 5.67361 8.9375 5.60417C9.28472 5.53472 9.63889 5.5 10 5.5C10.3611 5.5 10.7153 5.53472 11.0625 5.60417C11.4097 5.67361 11.75 5.78472 12.0833 5.9375C12.3611 6.04861 12.5833 6.23 12.75 6.48167C12.9167 6.73347 13 7.01042 13 7.3125V8H7ZM14 8V7.3125C14 7.03472 13.9514 6.76042 13.8542 6.48958C13.7569 6.21875 13.6181 5.97222 13.4375 5.75C13.6875 5.66667 13.9433 5.60417 14.205 5.5625C14.4667 5.52083 14.7317 5.5 15 5.5C15.3611 5.5 15.7153 5.53472 16.0625 5.60417C16.4097 5.67361 16.75 5.78472 17.0833 5.9375C17.3611 6.04861 17.5833 6.23 17.75 6.48167C17.9167 6.73347 18 7.01042 18 7.3125V8H14ZM4.99563 5C4.58187 5 4.22917 4.85271 3.9375 4.55812C3.64583 4.26354 3.5 3.90937 3.5 3.49562C3.5 3.08187 3.64729 2.72917 3.94188 2.4375C4.23646 2.14583 4.59063 2 5.00438 2C5.41813 2 5.77083 2.14729 6.0625 2.44188C6.35417 2.73646 6.5 3.09063 6.5 3.50438C6.5 3.91813 6.35271 4.27083 6.05813 4.5625C5.76354 4.85417 5.40937 5 4.99563 5ZM9.99563 5C9.58188 5 9.22917 4.85271 8.9375 4.55812C8.64583 4.26354 8.5 3.90937 8.5 3.49562C8.5 3.08187 8.64729 2.72917 8.94187 2.4375C9.23646 2.14583 9.59062 2 10.0044 2C10.4181 2 10.7708 2.14729 11.0625 2.44188C11.3542 2.73646 11.5 3.09063 11.5 3.50438C11.5 3.91813 11.3527 4.27083 11.0581 4.5625C10.7635 4.85417 10.4094 5 9.99563 5ZM14.9956 5C14.5819 5 14.2292 4.85271 13.9375 4.55812C13.6458 4.26354 13.5 3.90937 13.5 3.49562C13.5 3.08187 13.6473 2.72917 13.9419 2.4375C14.2365 2.14583 14.5906 2 15.0044 2C15.4181 2 15.7708 2.14729 16.0625 2.44188C16.3542 2.73646 16.5 3.09063 16.5 3.50438C16.5 3.91813 16.3527 4.27083 16.0581 4.5625C15.7635 4.85417 15.4094 5 14.9956 5Z" fill="#5F6368"/>
</svg>
