<svg xmlns="http://www.w3.org/2000/svg" fill="none" viewBox="0 0 24 24">
    <path stroke="var(--svg-color,#9C9EAF)" stroke-linecap="round" stroke-linejoin="round" stroke-width="1.5"
        d="M19 20H5a2 2 0 0 1-2-2V9a2 2 0 0 1 2-2h14a2 2 0 0 1 2 2v9a2 2 0 0 1-2 2Z" />
    <path fill="var(--svg-color,#9C9EAF)" stroke="var(--svg-color,#9C9EAF)" stroke-linecap="round"
        stroke-linejoin="round" stroke-width="1.5" d="M16.5 14a.5.5 0 1 1 0-1 .5.5 0 0 1 0 1Z" />
    <path stroke="var(--svg-color,#9C9EAF)" stroke-linecap="round" stroke-linejoin="round" stroke-width="1.5"
        d="M18 7V5.6a2 2 0 0 0-2.5-2l-11 3a2 2 0 0 0-1.5 2V9" />
</svg>