<svg width="20" height="20" viewBox="0 0 20 20" fill="none" xmlns="http://www.w3.org/2000/svg">
<g id="boy 1" clip-path="url(#clip0_4540_10522)">
<g id="Group">
<path id="Vector" opacity="0.958" fill-rule="evenodd" clip-rule="evenodd" d="M8.02716 -0.0195312C9.32923 -0.0195312 10.6313 -0.0195312 11.9334 -0.0195312C14.4129 0.357125 16.2033 1.67223 17.3045 3.92578C17.7164 4.93875 17.9183 5.99344 17.91 7.08984C18.8831 7.67168 19.1892 8.505 18.8279 9.58984C18.5659 10.1865 18.1167 10.5576 17.4803 10.7031C17.0913 10.7522 16.7006 10.7717 16.3084 10.7617C15.8855 11.8475 15.1954 12.7264 14.2381 13.3984C15.1096 14.3839 15.6109 15.5363 15.742 16.8555C15.7681 17.806 15.7681 18.7565 15.742 19.707C15.7054 19.828 15.6337 19.9192 15.5272 19.9805C11.8292 19.9805 8.13134 19.9805 4.43341 19.9805C4.32685 19.9192 4.25521 19.828 4.21857 19.707C4.19251 18.7565 4.19251 17.806 4.21857 16.8555C4.34955 15.5368 4.85083 14.3844 5.72248 13.3984C4.76521 12.7264 4.07509 11.8475 3.65216 10.7617C3.25995 10.7717 2.86932 10.7522 2.48029 10.7031C1.70589 10.5016 1.21761 10.0134 1.01544 9.23828C0.864409 8.27676 1.20946 7.56062 2.0506 7.08984C2.06794 6.32375 2.1656 5.56855 2.34357 4.82422C2.41233 4.51953 2.60114 4.39586 2.90998 4.45312C3.02065 4.51172 3.10529 4.59637 3.16388 4.70703C3.11205 5.09746 3.04694 5.48809 2.96857 5.87891C2.93236 6.2166 2.91283 6.55512 2.90998 6.89453C5.09751 6.90105 7.28501 6.89453 9.47247 6.875C10.2761 6.83715 11.0053 6.58977 11.66 6.13281C11.9878 5.84832 12.1766 5.49023 12.2264 5.05859C12.4726 4.88359 12.694 4.90965 12.8904 5.13672C12.9309 5.56266 13.1197 5.90773 13.4568 6.17188C13.9997 6.53953 14.5986 6.76086 15.2537 6.83594C15.8514 6.88816 16.4503 6.9077 17.0506 6.89453C17.0473 4.60938 16.0968 2.84504 14.199 1.60156C12.8758 0.888223 11.463 0.608273 9.96076 0.761719C8.41974 0.609285 6.98095 0.915273 5.64435 1.67969C5.37287 1.85997 5.11248 2.05529 4.8631 2.26562C4.37888 2.32843 4.2031 2.12661 4.33576 1.66016C5.39369 0.724344 6.62415 0.164448 8.02716 -0.0195312ZM12.5193 6.42578C13.1705 7.08988 13.9647 7.48703 14.9022 7.61719C15.2392 7.66781 15.5777 7.70035 15.9178 7.71484C16.1014 10.4152 14.9686 12.3228 12.5193 13.4375C10.2845 14.2991 8.17517 14.0647 6.19123 12.7344C4.56314 11.4627 3.84699 9.78953 4.04279 7.71484C5.86576 7.72137 7.68869 7.71484 9.51154 7.69531C10.488 7.65195 11.3735 7.35246 12.1678 6.79688C12.2929 6.67828 12.4101 6.55457 12.5193 6.42578ZM2.71466 7.71484C2.88393 7.71484 3.05321 7.71484 3.22248 7.71484C3.21597 8.18379 3.22248 8.65254 3.24201 9.12109C3.26039 9.39422 3.30596 9.66113 3.37873 9.92188C2.87658 10.0145 2.44039 9.89078 2.07013 9.55078C1.683 8.96105 1.7416 8.4207 2.24591 7.92969C2.40023 7.8459 2.55648 7.77426 2.71466 7.71484ZM16.7381 7.71484C17.4214 7.62484 17.8837 7.89828 18.1248 8.53516C18.2197 9.18547 17.9658 9.63469 17.3631 9.88281C17.1049 9.9391 16.8445 9.95211 16.5818 9.92188C16.6546 9.66113 16.7002 9.39422 16.7186 9.12109C16.7381 8.65254 16.7446 8.18379 16.7381 7.71484ZM6.38654 13.8867C6.90607 14.1268 7.43994 14.3351 7.9881 14.5117C8.16423 15.6602 8.82829 16.2852 9.98029 16.3867C11.1323 16.2852 11.7963 15.6602 11.9725 14.5117C12.4845 14.3519 12.9793 14.1501 13.4568 13.9062C13.4959 13.8802 13.535 13.8802 13.574 13.9062C14.4861 14.9037 14.9418 16.0821 14.9412 17.4414C14.4595 17.4414 13.9777 17.4414 13.4959 17.4414C13.5024 17.2067 13.4959 16.9723 13.4764 16.7383C13.3049 16.499 13.09 16.4534 12.8318 16.6016C12.7849 16.6368 12.7524 16.6824 12.7342 16.7383C12.7147 17.5585 12.7081 18.3788 12.7147 19.1992C10.8917 19.1992 9.06884 19.1992 7.24591 19.1992C7.25244 18.3788 7.24591 17.5585 7.22638 16.7383C7.05486 16.499 6.84001 16.4534 6.58185 16.6016C6.53494 16.6368 6.50236 16.6824 6.48419 16.7383C6.4647 16.9723 6.45818 17.2067 6.46466 17.4414C5.9829 17.4414 5.50111 17.4414 5.01935 17.4414C5.02251 16.077 5.47826 14.8921 6.38654 13.8867ZM8.88654 14.707C9.56517 14.7859 10.2423 14.7859 10.9178 14.707C10.9699 14.72 11.022 14.7331 11.074 14.7461C10.832 15.3462 10.3893 15.6132 9.74591 15.5469C9.31036 15.4173 9.02392 15.1373 8.88654 14.707ZM5.01935 18.2227C5.50111 18.2227 5.9829 18.2227 6.46466 18.2227C6.46466 18.5482 6.46466 18.8737 6.46466 19.1992C5.9829 19.1992 5.50111 19.1992 5.01935 19.1992C5.01935 18.8737 5.01935 18.5482 5.01935 18.2227ZM13.4959 18.2227C13.9777 18.2227 14.4595 18.2227 14.9412 18.2227C14.9412 18.5482 14.9412 18.8737 14.9412 19.1992C14.4595 19.1992 13.9777 19.1992 13.4959 19.1992C13.4959 18.8737 13.4959 18.5482 13.4959 18.2227Z" fill="#9C9EAF"/>
</g>
<g id="Group_2">
<path id="Vector_2" opacity="0.883" fill-rule="evenodd" clip-rule="evenodd" d="M3.34016 2.83271C3.72377 2.79339 3.91259 2.96266 3.90657 3.34052C3.74846 3.66655 3.51409 3.73165 3.20345 3.53583C3.03977 3.25394 3.08534 3.01957 3.34016 2.83271Z" fill="#9C9EAF"/>
</g>
<g id="Group_3">
<path id="Vector_3" opacity="0.93" fill-rule="evenodd" clip-rule="evenodd" d="M6.93357 8.76959C7.4174 8.68142 7.69084 8.87674 7.75388 9.35553C7.64525 9.93068 7.31974 10.0935 6.77732 9.84381C6.44388 9.42693 6.49599 9.06885 6.93357 8.76959Z" fill="#9C9EAF"/>
</g>
<g id="Group_4">
<path id="Vector_4" opacity="0.93" fill-rule="evenodd" clip-rule="evenodd" d="M12.5587 8.76886C13.1937 8.69414 13.4606 8.96758 13.3595 9.58918C13.1896 9.91789 12.9227 10.0286 12.5587 9.92121C12.2129 9.71722 12.1152 9.42426 12.2657 9.0423C12.3593 8.94203 12.457 8.8509 12.5587 8.76886Z" fill="#9C9EAF"/>
</g>
<g id="Group_5">
<path id="Vector_5" opacity="0.932" fill-rule="evenodd" clip-rule="evenodd" d="M10.5664 9.86328C11.0267 9.87195 11.1764 10.0933 11.0157 10.5273C10.5898 10.9933 10.0755 11.13 9.4727 10.9375C9.21563 10.8516 9.0268 10.6889 8.90629 10.4492C8.85629 10.0175 9.04508 9.84168 9.4727 9.92188C9.68438 10.1907 9.94481 10.2558 10.2539 10.1172C10.3438 10.0071 10.4479 9.92254 10.5664 9.86328Z" fill="#9C9EAF"/>
</g>
<g id="Group_6">
<path id="Vector_6" opacity="0.939" fill-rule="evenodd" clip-rule="evenodd" d="M8.92549 17.3247C9.62874 17.3182 10.3319 17.3247 11.0349 17.3442C11.3309 17.4412 11.4286 17.6431 11.3278 17.9497C11.2676 18.0231 11.196 18.0817 11.113 18.1255C10.3578 18.1515 9.60256 18.1515 8.84737 18.1255C8.67967 18.056 8.60155 17.9323 8.61299 17.7544C8.5994 17.5212 8.70354 17.378 8.92549 17.3247Z" fill="#9C9EAF"/>
</g>
</g>
<defs>
<clipPath id="clip0_4540_10522">
<rect width="20" height="20" fill="white"/>
</clipPath>
</defs>
</svg>
