<svg width="20" height="20" viewBox="0 0 20 20" fill="none" xmlns="http://www.w3.org/2000/svg">
<path d="M13.75 11.8125L16.7917 9.20833L19 9.39583L15.4167 12.4583L16.5 17L14.7292 15.9375L13.75 11.8125ZM11.9375 6.29167L11.0417 4.22917L12 2L13.9167 6.45833L11.9375 6.29167ZM6.33333 13.8958L9 12.3125L11.6875 13.8958L10.9792 10.8958L13.2917 8.91667L10.2292 8.64583L9 5.79167L7.77083 8.64583L4.70833 8.91667L7.04167 10.8958L6.33333 13.8958ZM4.0625 17L5.375 11.4583L1 7.72917L6.75 7.22917L9 2L11.25 7.25L17 7.72917L12.625 11.4583L13.9375 17L9 14.0625L4.0625 17Z" fill="#5F6368"/>
</svg>
