<svg width="11" height="10" viewBox="0 0 11 10" fill="none" xmlns="http://www.w3.org/2000/svg">
<g clip-path="url(#clip0_2355_5227)">
<path fill-rule="evenodd" clip-rule="evenodd" d="M5.87339 9.13155C8.155 9.13155 10.0046 7.28195 10.0046 5.00035C10.0046 2.71874 8.155 0.869141 5.87339 0.869141C3.59179 0.869141 1.74219 2.71874 1.74219 5.00035C1.74219 7.28195 3.59179 9.13155 5.87339 9.13155ZM6.18323 2.93474C6.18323 2.76362 6.04451 2.6249 5.87339 2.6249C5.70227 2.6249 5.56355 2.76362 5.56355 2.93474V5.00035C5.56355 5.13371 5.64889 5.25211 5.77541 5.29429L7.01477 5.70741C7.17711 5.76152 7.35258 5.67379 7.4067 5.51145C7.46081 5.34911 7.37307 5.17364 7.21074 5.11953L6.18323 4.77703V2.93474Z" fill="white"/>
</g>
<defs>
<clipPath id="clip0_2355_5227">
<rect width="9.91489" height="9.91489" fill="white" transform="translate(0.914062 0.0429688)"/>
</clipPath>
</defs>
</svg>
