<svg width="24" height="24" viewBox="0 0 24 24" fill="none" xmlns="http://www.w3.org/2000/svg">
<path d="M12 2.25C6.624 2.25 2.25 6.624 2.25 12C2.25 17.376 6.624 21.75 12 21.75C17.376 21.75 21.75 17.376 21.75 12C21.75 6.624 17.376 2.25 12 2.25ZM15.53 14.47C15.6037 14.5387 15.6628 14.6215 15.7038 14.7135C15.7448 14.8055 15.7668 14.9048 15.7686 15.0055C15.7704 15.1062 15.7518 15.2062 15.7141 15.2996C15.6764 15.393 15.6203 15.4778 15.549 15.549C15.4778 15.6203 15.393 15.6764 15.2996 15.7141C15.2062 15.7518 15.1062 15.7704 15.0055 15.7686C14.9048 15.7668 14.8055 15.7448 14.7135 15.7038C14.6215 15.6628 14.5387 15.6037 14.47 15.53L12 13.06L9.53 15.53C9.38783 15.6625 9.19978 15.7346 9.00548 15.7312C8.81118 15.7277 8.62579 15.649 8.48838 15.5116C8.35097 15.3742 8.27225 15.1888 8.26882 14.9945C8.2654 14.8002 8.33752 14.6122 8.47 14.47L10.94 12L8.47 9.53C8.33752 9.38783 8.2654 9.19978 8.26882 9.00548C8.27225 8.81118 8.35097 8.62579 8.48838 8.48838C8.62579 8.35097 8.81118 8.27225 9.00548 8.26882C9.19978 8.2654 9.38783 8.33752 9.53 8.47L12 10.94L14.47 8.47C14.6122 8.33752 14.8002 8.2654 14.9945 8.26882C15.1888 8.27225 15.3742 8.35097 15.5116 8.48838C15.649 8.62579 15.7277 8.81118 15.7312 9.00548C15.7346 9.19978 15.6625 9.38783 15.53 9.53L13.06 12L15.53 14.47Z" fill="#BCBCBC"/>
</svg>
