<svg width="20" height="20" viewBox="0 0 20 20" fill="none" xmlns="http://www.w3.org/2000/svg">
<path d="M5 16V14.5H6.25V10.9375L2 5H12L7.75 10.9583V14.5H9V16H5ZM6 8H8L9.08333 6.5H4.91667L6 8ZM12.5 16C11.8056 16 11.2153 15.7569 10.7292 15.2708C10.2431 14.7847 10 14.1944 10 13.5C10 12.8056 10.2431 12.2153 10.7292 11.7292C11.2153 11.2431 11.8056 11 12.5 11C12.6833 11 12.8583 11.013 13.025 11.039C13.1917 11.0651 13.35 11.1215 13.5 11.2083V5H17V7H15V13.5C15 14.1944 14.7569 14.7847 14.2708 15.2708C13.7847 15.7569 13.1944 16 12.5 16Z" fill="#5F6368"/>
</svg>
