<svg width="24" height="24" viewBox="0 0 24 24" fill="none" xmlns="http://www.w3.org/2000/svg">
<g id="Frame">
<path id="Vector" fill-rule="evenodd" clip-rule="evenodd" d="M22 6C22 5.13 21.5 4.56 21.22 4.3C20.9613 4.08149 20.6715 3.90286 20.36 3.77C19.8414 3.56171 19.3015 3.41081 18.75 3.32C17.6 3.12 16.1 3 14.5 3C12.9 3 11.4 3.12 10.25 3.32C9.7 3.42 9.12 3.57 8.65 3.77C8.41 3.87 8.08 4.04 7.78 4.3C7.5 4.56 7 5.13 7 6V7.15C5.76073 7.40342 4.60568 7.96616 3.6423 8.78587C2.67892 9.60558 1.93852 10.6556 1.48996 11.8384C1.04141 13.0211 0.899273 14.298 1.07678 15.5504C1.25429 16.8028 1.74567 17.99 2.50522 19.0015C3.26477 20.013 4.26781 20.8159 5.42103 21.3356C6.57425 21.8554 7.84018 22.075 9.10107 21.974C10.362 21.8731 11.5768 21.4549 12.6327 20.7583C13.6885 20.0617 14.551 19.1094 15.14 17.99C16.5 17.97 17.75 17.85 18.74 17.67C19.3 17.57 19.88 17.43 20.36 17.23C20.59 17.13 20.92 16.96 21.22 16.7C21.51 16.44 22 15.87 22 15V6ZM15.86 15.97C18.24 15.86 20 15.47 20 15V13.36C19.6 13.5 19.17 13.6 18.75 13.67C17.96 13.82 17.01 13.92 15.98 13.97C16.0282 14.639 15.9879 15.3115 15.86 15.97ZM15.56 11.98C18.1 11.9 20 11.48 20 11V9.36C19.6 9.5 19.17 9.6 18.75 9.67C17.3455 9.90227 15.9235 10.0127 14.5 10C14.95 10.6 15.31 11.26 15.57 11.98M12.07 7.9C12.8 7.96 13.63 8 14.51 8C17.55 8 20.01 7.55 20.01 7V6C20.01 5.45 17.55 5 14.51 5C11.47 5 9 5.45 9 6V7.02C10.1 7.09 11.14 7.4 12.06 7.9M14 14.5C14 15.9587 13.4205 17.3576 12.3891 18.3891C11.3576 19.4205 9.95869 20 8.5 20C7.04131 20 5.64236 19.4205 4.61091 18.3891C3.57946 17.3576 3 15.9587 3 14.5C3 13.0413 3.57946 11.6424 4.61091 10.6109C5.64236 9.57946 7.04131 9 8.5 9C9.95869 9 11.3576 9.57946 12.3891 10.6109C13.4205 11.6424 14 13.0413 14 14.5Z" fill="#9C9EAF"/>
</g>
</svg>
