<svg width="10" height="10" viewBox="0 0 10 10" fill="none" xmlns="http://www.w3.org/2000/svg">
<path fill-rule="evenodd" clip-rule="evenodd" d="M9.08663 5.00035C9.08663 7.28195 7.23703 9.13155 4.95542 9.13155C2.67382 9.13155 0.824219 7.28195 0.824219 5.00035C0.824219 2.71874 2.67382 0.869141 4.95542 0.869141C7.23703 0.869141 9.08663 2.71874 9.08663 5.00035ZM4.95542 4.69051C4.67022 4.69051 4.43902 4.45931 4.43902 4.17411C4.43902 3.88891 4.67022 3.6577 4.95542 3.6577C5.24062 3.6577 5.47183 3.88891 5.47183 4.17411C5.47183 4.34523 5.61055 4.48395 5.78167 4.48395C5.95279 4.48395 6.09151 4.34523 6.09151 4.17411C6.09151 3.65408 5.74211 3.21566 5.26526 3.08079V2.72818C5.26526 2.55706 5.12654 2.41834 4.95542 2.41834C4.7843 2.41834 4.64558 2.55706 4.64558 2.72818V3.08079C4.16874 3.21566 3.81934 3.65408 3.81934 4.17411C3.81934 4.80155 4.32798 5.31019 4.95542 5.31019C5.24062 5.31019 5.47183 5.54139 5.47183 5.82659C5.47183 6.11179 5.24062 6.34299 4.95542 6.34299C4.67022 6.34299 4.43902 6.11179 4.43902 5.82659C4.43902 5.65547 4.3003 5.51675 4.12918 5.51675C3.95806 5.51675 3.81934 5.65547 3.81934 5.82659C3.81934 6.34661 4.16874 6.78504 4.64558 6.9199V7.27251C4.64558 7.44363 4.7843 7.58235 4.95542 7.58235C5.12654 7.58235 5.26526 7.44363 5.26526 7.27251V6.9199C5.74211 6.78504 6.09151 6.34661 6.09151 5.82659C6.09151 5.19915 5.58287 4.69051 4.95542 4.69051Z" fill="white"/>
</svg>
