<svg width="143" height="128" viewBox="0 0 143 128" fill="none" xmlns="http://www.w3.org/2000/svg">
<g clip-path="url(#clip0_1240_12352)">
<path d="M142.008 83.0524C141.817 82.5144 134.213 84.3973 124.409 87.132C123.931 87.2665 123.453 87.401 122.927 87.5354C122.448 87.6699 121.97 87.8044 121.444 87.9389C111.64 90.7632 104.18 93.1393 104.371 93.6772C104.514 94.1704 112.166 92.3323 121.97 89.5977C122.448 89.4632 122.927 89.3287 123.453 89.1942C123.931 89.0597 124.409 88.9252 124.935 88.7907C134.739 85.9664 142.152 83.5904 142.008 83.0524Z" fill="#62666D"/>
<path d="M43.9215 110.444C43.778 109.861 35.1697 111.699 24.1224 114.299C23.5485 114.434 23.0225 114.568 22.4486 114.703C21.9225 114.837 21.3486 114.972 20.7748 115.106C9.72744 117.796 1.26262 120.038 1.40609 120.62C1.54957 121.158 10.11 119.365 21.2052 116.765C21.7791 116.63 22.3051 116.496 22.879 116.361C23.4051 116.227 23.979 116.092 24.5528 115.958C35.6002 113.268 44.065 110.982 43.9215 110.444Z" fill="#62666D"/>
<path d="M105.232 102.419C105.232 102.419 113.123 99.9534 116.901 102.643C120.679 105.333 103.271 110.309 91.3151 110.847C104.323 107.126 105.375 106.812 105.375 106.812L105.232 102.419Z" fill="#62666D"/>
<path d="M69.4595 93.9012C69.4595 93.7667 69.316 93.6322 69.0769 93.5874C68.79 93.5425 68.4552 93.6322 68.0726 93.8564C67.7378 94.0805 67.3552 94.4392 67.1161 94.8875C66.7335 95.5599 66.7335 96.591 67.4509 97.129C67.5944 97.2187 67.7378 97.3083 67.9291 97.3532C68.1204 97.398 68.2639 97.4428 68.4552 97.398C68.9334 97.398 69.3638 97.1738 69.7464 96.9497C69.9377 96.8152 70.0334 96.7255 70.129 96.591C70.2247 96.5014 70.3203 96.3669 70.416 96.2772C70.7507 95.8289 70.8942 95.3358 70.8942 94.8875C70.8942 94.4392 70.6551 94.0357 70.416 93.9012C70.1769 93.7667 69.9856 93.8115 69.8899 93.946C69.7943 94.0357 69.7943 94.1702 69.7943 94.3047C69.7464 94.4392 69.6986 94.5288 69.603 94.7081C69.5073 94.8875 69.3639 95.0668 69.1247 95.2909C69.0769 95.3358 69.0291 95.3806 68.9334 95.4254C68.8856 95.4703 68.79 95.5151 68.79 95.5151C68.79 95.5151 68.79 95.5151 68.7421 95.5151C68.7421 95.5151 68.6943 95.5151 68.6465 95.4703C68.6943 95.2013 68.8378 94.9323 68.9813 94.753C69.2204 94.3495 69.4595 94.1702 69.4595 93.9012Z" fill="#62666D"/>
<path d="M81.0806 91.2117C81.0806 91.0772 80.9371 90.9428 80.698 90.8979C80.4111 90.8531 80.0763 90.9428 79.6937 91.1669C79.3589 91.3911 78.9763 91.7497 78.7372 92.198C78.3546 92.8705 78.3546 93.9016 79.072 94.4395C79.2155 94.5292 79.3589 94.6189 79.5502 94.6637C79.7415 94.7085 79.885 94.7534 80.0763 94.7085C80.5545 94.7085 80.9849 94.4844 81.3675 94.2602C81.5588 94.1257 81.6545 94.0361 81.7501 93.9016C81.8458 93.8119 81.9414 93.6774 82.0371 93.5878C82.3718 93.1395 82.5153 92.6463 82.5153 92.198C82.5153 91.7497 82.2762 91.3462 82.0371 91.2117C81.798 91.0772 81.6067 91.1221 81.511 91.2566C81.4154 91.3462 81.4154 91.4807 81.4154 91.6152C81.3675 91.7497 81.3197 91.8394 81.2241 92.0187C81.1284 92.198 80.9849 92.3773 80.7458 92.6015C80.698 92.6463 80.6502 92.6912 80.5545 92.736C80.5067 92.7808 80.4111 92.8256 80.4111 92.8256C80.4111 92.8256 80.4111 92.8256 80.3632 92.8256C80.3632 92.8256 80.3154 92.8256 80.2676 92.7808C80.3154 92.5118 80.4589 92.2428 80.6024 92.0635C80.8415 91.66 81.0806 91.4807 81.0806 91.2117Z" fill="#62666D"/>
<path d="M46.5996 58.9782L92.0323 47.3223L91.9366 55.3918L56.0687 64.851L52.5776 61.1749L46.5996 58.9782Z" fill="#62666D"/>
<path d="M57.6948 82.9628C58.3165 82.918 58.3643 79.3315 58.173 74.714C58.173 74.4898 58.1252 74.2657 58.1252 74.0415C58.1252 73.8174 58.1252 73.5932 58.0773 73.3691C57.7904 68.7067 57.3122 65.1651 56.6905 65.2099C56.1166 65.2547 56.0209 68.8412 56.2122 73.4587C56.2122 73.6829 56.26 73.907 56.26 74.1312C56.26 74.3553 56.26 74.5795 56.3079 74.8036C56.5948 79.4212 57.1209 82.9628 57.6948 82.9628Z" fill="#62666D"/>
<path d="M56.6904 65.1201C57.1687 64.7166 55.6383 62.8786 53.4384 60.637C53.3428 60.5474 53.1993 60.4129 53.1036 60.3232C53.008 60.2336 52.8645 60.0991 52.7689 60.0094C52.5776 59.8301 52.4341 59.6956 52.2906 59.5163C52.0037 59.4714 51.7167 59.4266 51.4298 59.3818C51.2385 59.337 51.095 59.337 50.9037 59.2921C50.569 59.2473 50.2342 59.2025 49.8994 59.1576C49.2777 59.068 48.7038 59.0231 48.2256 59.0231C47.2691 58.9783 46.6952 59.1128 46.6474 59.3818C46.5996 59.6508 47.1257 59.9198 48.0343 60.2336C48.4647 60.3681 49.0386 60.5474 49.6603 60.6819C49.9473 60.7715 50.282 60.8164 50.6168 60.906C50.8081 60.9509 50.9516 60.9957 51.1429 60.9957L51.382 61.0405L51.4776 61.1302C51.5733 61.2198 51.7167 61.3543 51.8124 61.444C51.908 61.5337 52.0515 61.6681 52.1472 61.7578C54.3471 63.9993 56.26 65.4787 56.6904 65.1201Z" fill="#62666D"/>
<path d="M95.7147 54.7195L95.8104 51.7158L101.597 53.0159L95.7147 54.7195Z" fill="#62666D"/>
<path d="M52.0516 115.51C52.1472 115.375 51.5255 114.972 50.4255 114.255C49.8517 113.896 49.1821 113.493 48.3691 113.044C47.9387 112.82 47.5083 112.551 47.0301 112.282C46.7909 112.148 46.5518 112.013 46.3127 111.879L46.1214 111.789L46.0258 111.744H45.9779L45.8823 111.654V111.52C45.8823 111.385 45.8823 111.206 45.9301 111.072C45.9301 110.758 45.9779 110.399 45.9779 110.085C46.0258 109.413 46.0258 108.696 46.0736 107.934C46.1214 106.454 46.2171 104.84 46.2649 103.092C46.4083 99.6399 46.5518 95.8293 46.6475 91.7497C46.6475 90.9427 46.6953 90.1806 46.6953 89.4185C46.6953 88.6564 46.7431 87.8943 46.7431 87.0873C47.1257 71.4863 47.2214 59.4717 46.5996 59.4717C46.3127 59.4717 46.0258 62.4753 45.7388 67.4067C45.4519 72.338 45.1649 79.242 44.9258 87.0425C44.9258 87.8494 44.878 88.6115 44.878 89.3737C44.878 90.1358 44.8302 90.8979 44.8302 91.7048C44.7345 95.7844 44.6389 99.6399 44.591 103.047C44.591 104.751 44.5432 106.364 44.5432 107.889C44.5432 109.503 44.5432 111.027 44.5432 112.372C44.9258 112.551 45.3084 112.73 45.691 112.91C45.9301 113.044 46.217 113.134 46.4562 113.268C46.9344 113.493 47.4126 113.717 47.8431 113.896C48.7039 114.299 49.4691 114.613 50.043 114.882C51.2864 115.375 51.9559 115.644 52.0516 115.51Z" fill="#62666D"/>
<path d="M105.088 107.53C105.423 107.53 105.423 104.167 105.28 98.698C105.136 93.2287 104.801 85.6075 104.323 76.9552C104.275 76.1034 104.227 75.2516 104.18 74.3998C104.132 73.5481 104.084 72.6963 104.036 71.8445C103.797 68.2581 103.606 64.8061 103.414 61.6231C103.175 58.2608 102.984 55.1675 102.793 52.4329C101.98 52.2984 101.214 52.1191 100.497 51.9846C99.9232 51.8949 99.3972 51.7604 98.8711 51.6707C98.3451 51.5811 97.819 51.4914 97.3408 51.4018C97.1016 51.3569 96.8625 51.3121 96.6234 51.2673C96.5278 51.2673 96.3843 51.2224 96.2886 51.2224H96.1452C95.5713 50.5948 95.0452 50.0568 94.6148 49.5637C94.1366 49.0257 93.7061 48.6223 93.3236 48.2636C92.6062 47.5912 92.1758 47.2325 92.0801 47.3222C91.9845 47.367 92.2714 47.8601 92.8453 48.6671C93.1323 49.0706 93.467 49.5637 93.9453 50.1017C94.1844 50.3707 94.3757 50.6845 94.6626 50.9983C94.8061 51.1776 94.9017 51.3121 95.0452 51.4914C95.093 51.5811 95.1887 51.6707 95.2365 51.7604C95.3322 51.8949 95.4756 52.0294 95.5713 52.1639C97.2451 52.5674 99.2059 53.0157 101.454 53.5536C101.454 53.6881 101.454 53.5536 101.454 54.0019C101.454 54.3157 101.501 54.6744 101.501 55.033C101.549 55.7055 101.549 56.4228 101.597 57.1401C101.645 58.5746 101.741 60.0989 101.788 61.7128C101.932 64.8958 102.123 68.3029 102.267 71.9342C102.314 72.7859 102.362 73.6377 102.41 74.4895C102.458 75.3413 102.506 76.1931 102.554 77.0448C103.032 85.6523 103.558 93.2735 104.036 98.7428C104.514 104.212 104.801 107.574 105.088 107.53Z" fill="#62666D"/>
<path d="M92.1758 47.2778C91.5541 47.2778 91.2672 48.9366 91.1715 51.1333C91.1715 51.2229 91.1715 51.3574 91.1715 51.4471C91.1715 51.5367 91.1715 51.6712 91.1715 51.7609C91.1715 53.9576 91.3628 55.6611 91.9845 55.6611C92.5584 55.6611 92.8932 54.0024 92.9888 51.8057C92.9888 51.7161 92.9888 51.5816 92.9888 51.4919C92.9888 51.4022 92.9888 51.2678 92.9888 51.1781C92.9888 48.9814 92.7497 47.2778 92.1758 47.2778Z" fill="#62666D"/>
<path d="M49.3734 58.3507C49.5169 58.9335 58.173 56.9162 69.2681 54.0918C69.842 53.9573 70.368 53.8228 70.9419 53.6435C71.5158 53.509 72.0419 53.3745 72.6158 53.1952C83.7109 50.2812 92.2236 47.8604 92.0323 47.2776C91.8888 46.7396 83.2327 48.7122 72.1375 51.5365C71.5636 51.671 71.0376 51.8055 70.4637 51.9848C69.8898 52.1193 69.3637 52.2538 68.7899 52.4331C57.6947 55.3471 49.2299 57.8128 49.3734 58.3507Z" fill="#62666D"/>
<path d="M102.075 53.0158C101.884 52.433 92.7497 54.6297 80.8894 57.7678C80.3155 57.9471 79.6938 58.0816 79.1199 58.2609C78.546 58.3954 77.9243 58.5747 77.3504 58.7092C65.5379 61.8922 56.4992 64.5372 56.6905 65.12C56.834 65.6131 66.0161 63.4613 77.8764 60.368C78.4503 60.1887 79.0721 60.0542 79.6459 59.8748C80.2198 59.7403 80.8415 59.561 81.4154 59.4265C93.2279 56.2436 102.267 53.5537 102.075 53.0158Z" fill="#62666D"/>
<path d="M105.088 107.53C104.897 106.947 102.362 107.395 99.1102 108.202C98.9667 108.247 98.7754 108.292 98.632 108.337C98.4885 108.382 98.2972 108.427 98.1537 108.471C94.9495 109.368 92.5105 110.265 92.7018 110.847C92.8453 111.341 95.4278 110.982 98.6798 110.13C98.8233 110.085 99.0146 110.04 99.158 109.996C99.3015 109.951 99.4928 109.906 99.6363 109.861C102.84 109.009 105.232 108.068 105.088 107.53Z" fill="#62666D"/>
<path d="M52.9124 86.4148L83.0414 78.6143L82.9457 84.0836L59.3686 90.3599L56.9774 87.8942L52.9124 86.4148Z" fill="#62666D"/>
<path d="M61.3772 126.852C61.9989 126.807 61.8554 119.499 61.3772 109.995C61.3294 109.502 61.3294 109.054 61.2816 108.561C61.2337 108.068 61.2337 107.619 61.1859 107.126C60.612 97.6221 59.9425 90.3147 59.3208 90.3596C58.7469 90.4044 58.8425 97.7118 59.3208 107.216C59.3686 107.709 59.3686 108.157 59.4164 108.65C59.4642 109.144 59.4642 109.592 59.5121 110.085C60.086 119.589 60.8033 126.896 61.3772 126.852Z" fill="#62666D"/>
<path d="M59.3687 90.3596C59.8469 89.9561 58.8904 88.656 57.4079 87.1766C57.3122 87.0869 57.2644 87.0421 57.1688 86.9525C57.0731 86.8628 57.0253 86.818 56.9296 86.7283C56.7862 86.5938 56.6427 86.4593 56.547 86.3697C56.3079 86.3248 56.1166 86.28 55.8775 86.28C55.734 86.28 55.6384 86.2352 55.5427 86.2352C55.3036 86.1903 55.0645 86.1903 54.8732 86.1903C54.4428 86.1455 54.0602 86.1455 53.7254 86.1455C53.1037 86.1903 52.6733 86.3248 52.6255 86.5938C52.5777 86.8628 52.9124 87.0869 53.4863 87.3559C53.7733 87.4904 54.1559 87.5801 54.5384 87.7146C54.7297 87.7594 54.9689 87.8491 55.208 87.8939C55.3036 87.9387 55.4471 87.9387 55.5427 87.9836C55.6384 87.9836 55.5906 87.9836 55.5906 87.9836C55.6384 88.0732 55.734 88.118 55.7819 88.2077C55.8775 88.2974 55.9253 88.3422 56.021 88.4319C57.5992 89.8216 58.9382 90.7631 59.3687 90.3596Z" fill="#62666D"/>
<path d="M61.3772 126.852C61.5206 126.762 61.1859 126.045 60.4207 124.879C60.0381 124.297 59.5599 123.579 58.986 122.728C58.699 122.324 58.4121 121.876 58.0773 121.427C57.9339 121.203 57.7426 120.979 57.5513 120.71C57.2643 120.352 56.9774 119.948 56.6904 119.545C55.8296 119.769 54.8731 120.038 53.9167 120.307C53.5341 120.396 53.1037 120.531 52.7211 120.621C52.6254 120.621 52.6254 120.621 52.5776 120.665V120.576C52.5776 120.262 52.6254 119.903 52.6254 119.589C52.6732 118.827 52.6732 118.065 52.7211 117.303C52.7689 115.734 52.8167 114.075 52.8645 112.372C52.8645 111.744 52.9124 111.116 52.9124 110.489C52.9124 109.861 52.9602 109.234 52.9602 108.606C53.2471 96.1431 53.2471 86.5493 52.6254 86.5493C52.0515 86.5493 51.4776 96.0982 51.095 108.561C51.095 109.189 51.0472 109.816 51.0472 110.444C51.0472 111.072 50.9994 111.699 50.9994 112.327C50.9516 116.137 50.8559 119.679 50.8081 122.817C51.6211 122.593 52.3863 122.324 53.1515 122.1C53.5819 121.965 53.9645 121.831 54.3471 121.741C54.7297 121.607 55.1123 121.517 55.4948 121.383L55.7818 121.293C55.8774 121.248 55.9731 121.248 55.9731 121.248L56.1166 121.203C56.1166 121.159 56.6426 121.786 56.9774 122.19C57.36 122.638 57.6947 123.041 58.0295 123.445C58.699 124.207 59.2251 124.879 59.7033 125.417C60.6598 126.404 61.2337 126.942 61.3772 126.852Z" fill="#62666D"/>
<path d="M91.7453 118.782C92.367 118.737 92.1279 109.861 91.554 98.3394C91.5062 97.7566 91.5062 97.1738 91.4584 96.6358C91.4106 96.053 91.4106 95.515 91.3627 94.9322C91.2193 92.5114 91.0758 90.225 90.9323 88.118C90.741 85.7868 90.5976 83.6798 90.4541 81.7969C90.0715 81.7072 89.7367 81.6624 89.3541 81.5727C89.115 81.5279 88.9237 81.4831 88.6846 81.4382C88.302 81.3934 87.9194 81.3037 87.5847 81.2589C87.2499 81.2141 86.8673 81.1244 86.5804 81.0796C86.4369 81.0348 86.2456 81.0348 86.1021 80.9899H86.0065C85.9586 80.9899 85.9586 80.9899 85.9586 80.9899H85.863C85.8152 80.9899 85.5761 80.6761 85.3848 80.4968C85.1935 80.3175 85.0022 80.1382 84.8587 79.9588C84.5239 79.6002 84.237 79.3312 83.95 79.1071C83.424 78.6587 83.137 78.4794 83.0414 78.5243C82.9457 78.5691 83.0892 78.9277 83.4718 79.4657C83.6631 79.7347 83.9022 80.0933 84.1413 80.452C84.2848 80.6313 84.4283 80.8554 84.5718 81.0796C84.763 81.3038 84.8587 81.4831 85.1935 81.9314C85.8152 82.1107 86.5325 82.29 87.2977 82.4693C87.6325 82.559 88.0151 82.6487 88.3977 82.7383L88.6846 82.828C88.7803 82.828 88.9237 82.8728 88.9237 82.8728L89.0672 82.9176C89.0672 82.9625 89.0672 83.0073 89.0672 83.0521C89.0672 83.2763 89.0672 83.5004 89.0672 83.7246C89.0672 84.1729 89.115 84.666 89.115 85.1592C89.1628 86.1454 89.2107 87.1317 89.2107 88.2077C89.3063 90.3147 89.402 92.6459 89.5454 95.0667C89.5933 95.6495 89.5933 96.2323 89.6411 96.7703C89.6889 97.3531 89.6889 97.9359 89.7367 98.4739C90.4063 109.95 91.1714 118.782 91.7453 118.782Z" fill="#62666D"/>
<path d="M83.0893 78.4351C82.4676 78.4351 82.1806 79.5558 82.085 81.0352C82.085 81.1249 82.085 81.1697 82.085 81.2594C82.085 81.349 82.085 81.3939 82.085 81.4835C82.085 82.9629 82.3241 84.0837 82.9458 84.1285C83.5197 84.1285 83.8544 83.0078 83.9501 81.5284C83.9501 81.4387 83.9501 81.3939 83.9501 81.3042C83.9501 81.2146 83.9501 81.1697 83.9501 81.0801C83.9501 79.6007 83.6632 78.4351 83.0893 78.4351Z" fill="#62666D"/>
<path d="M85.4805 83.4109L85.5283 81.3936L89.1151 82.2902L85.4805 83.4109Z" fill="#62666D"/>
<path d="M54.4427 85.8317C54.5862 86.4145 60.4207 85.1593 67.8334 83.2764C68.216 83.1867 68.5986 83.0971 68.9334 83.0074C69.316 82.9178 69.6507 82.8281 70.0333 82.7384C77.446 80.7659 83.1371 79.0623 82.9458 78.5244C82.8023 77.9864 77.0156 79.1968 69.5551 81.0797C69.1725 81.1694 68.7899 81.259 68.4551 81.3487C68.0725 81.4383 67.7378 81.528 67.3552 81.6177C59.9425 83.5902 54.2993 85.3386 54.4427 85.8317Z" fill="#62666D"/>
<path d="M89.7367 82.2902C89.5454 81.7074 83.424 83.0972 75.4852 85.2042C75.1026 85.2939 74.6722 85.4284 74.2896 85.518C73.907 85.6077 73.5244 85.7422 73.094 85.8319C65.2031 87.9837 59.1773 89.8218 59.3207 90.4046C59.4642 90.8977 65.6335 89.5528 73.5723 87.4906C73.9548 87.4009 74.3853 87.2664 74.7679 87.1768C75.1504 87.0871 75.533 86.9526 75.9634 86.863C83.9022 84.6663 89.8802 82.7834 89.7367 82.2902Z" fill="#62666D"/>
<path d="M91.7454 118.782C91.5541 118.2 85.4326 119.589 77.4939 121.696C77.1113 121.786 76.6809 121.921 76.2983 122.01C75.9157 122.1 75.5331 122.234 75.1027 122.324C67.2118 124.476 61.1859 126.314 61.3294 126.897C61.4729 127.39 67.6422 126.045 75.5809 123.983C75.9635 123.893 76.3939 123.759 76.7765 123.669C77.1591 123.579 77.5417 123.445 77.9721 123.355C85.9109 121.203 91.8889 119.276 91.7454 118.782Z" fill="#62666D"/>
<path d="M56.1165 87.177C55.4948 87.177 55.3035 93.8567 55.3514 102.509C55.3514 102.957 55.3514 103.361 55.3514 103.809C55.3514 104.257 55.3514 104.661 55.3514 105.109C55.447 113.762 55.7818 120.441 56.4035 120.441C56.9774 120.441 57.2165 113.762 57.1687 105.109C57.1687 104.661 57.1687 104.257 57.1687 103.809C57.1687 103.361 57.1687 102.957 57.1687 102.509C57.0252 93.8119 56.6904 87.1322 56.1165 87.177Z" fill="#62666D"/>
<path d="M80.7937 92.7358C80.459 92.7358 80.172 94.2601 79.6938 96.7258C79.4547 97.981 79.2155 99.4604 78.7851 101.119C78.5938 101.926 78.3547 102.778 78.0199 103.585C77.733 104.347 77.2069 104.975 76.4896 105.423C76.3461 105.513 76.2026 105.602 76.0592 105.647L75.82 105.737L75.5809 105.826C75.4375 105.871 75.2462 105.916 75.0549 105.916C74.8636 105.961 74.7201 105.961 74.5288 105.961C73.6201 106.006 72.7593 105.782 72.042 105.423C71.8507 105.333 71.7072 105.244 71.5637 105.109L71.3246 104.93C71.229 104.885 71.229 104.795 71.1811 104.75C71.1333 104.706 71.0855 104.661 71.0377 104.571L70.8942 104.347C70.7985 104.212 70.7029 104.033 70.6551 103.854C70.3681 103.137 70.1768 102.374 70.0334 101.657C69.8899 100.94 69.7942 100.267 69.7464 99.6397C69.4595 97.1292 69.3638 95.605 69.0291 95.5602C68.7421 95.5602 68.4073 97.0844 68.4073 99.6846C68.4073 100.357 68.4552 101.074 68.503 101.836C68.5986 102.599 68.7421 103.45 69.0291 104.347C69.1247 104.571 69.1725 104.795 69.316 105.019L69.5073 105.378C69.5551 105.513 69.6986 105.602 69.7942 105.737C70.1768 106.23 70.6551 106.544 71.1333 106.857C72.1376 107.395 73.381 107.709 74.6245 107.664C74.8636 107.664 75.1505 107.62 75.3896 107.575C75.6287 107.53 75.8679 107.485 76.107 107.395L76.4896 107.306L76.8243 107.171C77.0635 107.082 77.3026 106.947 77.4939 106.813C77.7808 106.678 78.0199 106.454 78.2591 106.275C78.4982 106.051 78.6895 105.826 78.8808 105.602C79.2634 105.154 79.5503 104.616 79.6938 104.123C80.0764 103.181 80.2677 102.24 80.4111 101.388C80.7459 99.6846 80.8894 98.1155 80.985 96.8603C81.2241 94.3049 81.0807 92.7358 80.7937 92.7358Z" fill="#62666D"/>
<path d="M87.4412 35.3077C87.5847 35.3974 87.7282 35.3974 87.9195 35.3526C88.1108 35.3077 88.3499 35.2629 88.589 35.3077C88.7803 35.3526 88.9238 35.4422 88.9716 35.5767C88.9716 35.6215 88.9716 35.6664 88.9716 35.8009C88.9238 35.9354 88.8759 36.1147 88.7803 36.294C88.7325 36.3837 88.6847 36.4285 88.6368 36.5181C88.589 36.6078 88.5412 36.6526 88.4934 36.7423L88.4455 36.832L88.3977 36.8768L88.3499 36.832C88.3021 36.7423 88.2064 36.6975 88.1586 36.6078C88.0629 36.4733 87.9673 36.3837 87.9195 36.294C87.776 36.1147 87.7282 35.9353 87.7282 35.756C87.5847 35.5767 87.5847 35.3974 87.4412 35.3077C87.3456 35.2181 87.1543 35.2181 86.9152 35.3974C86.6761 35.5767 86.4369 36.025 86.5326 36.5181C86.5326 36.7871 86.6282 37.0561 86.7717 37.3251C86.8673 37.4596 86.9152 37.5493 86.963 37.6837L87.0108 37.7734L87.1065 37.9079C87.1543 37.9976 87.2499 38.0872 87.3456 38.1769C87.6804 38.5355 88.1586 38.7597 88.6847 38.67C88.9238 38.6252 89.1629 38.5355 89.402 38.3562C89.4977 38.2665 89.6411 38.1769 89.7368 38.0872L89.8803 37.9527L89.9759 37.8631C90.0715 37.7734 90.1672 37.6389 90.2628 37.5044C90.3585 37.3699 90.4063 37.2354 90.502 37.1009C90.6933 36.7423 90.7889 36.3837 90.8367 35.9802C90.8846 35.5767 90.7411 35.0836 90.502 34.7249C89.9759 34.0076 89.0194 33.8731 88.4934 34.0525C87.9195 34.2318 87.6804 34.5456 87.5369 34.7698C87.2978 35.0387 87.2978 35.2181 87.4412 35.3077Z" fill="#62666D"/>
<path d="M58.3645 45.6188C58.5079 45.7084 58.6514 45.7084 58.8427 45.6636C59.034 45.6188 59.2731 45.5739 59.5122 45.6188C59.7035 45.6636 59.847 45.7533 59.8948 45.8877C59.8948 45.9326 59.8948 45.9774 59.8948 46.1119C59.847 46.2464 59.7992 46.4257 59.7035 46.605C59.6557 46.6947 59.6079 46.7395 59.56 46.8292C59.5122 46.9188 59.4644 46.9637 59.4166 47.0533L59.3688 47.143L59.3209 47.1878L59.2731 47.143C59.2253 47.0533 59.1296 47.0085 59.0818 46.9188C58.9862 46.7844 58.8905 46.6947 58.8427 46.605C58.6992 46.4257 58.6514 46.2464 58.6514 46.0671C58.5079 45.8877 58.5079 45.7084 58.3645 45.6188C58.2688 45.5291 58.0775 45.5291 57.8384 45.7084C57.5993 45.8877 57.3602 46.336 57.4558 46.8292C57.4558 47.0982 57.5514 47.3671 57.6949 47.6361C57.7906 47.7706 57.8384 47.8603 57.8862 47.9948L57.934 48.0844L58.0297 48.2189C58.0775 48.3086 58.1732 48.3983 58.2688 48.4879C58.6036 48.8466 59.0818 49.0707 59.6079 48.981C59.847 48.9362 60.0861 48.8466 60.3252 48.6672C60.4209 48.5776 60.5644 48.4879 60.66 48.3983L60.8035 48.2638L60.8991 48.1741C60.9948 48.0844 61.0904 47.9499 61.1861 47.8155C61.2817 47.681 61.3295 47.5465 61.4252 47.412C61.6165 47.0533 61.7121 46.6947 61.7599 46.2912C61.8078 45.8877 61.6643 45.3946 61.4252 45.036C60.8991 44.3187 59.9426 44.1842 59.4166 44.3635C58.8427 44.5428 58.6036 44.8566 58.4601 45.0808C58.221 45.3946 58.2688 45.5739 58.3645 45.6188Z" fill="#62666D"/>
<path d="M94.6627 41.9425C94.8061 42.0322 94.9496 42.0322 95.1409 41.9873C95.3322 41.9425 95.5713 41.8977 95.8104 41.9425C96.0017 41.9873 96.1452 42.077 96.193 42.2115C96.193 42.2563 96.193 42.3011 96.193 42.4356C96.1452 42.5701 96.0974 42.7494 96.0017 42.9288C95.9539 43.0184 95.9061 43.0633 95.8583 43.1529C95.8104 43.2426 95.7626 43.2874 95.7148 43.3771L95.667 43.4667L95.6191 43.5116L95.5713 43.4667C95.5235 43.3771 95.4278 43.3322 95.38 43.2426C95.2844 43.1081 95.1887 43.0184 95.1409 42.9288C94.9974 42.7494 94.9496 42.5701 94.9496 42.3908C94.8061 42.2115 94.8061 42.0322 94.6627 41.9425C94.567 41.8528 94.3757 41.8528 94.1366 42.0321C93.8975 42.2115 93.6584 42.6598 93.754 43.1529C93.754 43.4219 93.8497 43.6909 93.9931 43.9599C94.0888 44.0944 94.1366 44.184 94.1844 44.3185L94.2323 44.4082L94.3279 44.5427C94.3757 44.6323 94.4714 44.722 94.567 44.8116C94.9018 45.1703 95.38 45.3944 95.9061 45.3048C96.1452 45.26 96.3843 45.1703 96.6234 44.991C96.7191 44.9013 96.8626 44.8116 96.9582 44.722L97.1017 44.5875L97.1973 44.4978C97.293 44.4082 97.3886 44.2737 97.4843 44.1392C97.5799 44.0047 97.6277 43.8702 97.7234 43.7357C97.9147 43.3771 98.0103 43.0184 98.0582 42.6149C98.106 42.2115 97.9625 41.7183 97.7234 41.3597C97.1973 40.6424 96.2409 40.5079 95.7148 40.6872C95.1409 40.8666 94.9018 41.1804 94.7583 41.4045C94.5192 41.7183 94.567 41.8528 94.6627 41.9425Z" fill="#62666D"/>
<path d="M20.0575 76.6414C19.6271 76.2379 18.6706 76.7759 17.6185 77.7173C17.5706 77.7622 17.5228 77.807 17.475 77.8518C17.4272 77.8967 17.3793 77.9415 17.3315 77.9863C16.375 78.9726 15.7533 79.8244 16.1837 80.2727C16.5663 80.6313 17.5706 80.1382 18.6228 79.1967C18.6706 79.1519 18.7184 79.1071 18.7662 79.0623C18.8141 79.0174 18.8619 78.9726 18.9097 78.9278C19.914 77.9415 20.4879 77 20.0575 76.6414Z" fill="#62666D"/>
<path d="M76.1071 48.4875C75.5332 48.2634 75.1984 48.3979 74.9593 48.7565V48.8013C74.9593 48.8013 74.9593 48.8462 74.9115 48.8462C74.768 49.2048 74.9115 49.5634 75.4854 49.7876C76.0114 50.0118 76.394 49.8324 76.6332 49.5186V49.4738C76.6332 49.4738 76.6331 49.429 76.681 49.429C76.7766 49.1151 76.6331 48.7117 76.1071 48.4875Z" fill="#62666D"/>
<path d="M45.165 44.139C44.7346 44.5425 44.7346 44.9011 44.9737 45.1701L45.0216 45.2149L45.0694 45.2597C45.3563 45.4839 45.7389 45.4839 46.1693 45.0804C46.5519 44.7218 46.5997 44.3183 46.3606 44.0493L46.3128 44.0045L46.265 43.9597C45.978 43.7355 45.5954 43.7355 45.165 44.139Z" fill="#62666D"/>
<path d="M50.7126 0.0258789C50.4257 0.0258789 50.1866 0.250032 50.0909 0.608676C49.9953 0.967321 50.0431 1.46046 50.2344 1.99842L50.2822 2.13292L50.33 2.26741C50.5692 2.76054 50.9517 3.16402 51.2865 3.38817C51.6213 3.61232 51.9082 3.61232 52.1473 3.433C52.5778 3.07436 52.3386 2.4019 52.0039 1.59495L51.956 1.46046L51.9082 1.32597C51.5735 0.653507 51.2865 0.0258789 50.7126 0.0258789Z" fill="#62666D"/>
<path d="M83.6153 8.18495C83.1849 7.78147 82.611 7.9608 82.1328 8.36427C82.1328 8.36427 82.085 8.4091 82.085 8.45393C82.0372 8.45393 82.0372 8.49876 81.9893 8.49876C81.5589 8.9919 81.3676 9.48504 81.798 9.88851C82.1806 10.2472 82.7545 10.1127 83.2806 9.70919C83.2806 9.70919 83.3284 9.66436 83.3284 9.61953C83.3762 9.61953 83.3762 9.5747 83.424 9.5747C83.8545 9.08156 84.0458 8.54359 83.6153 8.18495Z" fill="#62666D"/>
<path d="M140.669 46.6049C140.239 46.2015 139.713 46.336 139.282 46.6946L139.235 46.7394L139.187 46.7843C138.804 47.1877 138.661 47.6809 139.091 48.0843C139.474 48.443 140.048 48.3533 140.478 47.9947L140.526 47.9499L140.574 47.905C140.956 47.4567 141.052 46.9636 140.669 46.6049Z" fill="#62666D"/>
<path d="M102.697 8.00574C102.267 7.60226 102.028 7.46777 101.932 7.46777C101.884 7.55743 102.028 7.73676 102.506 8.18506C102.888 8.54371 103.175 8.72303 103.271 8.72303C103.271 8.58854 103.128 8.36438 102.697 8.00574Z" fill="#62666D"/>
<path d="M119.053 57.9019C118.622 57.4984 117.762 57.9467 116.901 58.7089C116.853 58.7537 116.805 58.7985 116.757 58.8434C116.709 58.8882 116.662 58.933 116.614 58.9779C115.801 59.7848 115.323 60.5469 115.753 60.9952C116.136 61.3539 116.996 60.9504 117.905 60.1883C117.953 60.1434 118.001 60.0986 118.049 60.0538C118.096 60.009 118.144 59.9641 118.192 59.9193C119.005 59.0675 119.435 58.2606 119.053 57.9019Z" fill="#62666D"/>
<path d="M73.4768 16.8376C73.3811 16.7032 72.4246 17.1963 70.8465 18.2274C70.0335 18.7654 69.077 19.4378 68.0249 20.3344C66.9727 21.231 65.8728 22.3518 64.8685 23.7864C63.8642 25.221 63.1468 27.1487 63.1946 29.2557C63.2425 31.3627 64.1033 33.5594 65.7293 35.3975C66.5423 36.2941 67.5466 37.1459 68.6944 37.7735C69.8422 38.4011 71.229 38.8494 72.6638 38.8943C74.0985 38.9391 75.6767 38.5805 76.9201 37.7735C78.1635 36.9666 79.1678 35.801 79.7417 34.4112C80.1721 33.2905 80.3156 32.08 80.0765 30.9144C79.933 30.3316 79.6939 29.704 79.2635 29.166C78.833 28.6281 78.1635 28.2246 77.5418 28.0005C75.9636 27.5073 74.2898 27.6418 72.9029 28.1798C71.516 28.7177 70.3204 29.6144 69.4596 30.6455C69.0292 31.1386 68.5987 31.7214 68.3118 32.3042C68.0248 32.887 67.7857 33.4698 67.5944 34.0526C67.2118 35.263 67.0684 36.4286 67.0205 37.5942C66.9727 39.8806 67.3075 41.9876 67.6423 43.9153C68.0249 45.843 68.4553 47.6362 68.9813 49.2053C69.9856 52.3883 71.1334 54.8091 72.0421 56.4679C72.9507 58.0818 73.5724 58.8887 73.7159 58.8439C73.8594 58.799 73.4289 57.8576 72.7594 56.154C72.0899 54.4953 71.0856 52.0296 70.2726 48.8915C69.8422 47.3224 69.4596 45.574 69.1726 43.6912C68.8857 41.8083 68.6466 39.7461 68.7422 37.639C68.79 36.6079 68.9335 35.532 69.2683 34.5009C69.603 33.4698 70.0813 32.4835 70.8465 31.6766C71.5638 30.8248 72.5203 30.1523 73.6202 29.7488C74.6724 29.3454 75.9158 29.2557 76.9201 29.6144C77.3027 29.7488 77.6374 29.9282 77.8287 30.1972C78.0679 30.4661 78.2113 30.8248 78.307 31.2283C78.4983 32.0352 78.4026 32.9318 78.0679 33.7836C77.6374 34.8147 76.8723 35.7561 75.9636 36.3389C75.0071 36.9666 73.9072 37.2355 72.8072 37.1907C71.7073 37.1459 70.6073 36.8321 69.603 36.3389C68.6466 35.8458 67.7857 35.1285 67.0684 34.3664C65.6815 32.8422 64.9163 30.9144 64.7728 29.166C64.6772 27.3728 65.2511 25.7589 66.0641 24.414C66.8771 23.0691 67.8814 21.9483 68.8379 21.0517C69.7943 20.1551 70.6552 19.393 71.3725 18.8102C72.7594 17.5998 73.5246 16.9721 73.4768 16.8376Z" fill="#62666D"/>
</g>
<defs>
<clipPath id="clip0_1240_12352">
<rect width="141.35" height="127.534" fill="white" transform="translate(0.824951)"/>
</clipPath>
</defs>
</svg>
