<svg width="16" height="16" viewBox="0 0 16 16" fill="none" xmlns="http://www.w3.org/2000/svg">
<g clip-path="url(#clip0_3317_9068)">
<path d="M8 16C12.4183 16 16 12.4183 16 8C16 3.58172 12.4183 0 8 0C3.58172 0 0 3.58172 0 8C0 12.4183 3.58172 16 8 16Z" fill="#F0F0F0"/>
<path d="M1.6555 3.12939C1.02709 3.94699 0.55325 4.88933 0.277344 5.91305H4.43916L1.6555 3.12939Z" fill="#0052B4"/>
<path d="M15.7242 5.91302C15.4483 4.88933 14.9745 3.94699 14.3461 3.12939L11.5625 5.91302H15.7242Z" fill="#0052B4"/>
<path d="M0.277344 10.0872C0.553281 11.1108 1.02712 12.0532 1.6555 12.8708L4.43906 10.0872H0.277344Z" fill="#0052B4"/>
<path d="M12.8735 1.65382C12.0559 1.02542 11.1136 0.551572 10.0898 0.275635V4.43742L12.8735 1.65382Z" fill="#0052B4"/>
<path d="M3.13281 14.3463C3.95041 14.9747 4.89275 15.4486 5.91644 15.7245V11.5627L3.13281 14.3463Z" fill="#0052B4"/>
<path d="M5.91641 0.275635C4.89272 0.551572 3.95037 1.02542 3.13281 1.65379L5.91641 4.43738V0.275635Z" fill="#0052B4"/>
<path d="M10.0898 15.7245C11.1135 15.4486 12.0559 14.9747 12.8734 14.3463L10.0898 11.5627V15.7245Z" fill="#0052B4"/>
<path d="M11.5625 10.0872L14.3461 12.8708C14.9745 12.0532 15.4483 11.1108 15.7242 10.0872H11.5625Z" fill="#0052B4"/>
<path d="M15.9323 6.95653H9.04353H9.0435V0.0677188C8.70191 0.02325 8.35366 0 8 0C7.64628 0 7.29809 0.02325 6.95653 0.0677188V6.95647V6.9565H0.0677188C0.02325 7.29809 0 7.64634 0 8C0 8.35372 0.02325 8.70191 0.0677188 9.04347H6.95647H6.9565V15.9323C7.29809 15.9768 7.64628 16 8 16C8.35366 16 8.70191 15.9768 9.04347 15.9323V9.04353V9.0435H15.9323C15.9768 8.70191 16 8.35372 16 8C16 7.64634 15.9768 7.29809 15.9323 6.95653Z" fill="#D80027"/>
<path d="M10.0859 10.0869L13.6558 13.6568C13.82 13.4927 13.9766 13.3211 14.1261 13.1432L11.0698 10.0869H10.0859V10.0869Z" fill="#D80027"/>
<path d="M5.91366 10.0869H5.91359L2.34375 13.6568C2.50787 13.8209 2.67947 13.9776 2.85734 14.127L5.91366 11.0706V10.0869Z" fill="#D80027"/>
<path d="M5.91122 5.91299V5.91292L2.34134 2.34302C2.17716 2.50714 2.02053 2.67874 1.87109 2.85661L4.92744 5.91296L5.91122 5.91299Z" fill="#D80027"/>
<path d="M10.0859 5.9132L13.6558 2.34327C13.4917 2.17908 13.3201 2.02245 13.1423 1.87305L10.0859 4.92939V5.9132Z" fill="#D80027"/>
</g>
<defs>
<clipPath id="clip0_3317_9068">
<rect width="16" height="16" fill="white"/>
</clipPath>
</defs>
</svg>
