<svg width="20" height="20" viewBox="0 0 20 20" fill="none" xmlns="http://www.w3.org/2000/svg">
<path d="M15.4948 5.5C15.0122 5.5 14.6007 5.32812 14.2604 4.98438C13.9201 4.64062 13.75 4.22743 13.75 3.74479C13.75 3.26215 13.9219 2.85069 14.2656 2.51042C14.6094 2.17014 15.0226 2 15.5052 2C15.9878 2 16.3993 2.17188 16.7396 2.51562C17.0799 2.85938 17.25 3.27257 17.25 3.75521C17.25 4.23785 17.0781 4.64931 16.7344 4.98958C16.3906 5.32986 15.9774 5.5 15.4948 5.5ZM14.5 18V11.5C14.5 11.0972 14.4132 10.7222 14.2396 10.375C14.066 10.0278 13.8194 9.73611 13.5 9.5L14.1875 7.45833C14.2847 7.18056 14.4528 6.95139 14.6917 6.77083C14.9306 6.59028 15.2 6.5 15.5 6.5C15.8 6.5 16.0694 6.59028 16.3083 6.77083C16.5472 6.95139 16.7153 7.18056 16.8125 7.45833L19 14H16.5V18H14.5ZM11 9.5C10.6528 9.5 10.3576 9.37847 10.1146 9.13542C9.87153 8.89236 9.75 8.59722 9.75 8.25C9.75 7.90278 9.87153 7.60764 10.1146 7.36458C10.3576 7.12153 10.6528 7 11 7C11.3472 7 11.6424 7.12153 11.8854 7.36458C12.1285 7.60764 12.25 7.90278 12.25 8.25C12.25 8.59722 12.1285 8.89236 11.8854 9.13542C11.6424 9.37847 11.3472 9.5 11 9.5ZM4.99479 5.5C4.51215 5.5 4.10069 5.32812 3.76042 4.98438C3.42014 4.64062 3.25 4.22743 3.25 3.74479C3.25 3.26215 3.42188 2.85069 3.76562 2.51042C4.10938 2.17014 4.52257 2 5.00521 2C5.48785 2 5.89931 2.17188 6.23958 2.51562C6.57986 2.85938 6.75 3.27257 6.75 3.75521C6.75 4.23785 6.57812 4.64931 6.23438 4.98958C5.89062 5.32986 5.47743 5.5 4.99479 5.5ZM3.5 18V12.5H2V8C2.02778 7.58333 2.18444 7.22917 2.47 6.9375C2.75569 6.64583 3.09903 6.5 3.5 6.5H6.5C6.92389 6.5 7.28681 6.64583 7.58875 6.9375C7.89069 7.22917 8.02778 7.58333 8 8V12.5H6.5V18H3.5ZM9.75 18V15H9V11.5C9 11.2222 9.09722 10.9861 9.29167 10.7917C9.48611 10.5972 9.72222 10.5 10 10.5H12C12.2778 10.5 12.5208 10.5972 12.7292 10.7917C12.9375 10.9861 13.0278 11.2222 13 11.5V15H12.25V18H9.75Z" fill="#5F6368"/>
</svg>
