<svg xmlns="http://www.w3.org/2000/svg" width="24" height="24" viewBox="0 0 24 24" fill="none">
    <path
        d="M22.5 23.6251C22.275 23.6251 22.125 23.4751 22.125 23.2501C22.125 22.3501 21.75 20.6251 19.0875 19.1626C18.6 18.9001 18 18.6751 17.325 18.4126C15.7125 17.8126 13.8375 17.1001 13.8375 15.6001V14.1001C13.8375 13.8751 13.9875 13.7251 14.2125 13.7251C14.4375 13.7251 14.5875 13.8751 14.5875 14.1001V15.6001C14.5875 16.5751 16.125 17.1751 17.5875 17.7376C18.2625 18.0001 18.9 18.2251 19.425 18.5251C22.425 20.1751 22.875 22.2001 22.875 23.2501C22.875 23.4751 22.725 23.6251 22.5 23.6251ZM1.5 23.6251C1.275 23.6251 1.125 23.4751 1.125 23.2501C1.125 22.2001 1.575 20.1376 4.5375 18.5251C5.0625 18.2251 5.7 18.0001 6.375 17.7376C7.8375 17.1751 9.375 16.6126 9.375 15.6001V14.1001C9.375 13.8751 9.525 13.7251 9.75 13.7251C9.975 13.7251 10.125 13.8751 10.125 14.1001V15.6001C10.125 17.1001 8.2875 17.8126 6.6375 18.4126C6 18.6751 5.3625 18.9001 4.875 19.1626C2.25 20.6251 1.875 22.3501 1.875 23.2501C1.875 23.4751 1.725 23.6251 1.5 23.6251Z"
        fill="var(--svg-color,#1A9EDB)" />
    <path
        d="M12 21.3749C9.75 21.3749 7.6875 20.0624 6.7875 17.9999C6.7125 17.8124 6.7875 17.5874 6.975 17.5124C7.1625 17.4374 7.3875 17.5124 7.4625 17.6999C8.25 19.4624 10.05 20.6249 12 20.6249C13.95 20.6249 15.75 19.4624 16.5375 17.6999C16.6125 17.5124 16.8375 17.4374 17.025 17.5124C17.2125 17.5874 17.2875 17.8124 17.2125 17.9999C16.3125 20.0624 14.25 21.3749 12 21.3749ZM12 15.3749C10.0125 15.3749 8.1 13.4999 7.5375 11.0999C7.0125 10.9124 6.375 10.3499 6.375 8.9999C6.375 8.6624 6.4125 8.3249 6.525 8.0624C6.6375 7.7249 6.9375 7.4999 7.3125 7.4624C8.325 7.3499 8.625 6.5624 8.9625 5.3999C9.1875 4.5749 9.45 3.7124 10.3125 3.7124C10.7625 3.7124 11.1375 3.8624 11.4 3.9749C11.5875 3.8249 11.925 3.7124 12.4875 3.7124C13.35 3.7124 13.95 4.5749 14.625 5.5124C15.2625 6.4124 15.9375 7.3499 16.7625 7.4624C17.1 7.4999 17.3625 7.7249 17.5125 8.0249C17.5875 8.3249 17.625 8.6249 17.625 8.9999C17.625 10.3499 16.95 10.9124 16.4625 11.0999C15.9 13.4999 13.9875 15.3749 12 15.3749ZM7.3875 8.2499C7.3125 8.2499 7.275 8.2874 7.2375 8.3624C7.1625 8.5124 7.125 8.7374 7.125 8.9999C7.125 10.3124 7.875 10.4249 7.9125 10.4249C8.0625 10.4249 8.2125 10.5749 8.25 10.7249C8.7 13.1249 10.5375 14.6249 12 14.6249C13.4625 14.6249 15.3 13.1249 15.75 10.7249C15.7875 10.5749 15.9 10.4249 16.0875 10.4249C16.1625 10.4249 16.875 10.2749 16.875 8.9999C16.875 8.6624 16.8 8.4749 16.7625 8.3624C16.725 8.2874 16.6875 8.2499 16.6125 8.2499C15.45 8.0999 14.6625 6.9749 13.95 5.9999C13.425 5.2874 12.9 4.5374 12.45 4.5374C11.8875 4.5374 11.7375 4.7249 11.7375 4.7249C11.7 4.7999 11.625 4.8749 11.5125 4.8749C11.4 4.9124 11.2875 4.8749 11.2125 4.7999C11.2125 4.7999 10.8375 4.4999 10.3125 4.4999C10.05 4.4999 9.9 4.9499 9.675 5.6624C9.375 6.6749 8.9625 8.0999 7.3875 8.2499Z"
        fill="var(--svg-color,#1A9EDB)" />
    <path
        d="M18.0376 15.375C16.6876 15.375 16.1626 15.1125 16.1251 15.1125C15.9376 15.0375 15.8626 14.8125 15.9751 14.625C16.0501 14.4375 16.2751 14.3625 16.4626 14.475C16.6501 14.5875 16.9126 14.6625 18.0376 14.6625C19.1251 14.6625 19.5001 13.875 19.5001 13.1625C19.5001 12.0375 18.9376 10.8375 18.6751 10.275C18.4501 9.7875 18.4876 9.1875 18.5251 8.5875C18.5626 8.025 18.6001 7.4625 18.4501 6.9C18.2626 6.15 17.7751 5.5875 17.3251 5.1C17.1001 4.875 16.9126 4.65 16.7626 4.425C16.6126 4.2 16.4626 3.9 16.3126 3.5625C15.8251 2.4375 15.2251 1.125 13.5001 1.125C12.0751 1.125 11.5501 1.725 11.5501 1.725C11.4376 1.875 11.1751 1.9125 11.0251 1.7625C10.8751 1.65 10.8376 1.3875 10.9501 1.2375C10.9876 1.2375 11.6626 0.375 13.5001 0.375C15.7126 0.375 16.5001 2.0625 17.0251 3.1875C17.1751 3.4875 17.2876 3.75 17.4001 3.9C17.5501 4.0875 17.7376 4.3125 17.9251 4.5C18.4126 5.0625 19.0126 5.7 19.2376 6.6375C19.3876 7.3125 19.3501 7.9875 19.3126 8.55C19.2751 9.1125 19.2376 9.5625 19.3876 9.9C19.6876 10.5375 20.2501 11.8125 20.2501 13.0875C20.2501 14.25 19.5751 15.375 18.0376 15.375Z"
        fill="var(--svg-color,#1A9EDB)" />
    <path
        d="M5.9625 15.375C4.425 15.375 3.75 14.25 3.75 13.125C3.75 11.85 4.35 10.5375 4.6125 9.9375C4.7625 9.6375 4.725 9.15 4.6875 8.5875C4.65 7.9875 4.6125 7.35 4.7625 6.675C4.9875 5.7 5.55 5.1 6.075 4.5375C6.2625 4.3125 6.45 4.125 6.6 3.9375C6.7125 3.75 6.8625 3.4875 6.975 3.225C7.425 2.2125 8.1 0.75 10.125 0.75C10.7625 0.75 11.4 1.125 11.4375 1.2C11.625 1.3125 11.6625 1.5375 11.55 1.725C11.4375 1.9125 11.2125 1.95 11.025 1.8375C10.9125 1.725 10.4625 1.5 10.125 1.5C8.5875 1.5 8.1 2.55 7.65 3.525C7.5 3.825 7.3875 4.125 7.2 4.35L6.6375 5.025C6.1875 5.55 5.7 6.075 5.5125 6.825C5.4 7.3875 5.4 7.9875 5.4375 8.5125C5.475 9.15 5.5125 9.7125 5.2875 10.2C5.0625 10.8 4.5 12 4.5 13.125C4.5 13.8375 4.875 14.625 5.9625 14.625C7.125 14.625 7.5375 14.4375 7.575 14.4375C7.7625 14.3625 7.9875 14.4375 8.0625 14.625C8.1375 14.8125 8.0625 15.0375 7.9125 15.1125C7.8375 15.1125 7.3125 15.375 5.9625 15.375Z"
        fill="var(--svg-color,#1A9EDB)" />
</svg>