<svg width="16" height="16" viewBox="0 0 16 16" fill="none" xmlns="http://www.w3.org/2000/svg">
<g id="black-plane 1" clip-path="url(#clip0_4518_10392)">
<g id="Group">
<path id="Vector" opacity="0.984" fill-rule="evenodd" clip-rule="evenodd" d="M15.9844 7.73307C15.9844 7.89972 15.9844 8.06641 15.9844 8.23307C15.8343 8.7726 15.4801 9.09028 14.9219 9.18619C13.4115 9.1966 11.901 9.20703 10.3906 9.21744C9.05728 11.3424 7.72397 13.4674 6.39062 15.5924C5.84866 15.6185 5.307 15.6133 4.76562 15.5768C5.42306 13.4535 6.08975 11.3337 6.76562 9.21744C5.30728 9.1966 3.84897 9.1966 2.39062 9.21744C1.99479 9.73828 1.59896 10.2591 1.20312 10.7799C0.797009 10.7956 0.390759 10.8008 -0.015625 10.7956C-0.015625 10.7539 -0.015625 10.7122 -0.015625 10.6706C0.253729 9.78122 0.514147 8.88541 0.765625 7.98307C0.514147 7.08072 0.253729 6.18491 -0.015625 5.29557C-0.015625 5.25391 -0.015625 5.21222 -0.015625 5.17057C0.390759 5.16535 0.797009 5.17057 1.20312 5.18619C1.59896 5.70703 1.99479 6.22785 2.39062 6.74869C3.84897 6.76953 5.30728 6.76953 6.76562 6.74869C6.08975 4.63244 5.42306 2.51266 4.76562 0.389315C5.307 0.352868 5.84866 0.347659 6.39062 0.37369C7.72397 2.49869 9.05728 4.62369 10.3906 6.74869C11.901 6.7591 13.4115 6.76953 14.9219 6.77994C15.4801 6.87585 15.8343 7.19353 15.9844 7.73307Z" fill="#1A9EDB"/>
</g>
</g>
<defs>
<clipPath id="clip0_4518_10392">
<rect width="16" height="16" fill="white"/>
</clipPath>
</defs>
</svg>
