<svg width="31" height="20" viewBox="0 0 31 20" fill="none" xmlns="http://www.w3.org/2000/svg">
<path d="M0.5 10.0001H14.5" stroke="#7E8B98" stroke-width="0.5"/>
<path d="M15.5 10.0001L30.5 10.0001" stroke="#7E8B98" stroke-width="0.5" stroke-dasharray="1 1"/>
<g clip-path="url(#clip0_13_5951)">
<path d="M19.9508 9.48626C20.158 9.79739 20.158 10.2026 19.9508 10.5137C19.8022 10.7365 19.6052 10.9228 19.3745 11.0589C19.1439 11.1949 18.8855 11.2771 18.6186 11.2993L16.4962 11.4764L14.6623 14.6849C14.6077 14.7806 14.5287 14.8601 14.4334 14.9155C14.3381 14.9708 14.2298 14.9999 14.1196 14.9999H13.199C13.1208 14.9999 13.0437 14.9818 12.9738 14.9469C12.9038 14.912 12.8429 14.8614 12.7959 14.799C12.7488 14.7365 12.7169 14.6641 12.7026 14.5872C12.6883 14.5104 12.6921 14.4313 12.7135 14.3561L13.5599 11.3933L11.6108 11.0387L11.3326 11.317C11.2155 11.434 11.0561 11.5001 10.8906 11.5001L9.70091 11.4998C9.61477 11.4998 9.53005 11.4778 9.45481 11.4359C9.37957 11.394 9.31629 11.3335 9.27101 11.2602C9.22573 11.187 9.19994 11.1033 9.1961 11.0173C9.19226 10.9312 9.21049 10.8456 9.24907 10.7686L9.63338 9.99962L9.24907 9.23065C9.21049 9.15363 9.19226 9.06803 9.1961 8.98198C9.19994 8.89593 9.22573 8.81229 9.27101 8.73902C9.31629 8.66574 9.37957 8.60527 9.45481 8.56335C9.53005 8.52142 9.61477 8.49944 9.70091 8.4995L10.891 8.4995C10.9731 8.49951 11.0543 8.51569 11.1302 8.54711C11.206 8.57853 11.2749 8.62459 11.3329 8.68264L11.6112 8.96088L13.5603 8.60627L12.7139 5.64349C12.6924 5.56834 12.6887 5.48923 12.7029 5.41238C12.7172 5.33554 12.7492 5.26306 12.7962 5.20065C12.8433 5.13824 12.9042 5.0876 12.9741 5.05273C13.0441 5.01785 13.1212 4.99969 13.1993 4.99967L14.12 4.99967C14.2302 4.99967 14.3384 5.02881 14.4337 5.08413C14.529 5.13946 14.608 5.219 14.6627 5.31469L16.4962 8.52283L18.6189 8.70032C18.8858 8.72252 19.1442 8.8047 19.3749 8.94073C19.6056 9.07675 19.8022 9.26347 19.9508 9.48626Z" fill="#7E8B98"/>
</g>
<defs>
<clipPath id="clip0_13_5951">
<rect width="12" height="12" fill="white" transform="translate(13.9854 1.51471) rotate(45)"/>
</clipPath>
</defs>
</svg>
