<svg xmlns="http://www.w3.org/2000/svg" xml:space="preserve" fill="var(--svg-color,#000000)" viewBox="0 0 512 512">
    <path
        d="M256 75.2c-99.7 0-180.8 81.1-180.8 180.8S156.3 436.8 256 436.8a181 181 0 0 0 0-361.6zm0 340.7C167.8 415.9 96 344 96 256S167.8 96.1 256 96.1 415.8 168 415.8 256 344.1 415.9 256 415.9z" />
    <path
        d="M490.2 219.7c12 0 21.8-9.7 21.8-21.7v-69.6a10.4 10.4 0 1 0-20.9 0V198c0 .4-.4.8-.9.8h-6.1v-70.4a10.4 10.4 0 0 0-20.9 0v70.4H457a.9.9 0 0 1-.9-.8v-69.6a10.4 10.4 0 1 0-20.9 0V198c0 12 9.8 21.7 21.8 21.7h6.2v47h-6.4c-5.8 0-10.4 4.7-10.4 10.5v110.4a27.1 27.1 0 0 0 54.3 0V277.2c0-5.8-4.7-10.4-10.5-10.4h-6.1v-47h6.1zm-10.4 168a6.3 6.3 0 0 1-12.5 0v-100h12.5v100zm-467-290A10.5 10.5 0 0 0 0 107.8v279.8a27.1 27.1 0 0 0 54.3 0v-239c0-32.6-27.1-47.6-41.5-51zm20.6 290a6.3 6.3 0 0 1-12.5 0v-100h12.5v100zm0-121H21V124.3l.6.5c8 6 12 13.8 12 23.9v118.2zM346 224.4a95.5 95.5 0 0 0-90-63.8 10.4 10.4 0 0 0 0 20.9c31.6 0 59.8 20 70.3 49.8a10.5 10.5 0 1 0 19.7-6.9zm-5 21.1c-5.8 0-10.5 4.7-10.5 10.4v.1c0 5.8 4.7 10.4 10.4 10.4a10.5 10.5 0 0 0 0-21z" />
    <path
        d="M256 122.3A133.8 133.8 0 0 0 217.5 384a10.4 10.4 0 1 0 6-20 113.5 113.5 0 0 1-80.3-108A113 113 0 0 1 256 143.1 113 113 0 0 1 368.8 256c0 49.4-33 93.8-80.4 108a10.4 10.4 0 0 0 6 20c27-8 51.2-25 68.3-47.5A133.8 133.8 0 0 0 256 122.3z" />
    <path d="M256 368.7a10.4 10.4 0 1 0 10.4 10.6v-.1c0-5.8-4.7-10.5-10.4-10.5z" />
</svg>