<svg width="14" height="15" fill="none" xmlns="http://www.w3.org/2000/svg"><path d="M5 3.926v9.24M9 1.5v9.333M1 5.307c0-.983 0-1.474.262-1.76a1 1 0 0 1 .331-.24c.355-.158.821-.002 1.753.308.711.238 1.067.356 1.427.344a2 2 0 0 0 .392-.052c.35-.084.662-.292 1.286-.707l.921-.615c.8-.533 1.2-.8 1.658-.86.459-.062.915.09 1.826.394l.777.258c.66.22.99.33 1.178.592.189.262.189.61.189 1.306v5.419c0 .982 0 1.473-.262 1.76a1.001 1.001 0 0 1-.331.239c-.355.158-.821.002-1.753-.308-.711-.238-1.067-.356-1.427-.344a2.008 2.008 0 0 0-.392.052c-.35.084-.662.292-1.286.707l-.921.615c-.8.533-1.2.8-1.658.86-.459.062-.915-.09-1.826-.394l-.777-.258c-.66-.22-.99-.33-1.178-.592C1 11.769 1 11.42 1 10.725V5.306Z" stroke="#64748B" stroke-width="1.5"/></svg>