<svg width="18" height="18" viewBox="0 0 18 18" fill="none" xmlns="http://www.w3.org/2000/svg">
<g id="gas">
<path id="Vector" d="M3 15.75V3.75C3 3.3375 3.14687 2.98438 3.44063 2.69063C3.73438 2.39687 4.0875 2.25 4.5 2.25H9C9.4125 2.25 9.76563 2.39687 10.0594 2.69063C10.3531 2.98438 10.5 3.3375 10.5 3.75V9H11.25C11.6625 9 12.0156 9.14688 12.3094 9.44063C12.6031 9.73438 12.75 10.0875 12.75 10.5V13.875C12.75 14.0875 12.8219 14.2656 12.9656 14.4094C13.1094 14.5531 13.2875 14.625 13.5 14.625C13.7125 14.625 13.8906 14.5531 14.0344 14.4094C14.1781 14.2656 14.25 14.0875 14.25 13.875V8.475C14.1375 8.5375 14.0188 8.57813 13.8938 8.59688C13.7688 8.61563 13.6375 8.625 13.5 8.625C12.975 8.625 12.5312 8.44375 12.1688 8.08125C11.8063 7.71875 11.625 7.275 11.625 6.75C11.625 6.35 11.7344 5.99063 11.9531 5.67188C12.1719 5.35313 12.4625 5.125 12.825 4.9875L11.25 3.4125L12.0375 2.625L14.8125 5.325C15 5.5125 15.1406 5.73125 15.2344 5.98125C15.3281 6.23125 15.375 6.4875 15.375 6.75V13.875C15.375 14.4 15.1938 14.8438 14.8313 15.2063C14.4688 15.5688 14.025 15.75 13.5 15.75C12.975 15.75 12.5312 15.5688 12.1688 15.2063C11.8063 14.8438 11.625 14.4 11.625 13.875V10.125H10.5V15.75H3ZM4.5 7.5H9V3.75H4.5V7.5ZM13.5 7.5C13.7125 7.5 13.8906 7.42813 14.0344 7.28438C14.1781 7.14062 14.25 6.9625 14.25 6.75C14.25 6.5375 14.1781 6.35938 14.0344 6.21563C13.8906 6.07188 13.7125 6 13.5 6C13.2875 6 13.1094 6.07188 12.9656 6.21563C12.8219 6.35938 12.75 6.5375 12.75 6.75C12.75 6.9625 12.8219 7.14062 12.9656 7.28438C13.1094 7.42813 13.2875 7.5 13.5 7.5ZM4.5 14.25H9V9H4.5V14.25Z" fill="#9C9EAF"/>
</g>
</svg>
