<svg width="18" height="18" viewBox="0 0 18 18" fill="none" xmlns="http://www.w3.org/2000/svg">
<g id="manual">
<path id="Vector" d="M3 15.75C2.375 15.75 1.84375 15.5313 1.40625 15.0938C0.96875 14.6563 0.75 14.125 0.75 13.5C0.75 13.0125 0.890625 12.575 1.17188 12.1875C1.45312 11.8 1.8125 11.5312 2.25 11.3813V6.61875C1.8125 6.46875 1.45312 6.2 1.17188 5.8125C0.890625 5.425 0.75 4.9875 0.75 4.5C0.75 3.875 0.96875 3.34375 1.40625 2.90625C1.84375 2.46875 2.375 2.25 3 2.25C3.625 2.25 4.15625 2.46875 4.59375 2.90625C5.03125 3.34375 5.25 3.875 5.25 4.5C5.25 4.9875 5.10938 5.425 4.82812 5.8125C4.54688 6.2 4.1875 6.46875 3.75 6.61875V8.25H8.25V6.61875C7.8125 6.46875 7.45313 6.2 7.17188 5.8125C6.89063 5.425 6.75 4.9875 6.75 4.5C6.75 3.875 6.96875 3.34375 7.40625 2.90625C7.84375 2.46875 8.375 2.25 9 2.25C9.625 2.25 10.1562 2.46875 10.5938 2.90625C11.0312 3.34375 11.25 3.875 11.25 4.5C11.25 4.9875 11.1094 5.425 10.8281 5.8125C10.5469 6.2 10.1875 6.46875 9.75 6.61875V8.25H13.5C13.7125 8.25 13.8906 8.17813 14.0344 8.03438C14.1781 7.89062 14.25 7.7125 14.25 7.5V6.61875C13.8125 6.46875 13.4531 6.2 13.1719 5.8125C12.8906 5.425 12.75 4.9875 12.75 4.5C12.75 3.875 12.9688 3.34375 13.4063 2.90625C13.8438 2.46875 14.375 2.25 15 2.25C15.625 2.25 16.1563 2.46875 16.5938 2.90625C17.0312 3.34375 17.25 3.875 17.25 4.5C17.25 4.9875 17.1094 5.425 16.8281 5.8125C16.5469 6.2 16.1875 6.46875 15.75 6.61875V7.5C15.75 8.125 15.5313 8.65625 15.0938 9.09375C14.6563 9.53125 14.125 9.75 13.5 9.75H9.75V11.3813C10.1875 11.5312 10.5469 11.8 10.8281 12.1875C11.1094 12.575 11.25 13.0125 11.25 13.5C11.25 14.125 11.0312 14.6563 10.5938 15.0938C10.1562 15.5313 9.625 15.75 9 15.75C8.375 15.75 7.84375 15.5313 7.40625 15.0938C6.96875 14.6563 6.75 14.125 6.75 13.5C6.75 13.0125 6.89063 12.575 7.17188 12.1875C7.45313 11.8 7.8125 11.5312 8.25 11.3813V9.75H3.75V11.3813C4.1875 11.5312 4.54688 11.8 4.82812 12.1875C5.10938 12.575 5.25 13.0125 5.25 13.5C5.25 14.125 5.03125 14.6563 4.59375 15.0938C4.15625 15.5313 3.625 15.75 3 15.75ZM3 14.25C3.2125 14.25 3.39062 14.1781 3.53438 14.0344C3.67813 13.8906 3.75 13.7125 3.75 13.5C3.75 13.2875 3.67813 13.1094 3.53438 12.9656C3.39062 12.8219 3.2125 12.75 3 12.75C2.7875 12.75 2.60938 12.8219 2.46563 12.9656C2.32188 13.1094 2.25 13.2875 2.25 13.5C2.25 13.7125 2.32188 13.8906 2.46563 14.0344C2.60938 14.1781 2.7875 14.25 3 14.25ZM3 5.25C3.2125 5.25 3.39062 5.17813 3.53438 5.03438C3.67813 4.89062 3.75 4.7125 3.75 4.5C3.75 4.2875 3.67813 4.10938 3.53438 3.96563C3.39062 3.82188 3.2125 3.75 3 3.75C2.7875 3.75 2.60938 3.82188 2.46563 3.96563C2.32188 4.10938 2.25 4.2875 2.25 4.5C2.25 4.7125 2.32188 4.89062 2.46563 5.03438C2.60938 5.17813 2.7875 5.25 3 5.25ZM9 14.25C9.2125 14.25 9.39062 14.1781 9.53438 14.0344C9.67813 13.8906 9.75 13.7125 9.75 13.5C9.75 13.2875 9.67813 13.1094 9.53438 12.9656C9.39062 12.8219 9.2125 12.75 9 12.75C8.7875 12.75 8.60938 12.8219 8.46563 12.9656C8.32188 13.1094 8.25 13.2875 8.25 13.5C8.25 13.7125 8.32188 13.8906 8.46563 14.0344C8.60938 14.1781 8.7875 14.25 9 14.25ZM9 5.25C9.2125 5.25 9.39062 5.17813 9.53438 5.03438C9.67813 4.89062 9.75 4.7125 9.75 4.5C9.75 4.2875 9.67813 4.10938 9.53438 3.96563C9.39062 3.82188 9.2125 3.75 9 3.75C8.7875 3.75 8.60938 3.82188 8.46563 3.96563C8.32188 4.10938 8.25 4.2875 8.25 4.5C8.25 4.7125 8.32188 4.89062 8.46563 5.03438C8.60938 5.17813 8.7875 5.25 9 5.25ZM15 5.25C15.2125 5.25 15.3906 5.17813 15.5344 5.03438C15.6781 4.89062 15.75 4.7125 15.75 4.5C15.75 4.2875 15.6781 4.10938 15.5344 3.96563C15.3906 3.82188 15.2125 3.75 15 3.75C14.7875 3.75 14.6094 3.82188 14.4656 3.96563C14.3219 4.10938 14.25 4.2875 14.25 4.5C14.25 4.7125 14.3219 4.89062 14.4656 5.03438C14.6094 5.17813 14.7875 5.25 15 5.25Z" fill="#9C9EAF"/>
</g>
</svg>
