<svg width="20" height="20" viewBox="0 0 20 20" fill="none" xmlns="http://www.w3.org/2000/svg">
    <g clip-path="url(#clip0_300_3020)">
        <path
            d="M2.5 10C2.5 10.9849 2.69399 11.9602 3.0709 12.8701C3.44781 13.7801 4.00026 14.6069 4.6967 15.3033C5.39314 15.9997 6.21993 16.5522 7.12987 16.9291C8.03982 17.306 9.01509 17.5 10 17.5C10.9849 17.5 11.9602 17.306 12.8701 16.9291C13.7801 16.5522 14.6069 15.9997 15.3033 15.3033C15.9997 14.6069 16.5522 13.7801 16.9291 12.8701C17.306 11.9602 17.5 10.9849 17.5 10C17.5 9.01509 17.306 8.03982 16.9291 7.12987C16.5522 6.21993 15.9997 5.39314 15.3033 4.6967C14.6069 4.00026 13.7801 3.44781 12.8701 3.0709C11.9602 2.69399 10.9849 2.5 10 2.5C9.01509 2.5 8.03982 2.69399 7.12987 3.0709C6.21993 3.44781 5.39314 4.00026 4.6967 4.6967C4.00026 5.39314 3.44781 6.21993 3.0709 7.12987C2.69399 8.03982 2.5 9.01509 2.5 10Z"
            stroke="var(--svg-color,#409F9F)" stroke-width="1.5" stroke-linecap="round" stroke-linejoin="round" />
        <path d="M10 14.1667V14.1751" stroke="var(--svg-color,#409F9F)" stroke-width="1.5" stroke-linecap="round"
            stroke-linejoin="round" />
        <path
            d="M10.0002 11.25C9.98482 10.9795 10.0578 10.7113 10.2081 10.4858C10.3584 10.2604 10.5779 10.0899 10.8335 9.99998C11.1467 9.88019 11.4279 9.68934 11.6548 9.44244C11.8817 9.19554 12.0483 8.89933 12.1413 8.57713C12.2343 8.25494 12.2512 7.91555 12.1908 7.5857C12.1303 7.25584 11.9941 6.94452 11.7929 6.67624C11.5917 6.40796 11.331 6.19005 11.0312 6.03966C10.7315 5.88927 10.4009 5.81051 10.0656 5.80958C9.73025 5.80865 9.39927 5.88557 9.0987 6.0343C8.79813 6.18302 8.53619 6.39948 8.3335 6.66664"
            stroke="var(--svg-color,#409F9F)" stroke-width="1.5" stroke-linecap="round" stroke-linejoin="round" />
    </g>
    <defs>
        <clipPath id="clip0_300_3020">
            <rect width="20" height="20" fill="none" />
        </clipPath>
    </defs>
</svg>