<svg width="20" height="20" viewBox="0 0 20 20" fill="none" xmlns="http://www.w3.org/2000/svg">
<g clip-path="url(#clip0_13_5822)">
<path d="M9.99976 1.66553C10.7806 1.66553 11.5414 1.75553 12.2714 1.92469C12.3795 1.94798 12.4818 1.99253 12.5725 2.05576C12.6632 2.11898 12.7404 2.19961 12.7996 2.29295C12.8588 2.3863 12.8988 2.49049 12.9174 2.59946C12.9359 2.70843 12.9326 2.82001 12.9076 2.92768C12.8827 3.03536 12.8365 3.13699 12.7719 3.22666C12.7072 3.31633 12.6254 3.39224 12.5311 3.44997C12.4368 3.5077 12.332 3.54611 12.2228 3.56294C12.1135 3.57977 12.002 3.5747 11.8948 3.54803C11.4838 3.45255 11.0662 3.38848 10.6456 3.35636L10.5839 3.35469C11.8793 3.45383 13.1263 3.8896 14.2014 4.61886L14.7064 4.11386C14.7838 4.03644 14.8757 3.97501 14.9768 3.93308C15.0779 3.89116 15.1863 3.86956 15.2957 3.86953C15.4052 3.86949 15.5136 3.89101 15.6147 3.93286C15.7158 3.97471 15.8077 4.03607 15.8852 4.11344C15.9626 4.19081 16.024 4.28268 16.066 4.38379C16.1079 4.4849 16.1295 4.59328 16.1295 4.70273C16.1295 4.81219 16.108 4.92058 16.0662 5.02172C16.0243 5.12286 15.963 5.21477 15.8856 5.29219L15.4731 5.70469C16.6378 6.94781 17.3446 8.55041 17.4773 10.2487C17.6099 11.9471 17.1604 13.64 16.2027 15.0488C15.2451 16.4576 13.8364 17.4985 12.2084 18.0001C10.5804 18.5017 8.83016 18.4341 7.24569 17.8085C5.66122 17.1829 4.33692 16.0366 3.49074 14.5581C2.64455 13.0796 2.32689 11.3571 2.59003 9.67407C2.85317 7.99101 3.68144 6.44768 4.93852 5.29804C6.19561 4.14841 7.80661 3.46097 9.50642 3.34886L9.39309 3.35386C8.95922 3.38468 8.52844 3.44961 8.10476 3.54803C7.89092 3.59411 7.66755 3.55426 7.48283 3.4371C7.29812 3.31993 7.16688 3.13483 7.11744 2.92175C7.068 2.70867 7.10432 2.4847 7.21856 2.29816C7.33281 2.11162 7.51581 1.97749 7.72809 1.92469C8.45809 1.75553 9.21976 1.66553 9.99976 1.66553ZM9.99976 4.99886C9.23371 4.99886 8.47517 5.14974 7.76744 5.4429C7.0597 5.73605 6.41664 6.16573 5.87497 6.70741C5.33329 7.24908 4.90361 7.89214 4.61046 8.59987C4.31731 9.30761 4.16642 10.0661 4.16642 10.8322C4.16642 11.5982 4.31731 12.3568 4.61046 13.0645C4.90361 13.7722 5.33329 14.4153 5.87497 14.957C6.41664 15.4987 7.0597 15.9283 7.76744 16.2215C8.47517 16.5146 9.23371 16.6655 9.99976 16.6655C11.5469 16.6655 13.0306 16.0509 14.1245 14.957C15.2185 13.863 15.8331 12.3793 15.8331 10.8322C15.8331 9.2851 15.2185 7.80137 14.1245 6.70741C13.0306 5.61344 11.5469 4.99886 9.99976 4.99886ZM9.99976 6.66553C10.2039 6.66555 10.4009 6.74049 10.5534 6.87612C10.7059 7.01176 10.8034 7.19865 10.8273 7.40136L10.8331 7.49886V10.8322C10.8329 11.0446 10.7515 11.2489 10.6057 11.4033C10.4599 11.5578 10.2606 11.6507 10.0486 11.6632C9.83656 11.6756 9.62777 11.6066 9.4649 11.4703C9.30202 11.334 9.19734 11.1406 9.17226 10.9297L9.16642 10.8322V7.49886C9.16642 7.27785 9.25422 7.06589 9.4105 6.90961C9.56678 6.75332 9.77874 6.66553 9.99976 6.66553Z" fill="#7E8B98"/>
</g>
<defs>
<clipPath id="clip0_13_5822">
<rect width="20" height="20" fill="white"/>
</clipPath>
</defs>
</svg>
