<svg width="20" height="20" viewBox="0 0 20 20" fill="none" xmlns="http://www.w3.org/2000/svg">
    <g id="Frame">
        <g id="Group">
            <path id="Vector"
                d="M10.0576 18.3606C6.26916 18.3606 3.01916 15.6606 2.19223 11.8806C2.07685 11.9006 1.96146 11.9206 1.84608 11.9206C0.865309 11.9206 0.0576172 11.1006 0.0576172 10.0606C0.0576172 9.02062 0.846079 8.20062 1.82685 8.20062C1.94223 8.20062 2.03839 8.22062 2.15377 8.24062C2.94223 4.40062 6.21146 1.64062 10.0384 1.64062C13.8653 1.64062 17.1345 4.38062 17.923 8.22062C17.9999 8.22062 18.0768 8.20062 18.1345 8.20062C19.1153 8.20062 19.923 9.02062 19.923 10.0606C19.923 11.1006 19.1153 11.9206 18.1345 11.9206C18.0576 11.9206 17.9615 11.9206 17.8845 11.9006C17.0768 15.6606 13.8268 18.3606 10.0576 18.3606ZM2.44223 11.0806C2.49992 11.0806 2.55762 11.1006 2.59608 11.1206C2.69223 11.1806 2.74992 11.2606 2.76916 11.3606C3.40377 15.0006 6.46146 17.6606 10.0576 17.6606C13.6153 17.6606 16.6922 15.0406 17.3268 11.4206C17.3461 11.3206 17.4038 11.2406 17.4999 11.1806C17.5768 11.1206 17.6922 11.1206 17.7884 11.1606C17.9038 11.2006 18.0384 11.2406 18.173 11.2406C18.7884 11.2406 19.2884 10.7206 19.2884 10.0806C19.2884 9.44063 18.7884 8.92062 18.173 8.92062C18.0384 8.92062 17.923 8.94063 17.8076 8.98063C17.7115 9.02063 17.6153 9.00062 17.5192 8.96062C17.4422 8.90062 17.3653 8.82062 17.3653 8.72062C16.7499 5.04062 13.6922 2.36063 10.0768 2.36063C6.44223 2.36063 3.36531 5.04062 2.76916 8.76062C2.74992 8.86062 2.69223 8.96062 2.59608 9.02062C2.49992 9.08062 2.40377 9.08063 2.30762 9.04063C2.173 8.98063 2.01916 8.94063 1.86531 8.94063C1.24992 8.94063 0.749925 9.46063 0.749925 10.1006C0.749925 10.7406 1.24992 11.2606 1.86531 11.2606C2.01916 11.2606 2.19223 11.2206 2.32685 11.1606C2.34608 11.0806 2.38454 11.0806 2.44223 11.0806Z"
                fill="var(--svg-color,#9C9EAF)" />
            <path id="Vector_2"
                d="M7.98047 9.20062C7.78816 9.20062 7.63432 9.04062 7.63432 8.84062C7.63432 8.42062 7.30739 8.08062 6.90355 8.08062C6.4997 8.08062 6.17278 8.42062 6.17278 8.84062C6.17278 9.04062 6.01893 9.20062 5.82662 9.20062C5.63431 9.20062 5.48047 9.04062 5.48047 8.84062C5.48047 8.04062 6.11508 7.38062 6.88431 7.38062C7.65355 7.38062 8.28816 8.04062 8.28816 8.84062C8.32662 9.04062 8.17278 9.20062 7.98047 9.20062ZM14.0574 9.20062C13.8651 9.20062 13.7112 9.04062 13.7112 8.84062C13.7112 8.42062 13.3843 8.08062 12.9805 8.08062C12.5766 8.08062 12.2497 8.42062 12.2497 8.84062C12.2497 9.04062 12.0959 9.20062 11.9035 9.20062C11.7112 9.20062 11.5574 9.04062 11.5574 8.84062C11.5574 8.04062 12.192 7.38062 12.9612 7.38062C13.7305 7.38062 14.3651 8.04062 14.3651 8.84062C14.4035 9.04062 14.2497 9.20062 14.0574 9.20062ZM9.96124 14.1406C8.59585 14.1406 7.4997 12.9806 7.4997 11.5606C7.4997 11.3606 7.65355 11.2006 7.84585 11.2006H12.0959C12.2882 11.2006 12.442 11.3606 12.442 11.5606C12.4228 12.9806 11.3266 14.1406 9.96124 14.1406ZM8.19201 11.9006C8.34585 12.7606 9.07662 13.4206 9.96124 13.4206C10.8459 13.4206 11.5574 12.7606 11.7305 11.9006H8.19201ZM10.2882 6.18062C9.34585 6.18062 8.57662 5.38062 8.57662 4.38062C8.57662 3.52062 9.2497 2.82063 10.0574 2.82063C10.5574 2.82063 11.0189 3.22063 11.1343 3.74063C11.2305 4.16062 11.0574 4.74062 10.3459 5.08063C10.1728 5.16062 9.98047 5.08062 9.90355 4.90062C9.82662 4.72062 9.90355 4.52063 10.0766 4.44062C10.2497 4.36063 10.5382 4.18062 10.4805 3.88062C10.442 3.68062 10.2497 3.52062 10.0574 3.52062C9.61508 3.52062 9.2497 3.90062 9.2497 4.38062C9.2497 4.98062 9.71124 5.48062 10.2882 5.48062C11.0189 5.48062 11.6151 4.86062 11.6151 4.10062C11.6151 3.14062 10.8651 2.36063 9.96124 2.36063C9.76893 2.36063 9.61508 2.20063 9.61508 2.00063C9.61508 1.80063 9.76893 1.64062 9.96124 1.64062C11.2497 1.64062 12.2882 2.74062 12.2882 4.08062C12.2689 5.24062 11.3843 6.18062 10.2882 6.18062Z"
                fill="var(--svg-color,#9C9EAF)" />
        </g>
    </g>
</svg>