<svg width="24" height="24" viewBox="0 0 24 24" fill="none" xmlns="http://www.w3.org/2000/svg">
<path d="M10.5 12.443L8.557 10.5L7.5 11.557L10.5 14.557L16.5 8.557L15.443 7.5L10.5 12.443Z" fill="#9C9EAF"/>
<path d="M12 22.5L7.368 20.03C6.04751 19.3275 4.94323 18.2788 4.17369 16.9962C3.40415 15.7136 2.99841 14.2457 3 12.75V3C3.00053 2.60234 3.15874 2.22111 3.43993 1.93992C3.72112 1.65873 4.10234 1.50053 4.5 1.5H19.5C19.8977 1.50053 20.2789 1.65873 20.5601 1.93992C20.8413 2.22111 20.9995 2.60234 21 3V12.75C21.0016 14.2457 20.5959 15.7136 19.8263 16.9962C19.0568 18.2788 17.9525 19.3275 16.632 20.03L12 22.5ZM4.5 3V12.75C4.49865 13.9739 4.83061 15.175 5.46027 16.2245C6.08993 17.274 6.9935 18.1322 8.07401 18.707L12 20.8L15.926 18.707C17.0065 18.1322 17.9101 17.274 18.5397 16.2245C19.1694 15.175 19.5014 13.9739 19.5 12.75V3H4.5Z" fill="#9C9EAF"/>
</svg>
