<svg width="265" height="254" viewBox="0 0 265 254" fill="none" xmlns="http://www.w3.org/2000/svg">
<path d="M0.96875 54.3658V54.7226V60.6292V120.675C0.96875 143.141 12.2846 145.486 29.7975 145.486C32.5822 145.486 34.859 143.206 34.859 140.424V136.847C34.859 134.062 32.5822 131.786 29.7975 131.786C22.3337 131.786 15.0211 132.625 15.0211 121.572V60.6292V54.7226V54.3658H15.0104C14.826 51.6748 12.5643 49.5295 9.82945 49.5295H6.16036C3.42549 49.5295 1.16382 51.6748 0.97938 54.3658H0.96875Z" fill="#0EA5E9"/>
<path fill-rule="evenodd" clip-rule="evenodd" d="M101.185 72.5049V119.527C101.185 121.793 101.365 123.905 101.719 125.863C106.591 124.464 111.269 122.954 115.448 121.506C115.312 120.578 115.241 119.58 115.241 118.506V92.4412C121.784 92.4412 128.123 92.5168 134.633 92.5168H134.953V92.5062C137.387 92.3399 139.327 90.2944 139.327 87.8226V84.5042C139.327 82.1019 137.503 80.1093 135.171 79.8387V79.7903H115.241V72.5049V71.0596V65.1243V65.0849V64.4591H115.197C114.867 61.8996 112.669 59.9055 110.022 59.9055H106.336C103.586 59.9055 101.317 62.0613 101.131 64.7675L101.117 65.1243V71.0596V72.5049H101.185ZM141.079 137.052V140.406C141.079 142.875 139.148 144.921 136.702 145.135L128.526 145.208C121.248 145.208 115.13 143.636 110.539 140.432C115.963 138.186 121.753 135.466 127.922 132.181C128.797 132.261 129.695 132.3 130.61 132.305H130.655H130.7H130.809H136.273H136.605C138.994 132.305 141.079 134.671 141.079 137.052Z" fill="#0EA5E9"/>
<path fill-rule="evenodd" clip-rule="evenodd" d="M161.08 145.117L178.646 145.005C194.999 144.901 204.07 137.98 204.07 125.713C204.07 112.554 195.893 108.208 184.65 106.038C181.841 105.526 173.536 103.863 171.107 103.353C170.695 103.272 170.296 103.189 169.911 103.101C165.767 106.487 161.889 109.531 158.389 112.198C160.931 113.289 163.838 114.083 167.019 114.724C169.574 115.236 178.135 117.026 180.306 117.409C186.44 118.558 189.888 120.475 189.888 125.458C189.888 129.928 186.567 132.426 177.88 132.486L160.994 132.598C159.717 132.592 158.436 132.589 157.151 132.589L156.826 132.599C154.394 132.763 152.456 134.758 152.456 137.173V140.414C152.456 145.089 157.207 145.264 161.08 145.117ZM189.007 97.0931L189.005 97.8127V98.1816H189.017C189.202 100.945 191.468 103.148 194.21 103.148H197.887C201.809 103.148 202.942 100.206 203.201 96.895H203.177C203.124 90.3156 200.374 84.5526 195.067 80.7821C191.726 84.0038 188.414 87.0864 185.168 90.0117C188.139 91.5749 188.993 94.207 188.993 97.0931H189.007ZM162.125 97.4786C161.983 96.895 161.909 96.2585 161.909 95.5601C161.909 90.9611 165.229 88.5317 173.789 88.5317H173.89C178.577 84.8066 183.132 80.9938 187.434 77.2717C184.715 76.537 181.658 76.1409 178.262 76.1409H172.897C156.799 76.1409 147.727 83.0377 147.727 95.1761C147.727 99.5195 148.606 102.883 150.203 105.524C154.138 103.069 158.137 100.353 162.125 97.4786ZM153.461 109.275C153.564 109.36 153.67 109.442 153.772 109.525C155.044 108.568 156.371 107.555 157.751 106.489C156.317 107.446 154.888 108.377 153.461 109.275Z" fill="#0EA5E9"/>
<path d="M148.343 79.7917L148.339 79.825C148.15 81.1781 146.936 82.1774 145.563 82.0806L143.719 81.9476C141.77 81.8085 141.324 79.7917 141.289 79.7917V64.459L141.295 62.6463C141.383 60.1896 143.197 58.2122 145.711 58.2122H148.83C152.268 58.2122 153.052 60.6084 153.21 63.1195C153.254 63.7953 153.232 64.2397 153.154 64.651C153.059 65.1756 152.87 65.6427 152.608 66.4576L148.343 79.7917Z" fill="#0EA5E9"/>
<path d="M177.378 208.557V189.942H177.411V187.841H177.412V186.396V180.462L177.411 180.421V179.795H177.369C177.039 177.236 174.838 175.241 172.194 175.241H168.508C165.758 175.241 163.487 177.399 163.303 180.103L163.289 180.462V186.396V187.841H163.324V206.456H163.292V208.557H163.289V210.003V215.938L163.292 215.979V216.603H163.333C163.661 219.163 165.864 221.157 168.508 221.157H172.194C174.944 221.157 177.213 219.001 177.4 216.298L177.412 215.938V210.003V208.557H177.378Z" fill="#0EA5E9"/>
<path d="M72.6875 151.531V195.475C72.6875 212.852 83.2914 221.156 100.032 221.156L108.206 220.973H108.288H108.608V220.963C111.042 220.796 112.983 218.753 112.983 216.279V212.961C112.983 210.558 111.157 208.566 108.826 208.295L101.743 208.248C93.5157 208.137 86.7413 204.991 86.7413 194.452V168.391H97.6793C100.473 168.405 103.268 168.42 106.095 168.42L106.421 168.409C106.489 168.403 106.56 168.399 106.626 168.391L106.673 168.383C108.986 168.098 110.793 166.113 110.793 163.726V160.407C110.793 158.019 108.986 156.034 106.673 155.748C101.732 155.876 92.4257 155.993 86.7413 155.739V149.383C81.5134 150.564 76.8329 151.229 72.6875 151.531Z" fill="#0EA5E9"/>
<path fill-rule="evenodd" clip-rule="evenodd" d="M148.622 155.742H145C127.241 155.742 116.51 165.454 116.51 183.211V206.456H116.477V208.557V210.002V215.938V215.978V216.603H116.52C116.85 219.162 119.051 221.156 121.695 221.156H125.381C128.131 221.156 130.4 219.001 130.586 216.297L130.6 215.938V210.002V208.557H130.562V184.617C130.562 175.545 136.694 169.031 145.255 169.031H150.634C151.457 169.043 152.314 169.078 153.111 168.879C155.268 168.343 156.878 166.388 156.878 164.076V160.575C156.878 158.573 155.67 156.836 153.944 156.059C152.666 155.483 151.483 155.687 150.113 155.715L148.622 155.742Z" fill="#0EA5E9"/>
<path d="M216.21 224.606H220.425C236.908 224.606 247.003 214.387 247.003 196.115V184.362C247.003 166.217 236.908 155.74 218.253 155.74H214.804C196.023 155.74 186.186 166.092 186.186 184.362C186.186 205.53 186.09 226.558 186.086 247.631C186.086 247.902 186.086 248.174 186.086 248.448L186.087 248.487C186.087 251.29 188.408 253.667 191.305 253.667H194.992C197.883 253.667 200.265 251.22 200.23 248.454L199.856 217.965C203.434 222.052 208.671 224.606 216.21 224.606ZM218.127 211.448H214.931C205.349 211.448 200.238 205.954 200.238 196.243V184.362C200.238 174.522 205.349 169.031 214.931 169.031H218.127C227.581 169.031 232.821 174.522 232.821 184.362V196.243C232.821 205.954 227.581 211.448 218.127 211.448Z" fill="#0EA5E9"/>
<path d="M50.6016 120.318L50.9599 116.379C85.3385 105.096 94.113 91.8481 94.113 83.072C94.113 75.9106 86.9501 74.4773 81.2203 74.4773C57.943 74.2974 31.979 98.2929 32.6941 121.749C33.1945 138.174 47.7337 146.985 60.2137 147.582C61.7119 147.654 63.2403 147.631 64.7566 147.685C79.2761 148.216 103.485 144.219 138.24 123.137C160.312 109.362 177.172 92.7355 196.319 75.6036C196.822 75.1531 196.865 74.373 196.414 73.8666C195.964 73.3631 195.181 73.3223 194.677 73.7729C177.598 89.0663 154.505 108.424 133.145 116.884C127.468 120.126 47.7594 151.596 50.6016 120.318ZM52.0333 107.603C56.8681 95.7879 67.2526 87.1917 76.2056 84.8635C77.4619 84.5067 78.3554 85.5786 78.3554 86.8319C78.5353 89.8767 67.7924 102.233 52.0333 107.603Z" fill="#0EA5E9"/>
<path d="M227.852 12.7154C227.935 12.8892 228.194 13.2944 228.993 13.9671C232.185 16.6461 233.733 19.0226 233.592 21.0303C233.538 21.818 233.19 22.9292 231.854 23.7637C231.183 24.187 230.458 25.9996 230.847 27.8879C231.101 29.111 231.89 30.6424 234.212 30.9916C234.997 31.1126 235.747 31.2078 236.459 31.3001C240.993 31.8866 245.279 32.44 245.114 38.1864C245.035 40.9545 246.155 43.517 247.84 44.4135C249.007 45.0349 250.376 44.796 251.911 43.6999C255.432 41.1858 258.778 41.6575 261.011 42.7384C261.059 41.9583 261.086 41.1918 261.086 40.4299C261.086 26.1251 252.839 13.2203 239.962 7.1776C239.101 8.89351 237.103 11.5331 232.886 11.775C229.161 11.9867 228.121 12.5128 227.852 12.7154ZM249.181 47.3782C248.063 47.3782 247.182 47.0456 246.601 46.7372C244.03 45.366 242.371 41.8994 242.483 38.1108C242.574 34.8997 241.027 34.5459 236.123 33.911C235.391 33.8187 234.62 33.7174 233.818 33.595C230.882 33.1535 228.859 31.2653 228.268 28.4216C227.701 25.6807 228.662 22.654 230.46 21.5307C230.938 21.2329 230.956 20.9714 230.966 20.8459C231.022 20.031 230.089 18.3257 227.3 15.9824C226.652 15.4366 224.676 13.7797 225.3 11.9005C225.861 10.2118 228.015 9.41357 232.737 9.14447C236.932 8.90409 237.934 5.24853 237.974 5.09432C238.07 4.72393 238.324 4.40797 238.669 4.24016C239.012 4.07084 239.414 4.05419 239.767 4.20537C254.318 10.3993 263.72 24.6179 263.72 40.4299C263.72 41.9886 263.621 43.5548 263.42 45.2193C263.36 45.7167 263.023 46.1355 262.553 46.3018C262.082 46.4696 261.555 46.3547 261.196 46.007C261.062 45.8769 257.719 42.7883 253.442 45.8422C251.813 47.0047 250.366 47.3782 249.181 47.3782Z" fill="#0EA5E9" stroke="#0EA5E9" stroke-width="1.72346" stroke-miterlimit="10"/>
<path d="M225.051 41.4615C226.209 41.4615 227.207 41.779 228.029 42.4094C229.387 43.4495 230.149 45.2214 230.358 47.8262C230.385 48.1543 230.472 48.3311 230.903 48.4521C232.719 48.9661 236.518 47.3515 237.536 45.9531C238.019 45.2879 237.699 44.4186 237.465 43.9575C236.769 42.5923 234.944 41.1228 232.583 41.1228C230.141 41.1228 227.875 39.8832 226.026 37.5383C225.765 37.2073 225.361 37.0334 224.918 37.0545C224.466 37.0802 224.073 37.307 223.842 37.6789C222.898 39.2013 222.953 40.8885 223.349 41.4706C223.434 41.593 223.479 41.6338 223.687 41.596C224.162 41.5068 224.617 41.4615 225.051 41.4615ZM231.679 51.1764C231.15 51.1764 230.648 51.1174 230.19 50.9874C228.748 50.5822 227.851 49.5058 227.733 48.0363C227.591 46.2675 227.14 45.0445 226.427 44.5002C225.911 44.1026 225.169 43.9983 224.168 44.1843C222.954 44.4095 221.863 43.9635 221.176 42.9567C220.067 41.336 220.253 38.4681 221.606 36.2911C222.286 35.195 223.47 34.4981 224.774 34.4255C226.078 34.3529 227.307 34.9093 228.096 35.9086C229.021 37.0848 230.554 38.4862 232.583 38.4862C236.072 38.4862 238.728 40.636 239.812 42.7647C240.676 44.4594 240.623 46.1874 239.666 47.5012C238.295 49.3879 234.585 51.1764 231.679 51.1764Z" fill="#0EA5E9" stroke="#0EA5E9" stroke-width="1.72346" stroke-miterlimit="10"/>
<path d="M257.285 53.0624C255.711 53.0624 254.355 53.4404 253.378 54.1766C252.495 54.8388 251.992 55.764 251.957 56.7785C251.871 59.3667 251.422 59.9004 249.685 60.8846C248.948 61.3033 247.834 61.9368 246.164 63.2883C243.42 65.5092 244.017 69.0861 244.634 71.0515C251.136 66.7368 256.101 60.4748 258.804 53.1713C258.279 53.0987 257.77 53.0624 257.285 53.0624ZM243.982 74.3382C243.857 74.3382 243.73 74.32 243.606 74.2822C243.25 74.1779 242.957 73.9269 242.795 73.5928C242.64 73.2723 239.048 65.6588 244.507 61.2413C246.344 59.7537 247.573 59.0568 248.386 58.5957C249.278 58.0877 249.278 58.0877 249.325 56.6908C249.385 54.8645 250.262 53.2257 251.792 52.0707C254.01 50.4001 257.233 49.9814 260.864 50.896C261.218 50.9837 261.518 51.2165 261.694 51.5355C261.873 51.853 261.908 52.2325 261.794 52.5787C258.873 61.5845 252.788 69.2434 244.661 74.1492C244.454 74.2732 244.219 74.3382 243.982 74.3382Z" fill="#0EA5E9" stroke="#0EA5E9" stroke-width="1.72346" stroke-miterlimit="10"/>
<path d="M192.268 58.2734C196.168 65.2761 202.243 70.8169 209.579 74.0461C210.18 73.1451 210.358 72.2531 210.122 71.337C209.489 68.8652 206.002 66.4946 202.887 65.4288C198.818 64.038 198.489 62.053 198.495 59.9697C198.501 59.043 198.477 58.5335 197.987 58.0119C197.951 57.9696 197.059 57.1003 192.268 58.2734ZM209.986 76.9655C209.818 76.9655 209.651 76.9337 209.489 76.8687C200.655 73.2585 193.433 66.5627 189.155 58.0164C188.98 57.6672 188.969 57.2575 189.128 56.8992C189.283 56.5409 189.592 56.2703 189.968 56.1629C196.951 54.1507 198.985 55.2256 199.91 56.2098C201.139 57.5221 201.135 58.9417 201.13 59.9788C201.125 61.3092 201.122 62.0424 203.739 62.9374C207.528 64.2345 211.761 67.1311 212.676 70.6824C213.037 72.0959 213.034 74.2578 210.96 76.5361C210.706 76.8158 210.351 76.9655 209.986 76.9655Z" fill="#0EA5E9" stroke="#0EA5E9" stroke-width="1.72346" stroke-miterlimit="10"/>
<path d="M224.362 79.7854C203.606 79.7854 186.355 63.5742 185.08 42.8776C185.038 42.1519 185.59 41.5275 186.316 41.4837C187.035 41.4444 187.666 41.9916 187.711 42.7158C188.896 62.0262 204.995 77.1518 224.362 77.1518C244.612 77.1518 261.085 60.6776 261.085 40.4299C261.085 20.1807 244.612 3.70804 224.362 3.70804C219.627 3.70804 215.022 4.59547 210.668 6.34615C209.989 6.61676 209.225 6.29173 208.953 5.61595C208.683 4.94168 209.009 4.17518 209.684 3.90306C214.352 2.02539 219.29 1.07446 224.362 1.07446C246.064 1.07446 263.719 18.7294 263.719 40.4299C263.719 62.1305 246.064 79.7854 224.362 79.7854Z" fill="#0EA5E9" stroke="#0EA5E9" stroke-width="1.72346" stroke-miterlimit="10"/>
<path d="M203.504 10.1153C195.537 10.1153 189.055 16.5979 189.055 24.5636C189.055 25.2258 189.116 25.9424 189.24 26.7588C190.706 40.545 200.73 48.8358 203.504 50.8843C206.278 48.8373 216.301 40.5526 217.762 26.8162C217.896 25.9303 217.955 25.2319 217.955 24.5636C217.955 16.5979 211.473 10.1153 203.504 10.1153ZM203.504 53.8111C203.259 53.8111 203.013 53.7416 202.798 53.604C202.213 53.2321 188.454 44.2731 186.628 27.0974C186.493 26.2085 186.422 25.3604 186.422 24.5636C186.422 15.1466 194.084 7.48169 203.504 7.48169C212.924 7.48169 220.587 15.1466 220.587 24.5636C220.587 25.3664 220.519 26.1919 220.373 27.1549C218.555 44.2731 204.798 53.2321 204.213 53.604C203.997 53.7416 203.75 53.8111 203.504 53.8111Z" fill="#0EA5E9" stroke="#0EA5E9" stroke-width="1.72346" stroke-miterlimit="10"/>
<path d="M203.506 19.209C200.553 19.209 198.149 21.6113 198.149 24.5638C198.149 27.5179 200.553 29.9202 203.506 29.9202C206.461 29.9202 208.862 27.5179 208.862 24.5638C208.862 21.6113 206.461 19.209 203.506 19.209ZM203.506 32.5553C199.1 32.5553 195.516 28.9723 195.516 24.5638C195.516 20.1599 199.1 16.5754 203.506 16.5754C207.911 16.5754 211.495 20.1599 211.495 24.5638C211.495 28.9723 207.911 32.5553 203.506 32.5553Z" fill="#0EA5E9" stroke="#0EA5E9" stroke-width="1.72346" stroke-miterlimit="10"/>
<path fill-rule="evenodd" clip-rule="evenodd" d="M166.758 155.657H173.577C175.825 155.657 177.663 157.496 177.663 159.744V164.601C177.663 166.849 175.825 168.688 173.577 168.688H166.758C164.51 168.688 162.672 166.849 162.672 164.601V159.744C162.672 157.496 164.51 155.657 166.758 155.657Z" fill="#0EA5E9"/>
</svg>

