<svg width="20" height="20" viewBox="0 0 20 20" fill="none" xmlns="http://www.w3.org/2000/svg">
<g clip-path="url(#clip0_300_3011)">
<path d="M7.5 6.66659V4.99992C7.5 4.55789 7.6756 4.13397 7.98816 3.82141C8.30072 3.50885 8.72464 3.33325 9.16667 3.33325H15C15.442 3.33325 15.866 3.50885 16.1785 3.82141C16.4911 4.13397 16.6667 4.55789 16.6667 4.99992V14.9999C16.6667 15.4419 16.4911 15.8659 16.1785 16.1784C15.866 16.491 15.442 16.6666 15 16.6666H9.16667C8.72464 16.6666 8.30072 16.491 7.98816 16.1784C7.6756 15.8659 7.5 15.4419 7.5 14.9999V13.3333" stroke="#001AFF" stroke-width="1.5" stroke-linecap="round" stroke-linejoin="round"/>
<path d="M2.5 10H13.3333L10.8333 7.5" stroke="#001AFF" stroke-width="1.5" stroke-linecap="round" stroke-linejoin="round"/>
<path d="M10.8335 12.5L13.3335 10" stroke="#001AFF" stroke-width="1.5" stroke-linecap="round" stroke-linejoin="round"/>
</g>
<defs>
<clipPath id="clip0_300_3011">
<rect width="20" height="20" fill="white"/>
</clipPath>
</defs>
</svg>
