<svg xmlns="http://www.w3.org/2000/svg" width="20" height="20" fill="none" xmlns:v="https://vecta.io/nano"><g clip-path="url(#A)" stroke="#768c9e" stroke-width="1.5" stroke-linejoin="round"><path d="M5 6.667c0-.442.176-.866.488-1.179S6.225 5 6.667 5h6.667c.442 0 .866.176 1.178.488S15 6.225 15 6.667V15c0 .442-.176.866-.488 1.178s-.736.488-1.178.488H6.667c-.442 0-.866-.176-1.179-.488S5 15.442 5 15V6.667z"/><g stroke-linecap="round"><path d="M7.5 5v-.833a1.67 1.67 0 0 1 .488-1.179c.312-.313.737-.488 1.179-.488h1.667c.442 0 .866.176 1.178.488s.488.736.488 1.179V5M5 8.333h10m-10 5h10m-7.5 3.334v.833m5-.833v.833"/></g></g><defs><clipPath id="A"><path fill="#fff" d="M0 0h20v20H0z"/></clipPath></defs></svg>