<svg xmlns="http://www.w3.org/2000/svg" fill="none" viewBox="0 0 24 24">
    <path fill="var(--svg-color,#9C9EAF)"
        d="M11 21v-2h8v-7.1a7 7 0 0 0-2-5c-1.4-1.3-3-2-5-2s-3.6.7-5 2a7 7 0 0 0-2 5V18H4a2 2 0 0 1-1.4-.6A2 2 0 0 1 2 16v-2a2 2 0 0 1 1-1.7v-1.4c.2-1 .5-2.1 1-3.1a10 10 0 0 1 2-2.5A8.8 8.8 0 0 1 12 3a8.7 8.7 0 0 1 6 2.3 9 9 0 0 1 3 5.6v1.3c.3.2.6.4.7.7.2.3.3.6.3 1V16c0 .4 0 .7-.3 1-.1.3-.4.5-.7.7V19c0 .6-.2 1-.6 1.4a2 2 0 0 1-1.4.6h-8Zm-2-7a1 1 0 0 1-.7-.3A1 1 0 0 1 8 13c0-.3.1-.5.3-.7.2-.2.4-.3.7-.3.3 0 .5.1.7.3.2.2.3.4.3.7 0 .3-.1.5-.3.7a1 1 0 0 1-.7.3Zm6 0a1 1 0 0 1-.7-.3 1 1 0 0 1-.3-.7c0-.3.1-.5.3-.7.2-.2.4-.3.7-.3.3 0 .5.1.7.3.2.2.3.4.3.7 0 .3-.1.5-.3.7a1 1 0 0 1-.7.3Zm-9-1.6c0-1.7.4-3.2 1.6-4.5A5.8 5.8 0 0 1 12.1 6a6 6 0 0 1 5.9 5 8 8 0 0 1-7.1-4.5 8 8 0 0 1-4.9 6Z" />
</svg>