<svg width="32" height="52" viewBox="0 0 32 52" fill="none" xmlns="http://www.w3.org/2000/svg">
<g clip-path="url(#clip0_848_1104)">
<path d="M16 52C18.2091 52 20 51.1046 20 50C20 48.8954 18.2091 48 16 48C13.7909 48 12 48.8954 12 50C12 51.1046 13.7909 52 16 52Z" fill="url(#paint0_radial_848_1104)"/>
<path d="M24 1.5H8C4.41015 1.5 1.5 4.41015 1.5 8V24C1.5 27.5899 4.41015 30.5 8 30.5H24C27.5899 30.5 30.5 27.5899 30.5 24V8C30.5 4.41015 27.5899 1.5 24 1.5Z" fill="#FF4930"/>
<path d="M24 1.5H8C4.41015 1.5 1.5 4.41015 1.5 8V24C1.5 27.5899 4.41015 30.5 8 30.5H24C27.5899 30.5 30.5 27.5899 30.5 24V8C30.5 4.41015 27.5899 1.5 24 1.5Z" stroke="white" stroke-width="3"/>
<path d="M23.3103 14.4627L22.1703 11.0427C22.005 10.5447 21.6869 10.1116 21.2613 9.80475C20.8356 9.49793 20.3242 9.33303 19.7995 9.3335H12.2012C11.6765 9.33303 11.165 9.49793 10.7394 9.80475C10.3138 10.1116 9.9957 10.5447 9.83033 11.0427L8.69033 14.4627C8.38718 14.5895 8.12829 14.8031 7.94621 15.0767C7.76414 15.3503 7.66699 15.6715 7.66699 16.0002V20.1668C7.66699 20.7818 8.00366 21.3135 8.50033 21.6027V23.5002C8.50033 23.7212 8.58812 23.9331 8.7444 24.0894C8.90068 24.2457 9.11265 24.3335 9.33366 24.3335H10.167C10.388 24.3335 10.6 24.2457 10.7562 24.0894C10.9125 23.9331 11.0003 23.7212 11.0003 23.5002V21.8335H21.0003V23.5002C21.0003 23.7212 21.0881 23.9331 21.2444 24.0894C21.4007 24.2457 21.6126 24.3335 21.8337 24.3335H22.667C22.888 24.3335 23.1 24.2457 23.2562 24.0894C23.4125 23.9331 23.5003 23.7212 23.5003 23.5002V21.6027C23.7532 21.4577 23.9633 21.2486 24.1096 20.9965C24.2559 20.7445 24.3332 20.4583 24.3337 20.1668V16.0002C24.3337 15.6715 24.2365 15.3503 24.0544 15.0767C23.8724 14.8031 23.6135 14.5895 23.3103 14.4627ZM12.2012 11.0002H19.7987C20.1578 11.0002 20.4762 11.2285 20.5895 11.5702L21.5112 14.3335H10.4895L11.4103 11.5702C11.4656 11.4042 11.5718 11.2598 11.7137 11.1575C11.8556 11.0552 12.0262 11.0001 12.2012 11.0002ZM10.5837 19.3335C10.4195 19.3334 10.2569 19.301 10.1052 19.2382C9.95349 19.1753 9.81568 19.0831 9.6996 18.967C9.58353 18.8508 9.49147 18.7129 9.42868 18.5612C9.36589 18.4095 9.3336 18.2469 9.33366 18.0827C9.33371 17.9185 9.36611 17.7559 9.429 17.6042C9.49189 17.4525 9.58404 17.3147 9.70019 17.1986C9.81634 17.0825 9.95422 16.9905 10.1059 16.9277C10.2577 16.8649 10.4203 16.8326 10.5845 16.8327C10.9161 16.8328 11.2341 16.9646 11.4685 17.1992C11.703 17.4338 11.8346 17.7519 11.8345 18.0835C11.8344 18.4151 11.7025 18.7331 11.468 18.9676C11.2334 19.202 10.9153 19.3336 10.5837 19.3335ZM21.417 19.3335C21.2528 19.3334 21.0902 19.301 20.9385 19.2382C20.7868 19.1753 20.649 19.0831 20.5329 18.967C20.4169 18.8508 20.3248 18.7129 20.262 18.5612C20.1992 18.4095 20.1669 18.2469 20.167 18.0827C20.167 17.9185 20.1994 17.7559 20.2623 17.6042C20.3252 17.4525 20.4174 17.3147 20.5335 17.1986C20.6497 17.0825 20.7876 16.9905 20.9393 16.9277C21.091 16.8649 21.2536 16.8326 21.4178 16.8327C21.7495 16.8328 22.0675 16.9646 22.3019 17.1992C22.5363 17.4338 22.6679 17.7519 22.6678 18.0835C22.6677 18.4151 22.5359 18.7331 22.3013 18.9676C22.0667 19.202 21.7486 19.3336 21.417 19.3335Z" fill="white"/>
<path d="M15 32H17V49C17 49.5523 16.5523 50 16 50C15.4477 50 15 49.5523 15 49V32Z" fill="#21201F"/>
</g>
<defs>
<radialGradient id="paint0_radial_848_1104" cx="0" cy="0" r="1" gradientUnits="userSpaceOnUse" gradientTransform="translate(16 50) rotate(90) scale(2 4)">
<stop stop-opacity="0.5"/>
<stop offset="1" stop-opacity="0"/>
</radialGradient>
<clipPath id="clip0_848_1104">
<rect width="32" height="52" fill="white"/>
</clipPath>
</defs>
</svg>
