<svg width="25" height="24" viewBox="0 0 25 24" fill="none" xmlns="http://www.w3.org/2000/svg">
<g id="vuesax/bulk/category-2">
<g id="category-2">
<path id="Vector" opacity="0.4" d="M19.2949 2H17.3949C15.2149 2 14.0649 3.15 14.0649 5.33V7.23C14.0649 9.41 15.2149 10.56 17.3949 10.56H19.2949C21.4749 10.56 22.6249 9.41 22.6249 7.23V5.33C22.6249 3.15 21.4749 2 19.2949 2Z" fill="white"/>
<path id="Vector_2" opacity="0.4" d="M7.865 13.4299H5.965C3.775 13.4299 2.625 14.5799 2.625 16.7599V18.6599C2.625 20.8499 3.775 21.9999 5.955 21.9999H7.855C10.035 21.9999 11.185 20.8499 11.185 18.6699V16.7699C11.195 14.5799 10.045 13.4299 7.865 13.4299Z" fill="white"/>
<path id="Vector_3" d="M6.915 10.58C9.2843 10.58 11.205 8.6593 11.205 6.29C11.205 3.9207 9.2843 2 6.915 2C4.5457 2 2.625 3.9207 2.625 6.29C2.625 8.6593 4.5457 10.58 6.915 10.58Z" fill="white"/>
<path id="Vector_4" d="M18.3349 21.9999C20.7042 21.9999 22.6249 20.0792 22.6249 17.7099C22.6249 15.3406 20.7042 13.4199 18.3349 13.4199C15.9656 13.4199 14.0449 15.3406 14.0449 17.7099C14.0449 20.0792 15.9656 21.9999 18.3349 21.9999Z" fill="white"/>
</g>
</g>
</svg>
