<svg width="21" height="20" viewBox="0 0 21 20" fill="none" xmlns="http://www.w3.org/2000/svg">
<path d="M7.16667 10.1667H13" stroke="#898989" stroke-width="1.5" stroke-miterlimit="10" stroke-linecap="round" stroke-linejoin="round"/>
<path d="M7.16667 13.5H10.8167" stroke="#898989" stroke-width="1.5" stroke-miterlimit="10" stroke-linecap="round" stroke-linejoin="round"/>
<path d="M8.83333 5H12.1667C13.8333 5 13.8333 4.16666 13.8333 3.33333C13.8333 1.66666 13 1.66666 12.1667 1.66666H8.83333C8 1.66666 7.16667 1.66666 7.16667 3.33333C7.16667 5 8 5 8.83333 5Z" stroke="#898989" stroke-width="1.5" stroke-miterlimit="10" stroke-linecap="round" stroke-linejoin="round"/>
<path d="M13.8333 3.35C16.6083 3.5 18 4.525 18 8.33333V13.3333C18 16.6667 17.1667 18.3333 13 18.3333H8C3.83333 18.3333 3 16.6667 3 13.3333V8.33333C3 4.53333 4.39167 3.5 7.16667 3.35" stroke="#898989" stroke-width="1.5" stroke-miterlimit="10" stroke-linecap="round" stroke-linejoin="round"/>
</svg>
