<svg width="21" height="20" viewBox="0 0 21 20" fill="none" xmlns="http://www.w3.org/2000/svg">
<path d="M12.4583 1.66666H8.54167C7.675 1.66666 6.96667 2.36666 6.96667 3.23333V4.01666C6.96667 4.88333 7.66667 5.58333 8.53333 5.58333H12.4583C13.325 5.58333 14.025 4.88333 14.025 4.01666V3.23333C14.0333 2.36666 13.325 1.66666 12.4583 1.66666Z" fill="#1A9EDB"/>
<path d="M14.8667 4.01667C14.8667 5.34167 13.7833 6.425 12.4583 6.425H8.54167C7.21666 6.425 6.13333 5.34167 6.13333 4.01667C6.13333 3.55 5.63333 3.25833 5.21666 3.475C4.04166 4.1 3.24166 5.34166 3.24166 6.76666V14.6083C3.24166 16.6583 4.91667 18.3333 6.96667 18.3333H14.0333C16.0833 18.3333 17.7583 16.6583 17.7583 14.6083V6.76666C17.7583 5.34166 16.9583 4.1 15.7833 3.475C15.3667 3.25833 14.8667 3.55 14.8667 4.01667ZM10.8167 14.125H7.16667C6.825 14.125 6.54167 13.8417 6.54167 13.5C6.54167 13.1583 6.825 12.875 7.16667 12.875H10.8167C11.1583 12.875 11.4417 13.1583 11.4417 13.5C11.4417 13.8417 11.1583 14.125 10.8167 14.125ZM13 10.7917H7.16667C6.825 10.7917 6.54167 10.5083 6.54167 10.1667C6.54167 9.825 6.825 9.54166 7.16667 9.54166H13C13.3417 9.54166 13.625 9.825 13.625 10.1667C13.625 10.5083 13.3417 10.7917 13 10.7917Z" fill="#1A9EDB"/>
</svg>
