<svg width="20" height="20" viewBox="0 0 20 20" fill="none" xmlns="http://www.w3.org/2000/svg">
<path d="M10.0002 1.6665C8.89509 1.6665 7.83529 2.10549 7.05388 2.88689C6.27248 3.66829 5.8335 4.7281 5.8335 5.83317C5.8335 6.93824 6.27248 7.99805 7.05388 8.77945C7.83529 9.56085 8.89509 9.99984 10.0002 9.99984C11.1052 9.99984 12.165 9.56085 12.9464 8.77945C13.7278 7.99805 14.1668 6.93824 14.1668 5.83317C14.1668 4.7281 13.7278 3.66829 12.9464 2.88689C12.165 2.10549 11.1052 1.6665 10.0002 1.6665Z" stroke="#9C9EAF" stroke-width="1.5" stroke-linecap="round" stroke-linejoin="round"/>
<path d="M14.1666 11.6665H14.4599C15.0691 11.6667 15.6573 11.8893 16.114 12.2926C16.5706 12.6958 16.8643 13.252 16.9399 13.8565L17.2657 16.4598C17.295 16.6944 17.2741 16.9324 17.2044 17.1583C17.1346 17.3841 17.0177 17.5925 16.8612 17.7697C16.7048 17.9468 16.5125 18.0887 16.297 18.1859C16.0816 18.283 15.8479 18.3332 15.6116 18.3332H4.38822C4.15187 18.3332 3.91822 18.283 3.70276 18.1859C3.4873 18.0887 3.29497 17.9468 3.13853 17.7697C2.9821 17.5925 2.86513 17.3841 2.79539 17.1583C2.72566 16.9324 2.70475 16.6944 2.73405 16.4598L3.05905 13.8565C3.13463 13.2517 3.42857 12.6953 3.88558 12.292C4.34259 11.8887 4.9312 11.6663 5.54072 11.6665H5.83322" stroke="#9C9EAF" stroke-width="1.5" stroke-linecap="round" stroke-linejoin="round"/>
</svg>
