<svg width="25" height="24" viewBox="0 0 25 24" fill="none" xmlns="http://www.w3.org/2000/svg">
    <g clip-path="url(#clip0_1093_10644)">
        <path
            d="M15 6.5L18 3.6C18.3846 3.21544 18.9061 2.99939 19.45 2.99939C19.9939 2.99939 20.5154 3.21544 20.9 3.6C21.2846 3.98456 21.5006 4.50614 21.5006 5.05C21.5006 5.59385 21.2846 6.11544 20.9 6.5L18 9.5L20.5 17L18 19.55L14.5 13L11.5 16V19L9.5 21L8 16.5L3.5 15L5.5 13H8.5L11.5 10L5 6.5L7.5 4L15 6.5Z"
            stroke="var(--svg-color,#0EA5E9)" stroke-width="1.5" stroke-linecap="round" stroke-linejoin="round" />
    </g>
    <defs>
        <clipPath id="clip0_1093_10644">
            <rect width="24" height="24" transform="translate(0.5)" />
        </clipPath>
    </defs>
</svg>