<svg width="20" height="20" viewBox="0 0 20 20" fill="none" xmlns="http://www.w3.org/2000/svg">
    <g id="Container" clip-path="url(#clip0_1532_10756)">
        <path id="Vector"
            d="M6.86917 6.11667L1.5525 6.8875L1.45834 6.90667C1.31579 6.94451 1.18583 7.01951 1.08175 7.124C0.977661 7.2285 0.903173 7.35874 0.865888 7.50144C0.828604 7.64414 0.829859 7.79417 0.869526 7.93623C0.909193 8.07828 0.98585 8.20726 1.09167 8.31L4.94334 12.0592L4.035 17.355L4.02417 17.4467C4.01544 17.5941 4.04606 17.7412 4.11288 17.8729C4.1797 18.0046 4.28032 18.1162 4.40445 18.1963C4.52858 18.2763 4.67174 18.3219 4.81929 18.3284C4.96684 18.3349 5.11347 18.3021 5.24417 18.2333L9.99917 15.7333L14.7433 18.2333L14.8267 18.2717C14.9642 18.3258 15.1137 18.3425 15.2598 18.3198C15.4059 18.2971 15.5433 18.236 15.658 18.1427C15.7727 18.0494 15.8605 17.9273 15.9124 17.7889C15.9643 17.6504 15.9784 17.5007 15.9533 17.355L15.0442 12.0592L18.8975 8.30917L18.9625 8.23833C19.0554 8.12397 19.1162 7.98704 19.1389 7.8415C19.1616 7.69595 19.1454 7.54698 19.0917 7.40978C19.0381 7.27257 18.9491 7.15203 18.8337 7.06043C18.7184 6.96883 18.5808 6.90945 18.435 6.88833L13.1183 6.11667L10.7417 1.3C10.6729 1.16045 10.5664 1.04293 10.4343 0.960754C10.3022 0.878579 10.1497 0.835026 9.99417 0.835026C9.83859 0.835026 9.68612 0.878579 9.55401 0.960754C9.42191 1.04293 9.31544 1.16045 9.24667 1.3L6.86917 6.11667Z"
            fill="var(--svg-color,#FFC225)" />
    </g>
    <defs>
        <clipPath id="clip0_1532_10756">
            <rect width="20" height="20" fill="none" />
        </clipPath>
    </defs>
</svg>