<svg width="32" height="32" viewBox="0 0 32 32" fill="none" xmlns="http://www.w3.org/2000/svg">
<g id="0c657c06-7bfc-4af7-aff9-023ba0cfe124 1" clip-path="url(#clip0_5865_3559)">
<g id="Group">
<g id="Layer 32">
<path id="Vector" d="M1 31.5H6C6.13261 31.5 6.25979 31.4473 6.35355 31.3536C6.44732 31.2598 6.5 31.1326 6.5 31V29C6.5 28.8674 6.44732 28.7402 6.35355 28.6464C6.25979 28.5527 6.13261 28.5 6 28.5H5V9.5H20.5C20.6326 9.5 20.7598 9.44732 20.8536 9.35355C20.9473 9.25979 21 9.13261 21 9V2C21 1.86739 20.9473 1.74021 20.8536 1.64645C20.7598 1.55268 20.6326 1.5 20.5 1.5H5V1C5 0.867392 4.94732 0.740215 4.85355 0.646447C4.75979 0.552678 4.63261 0.5 4.5 0.5H2.5C2.36739 0.5 2.24021 0.552678 2.14645 0.646447C2.05268 0.740215 2 0.867392 2 1V28.5H1C0.867392 28.5 0.740215 28.5527 0.646447 28.6464C0.552678 28.7402 0.5 28.8674 0.5 29V31C0.5 31.1326 0.552678 31.2598 0.646447 31.3536C0.740215 31.4473 0.867392 31.5 1 31.5ZM20 2.5V8.5H5V2.5H20ZM3 1.5H4V28.5H3V1.5ZM1.5 29.5H5.5V30.5H1.5V29.5Z" fill="#1A9EDB"/>
<path id="Vector_2" d="M7 7.50001V6.00001H7.57C7.70336 6.10925 7.81102 6.24652 7.88533 6.40207C7.95965 6.55762 7.9988 6.72762 8 6.90001V7.50001H9V6.90001C9.00095 6.45302 8.86426 6.01659 8.6085 5.65001C8.78888 5.47822 8.91368 5.25634 8.96681 5.01298C9.01994 4.76961 8.99896 4.51591 8.90659 4.28458C8.81422 4.05324 8.65468 3.85487 8.44854 3.71504C8.24239 3.5752 7.9991 3.5003 7.75 3.50001H6.5C6.36739 3.50001 6.24021 3.55268 6.14645 3.64645C6.05268 3.74022 6 3.8674 6 4.00001V7.50001H7ZM7 4.50001H7.75C7.8163 4.50001 7.87989 4.52634 7.92678 4.57323C7.97366 4.62011 8 4.6837 8 4.75001C8 4.81631 7.97366 4.8799 7.92678 4.92678C7.87989 4.97367 7.8163 5.00001 7.75 5.00001H7V4.50001ZM10 7.50001H12V6.50001H10.5V6.00001H12V5.00001H10.5V4.50001H12V3.50001H10C9.86739 3.50001 9.74021 3.55268 9.64645 3.64645C9.55268 3.74022 9.5 3.8674 9.5 4.00001V7.00001C9.5 7.13261 9.55268 7.25979 9.64645 7.35356C9.74021 7.44733 9.86739 7.50001 10 7.50001ZM13.5 5.65001L14.584 7.27601C14.6435 7.36519 14.73 7.4329 14.8309 7.46915C14.9318 7.50541 15.0416 7.50829 15.1443 7.47736C15.2469 7.44644 15.3369 7.38335 15.4009 7.2974C15.465 7.21145 15.4997 7.1072 15.5 7.00001V3.50001H14.5V5.35001L13.416 3.72251C13.3565 3.63322 13.2698 3.56545 13.1688 3.52923C13.0677 3.49301 12.9577 3.49025 12.855 3.52137C12.7523 3.55249 12.6624 3.61582 12.5984 3.70202C12.5345 3.78821 12.5 3.89269 12.5 4.00001V7.50001H13.5V5.65001ZM17 7.50001H18V4.50001H19V3.50001H16V4.50001H17V7.50001ZM30.4545 22.185L30.361 21.6235C30.1921 20.6312 29.7214 19.7151 29.013 19H29.5C29.8978 19 30.2794 18.842 30.5607 18.5607C30.842 18.2794 31 17.8978 31 17.5C31 17.1022 30.842 16.7207 30.5607 16.4393C30.2794 16.158 29.8978 16 29.5 16H28.5C28.2847 16.0008 28.0722 16.0481 27.8769 16.1388C27.6817 16.2295 27.5084 16.3615 27.369 16.5255L26.8 14.82C26.6711 14.4385 26.4376 14.1009 26.1262 13.8456C25.8148 13.5903 25.4379 13.4276 25.0385 13.376C21.0281 12.8747 16.9709 12.8747 12.9605 13.376C12.5613 13.4278 12.1846 13.5905 11.8734 13.8458C11.5622 14.1011 11.3288 14.4386 11.2 14.82L10.6315 16.5255C10.492 16.3614 10.3187 16.2294 10.1234 16.1387C9.92803 16.048 9.71536 16.0007 9.5 16H8.5C8.10218 16 7.72064 16.158 7.43934 16.4393C7.15804 16.7207 7 17.1022 7 17.5C7 17.8978 7.15804 18.2794 7.43934 18.5607C7.72064 18.842 8.10218 19 8.5 19H8.987C8.27791 19.7149 7.8065 20.631 7.637 21.6235L7.5435 22.185C7.22185 22.3943 6.95781 22.6809 6.77552 23.0186C6.59323 23.3563 6.4985 23.7343 6.5 24.118V27C6.5011 27.3495 6.59408 27.6926 6.76959 27.9948C6.9451 28.297 7.19699 28.5478 7.5 28.722V30C7.5 30.3978 7.65804 30.7794 7.93934 31.0607C8.22064 31.342 8.60218 31.5 9 31.5H11C11.3978 31.5 11.7794 31.342 12.0607 31.0607C12.342 30.7794 12.5 30.3978 12.5 30V29H25.5V30C25.5 30.3978 25.658 30.7794 25.9393 31.0607C26.2206 31.342 26.6022 31.5 27 31.5H29C29.3978 31.5 29.7794 31.342 30.0607 31.0607C30.342 30.7794 30.5 30.3978 30.5 30V28.722C30.803 28.5478 31.0549 28.297 31.2304 27.9948C31.4059 27.6926 31.4989 27.3495 31.5 27V24.118C31.5014 23.7341 31.4064 23.3559 31.2237 23.0182C31.0411 22.6805 30.7766 22.394 30.4545 22.185ZM29.3745 21.7875L29.446 22.218L28.324 22.779C27.9052 22.9885 27.4282 23.0514 26.9693 22.9578C26.5105 22.8642 26.0963 22.6193 25.793 22.2625L29.1965 21.128C29.2751 21.3422 29.3346 21.5629 29.3745 21.7875ZM28 17.5C28 17.3674 28.0527 17.2402 28.1464 17.1465C28.2402 17.0527 28.3674 17 28.5 17H29.5C29.6326 17 29.7598 17.0527 29.8536 17.1465C29.9473 17.2402 30 17.3674 30 17.5C30 17.6326 29.9473 17.7598 29.8536 17.8536C29.7598 17.9473 29.6326 18 29.5 18H28V17.5ZM12.15 15.1365C12.2184 14.9334 12.3425 14.7537 12.5082 14.6178C12.6739 14.4819 12.8745 14.3953 13.087 14.368C17.0151 13.8773 20.9889 13.8773 24.917 14.368C25.1288 14.396 25.3285 14.4829 25.4935 14.6188C25.6584 14.7546 25.7819 14.934 25.85 15.1365L26.8445 18.121L25.831 18.3235C21.3194 19.2213 16.6751 19.2213 12.1635 18.3235L11.1515 18.1235L12.15 15.1365ZM8 17.5C8 17.3674 8.05268 17.2402 8.14645 17.1465C8.24021 17.0527 8.36739 17 8.5 17H9.5C9.63261 17 9.75979 17.0527 9.85355 17.1465C9.94732 17.2402 10 17.3674 10 17.5V18H8.5C8.36739 18 8.24021 17.9473 8.14645 17.8536C8.05268 17.7598 8 17.6326 8 17.5ZM8.8035 21.128L12.207 22.2625C11.9037 22.6193 11.4895 22.8642 11.0307 22.9578C10.5718 23.0514 10.0948 22.9885 9.676 22.779L8.554 22.218L8.6255 21.7875C8.66537 21.5629 8.72494 21.3422 8.8035 21.128ZM11.5 28H8.5C8.23478 28 7.98043 27.8946 7.79289 27.7071C7.60536 27.5196 7.5 27.2652 7.5 27V26.11L10.9215 26.794C11.0844 26.8271 11.231 26.9155 11.3364 27.0441C11.4417 27.1727 11.4995 27.3337 11.5 27.5V28ZM11.5 30C11.5 30.1326 11.4473 30.2598 11.3536 30.3536C11.2598 30.4473 11.1326 30.5 11 30.5H9C8.86739 30.5 8.74021 30.4473 8.64645 30.3536C8.55268 30.2598 8.5 30.1326 8.5 30V29H11.5V30ZM16 28C15.8011 28.0002 15.6065 27.9419 15.4404 27.8325C15.2743 27.7231 15.1439 27.5673 15.0655 27.3845L14.06 25.0375C14.0115 24.9243 13.9919 24.8008 14.0029 24.6781C14.0139 24.5554 14.0551 24.4373 14.123 24.3345C14.1908 24.2317 14.2831 24.1473 14.3916 24.0889C14.5001 24.0305 14.6213 24 14.7445 24H23.2555C23.3787 24.0001 23.5 24.0307 23.6084 24.0892C23.7169 24.1476 23.8092 24.232 23.877 24.3349C23.9448 24.4377 23.9861 24.5558 23.9971 24.6785C24.0081 24.8012 23.9885 24.9247 23.94 25.038L22.934 27.3845C22.8558 27.5674 22.7256 27.7232 22.5595 27.8326C22.3934 27.942 22.1989 28.0003 22 28H16ZM23.738 28C23.781 27.9285 23.8196 27.8543 23.8535 27.778L24.859 25.432C24.9727 25.1666 25.0187 24.8772 24.993 24.5897C24.9673 24.3021 24.8707 24.0255 24.7118 23.7845C24.5529 23.5435 24.3366 23.3456 24.0825 23.2087C23.8283 23.0718 23.5442 23.0001 23.2555 23H14.7445C14.4558 23 14.1717 23.0716 13.9175 23.2085C13.6634 23.3453 13.4471 23.5431 13.2882 23.7841C13.1293 24.0251 13.0326 24.3017 13.007 24.5892C12.9813 24.8768 13.0273 25.1662 13.141 25.4315L14.1465 27.778C14.1802 27.8543 14.2186 27.9284 14.2615 28H12.5V27.5C12.499 27.1027 12.361 26.7179 12.1091 26.4106C11.8572 26.1033 11.5069 25.8924 11.1175 25.8135L7.5 25.09V24.118C7.50095 23.9146 7.54989 23.7142 7.64285 23.5332C7.73582 23.3523 7.87017 23.1958 8.035 23.0765L9.229 23.6735C9.90322 24.0108 10.6774 24.0902 11.4061 23.8969C12.1347 23.7035 12.7677 23.2507 13.186 22.6235L13.416 22.2785C13.4583 22.2146 13.4854 22.1418 13.495 22.0657C13.5047 21.9897 13.4968 21.9124 13.4718 21.8399C13.4469 21.7674 13.4056 21.7016 13.3512 21.6476C13.2968 21.5936 13.2307 21.5529 13.158 21.5285L9.2625 20.2285C9.6044 19.7313 10.0574 19.3204 10.5855 19.0285L11.969 19.305C14.2842 19.767 16.6392 19.9998 19 20C21.36 19.9995 23.7142 19.7664 26.0285 19.304L27.414 19.027C27.9421 19.3189 28.3951 19.7298 28.737 20.227L24.8415 21.527C24.7688 21.5514 24.7027 21.5921 24.6483 21.6461C24.5939 21.7001 24.5526 21.7659 24.5277 21.8384C24.5027 21.9109 24.4948 21.9882 24.5045 22.0642C24.5141 22.1403 24.5412 22.2131 24.5835 22.277L24.8135 22.622C25.2318 23.2492 25.8648 23.702 26.5934 23.8954C27.3221 24.0887 28.0963 24.0093 28.7705 23.672L29.9645 23.075C30.1296 23.1944 30.2642 23.3511 30.3573 23.5323C30.4503 23.7136 30.4992 23.9143 30.5 24.118V25.09L26.8825 25.8135C26.4931 25.8924 26.1428 26.1033 25.8909 26.4106C25.639 26.7179 25.501 27.1027 25.5 27.5V28H23.738ZM29.5 30C29.5 30.1326 29.4473 30.2598 29.3536 30.3536C29.2598 30.4473 29.1326 30.5 29 30.5H27C26.8674 30.5 26.7402 30.4473 26.6464 30.3536C26.5527 30.2598 26.5 30.1326 26.5 30V29H29.5V30ZM29.5 28H26.5V27.5C26.5005 27.3337 26.5583 27.1727 26.6636 27.0441C26.769 26.9155 26.9156 26.8271 27.0785 26.794L30.5 26.11V27C30.5 27.2652 30.3946 27.5196 30.2071 27.7071C30.0196 27.8946 29.7652 28 29.5 28Z" fill="#1A9EDB"/>
</g>
</g>
</g>
<defs>
<clipPath id="clip0_5865_3559">
<rect width="32" height="32" fill="white"/>
</clipPath>
</defs>
</svg>
