<svg xmlns="http://www.w3.org/2000/svg" width="20" height="20" viewBox="0 0 20 20" fill="none">
    <path fill-rule="evenodd" clip-rule="evenodd"
        d="M5 2C4.46957 2 3.96086 2.21071 3.58579 2.58579C3.21071 2.96086 3 3.46957 3 4V18L6.5 16L10 18L13.5 16L17 18V4C17 3.46957 16.7893 2.96086 16.4142 2.58579C16.0391 2.21071 15.5304 2 15 2H5ZM9.70667 5.70667C9.88331 5.5171 9.97947 5.26637 9.9749 5.0073C9.97033 4.74823 9.86538 4.50105 9.68216 4.31784C9.49894 4.13462 9.25176 4.02967 8.9927 4.0251C8.73363 4.02053 8.4829 4.11669 8.29333 4.29333L5.29333 7.29333C5.10607 7.48083 5.00088 7.735 5.00088 8C5.00088 8.265 5.10607 8.51917 5.29333 8.70667L8.29333 11.7067C8.4829 11.8833 8.73363 11.9795 8.9927 11.9749C9.25176 11.9703 9.49894 11.8654 9.68216 11.6822C9.86538 11.4989 9.97033 11.2518 9.9749 10.9927C9.97947 10.7336 9.88331 10.4829 9.70667 10.2933L8.41417 9H10C10.7956 9 11.5587 9.31607 12.1213 9.87868C12.6839 10.4413 13 11.2044 13 12V13C13 13.2652 13.1054 13.5196 13.2929 13.7071C13.4804 13.8946 13.7348 14 14 14C14.2652 14 14.5196 13.8946 14.7071 13.7071C14.8946 13.5196 15 13.2652 15 13V12C15 10.6739 14.4732 9.40215 13.5355 8.46447C12.5979 7.52678 11.3261 7 10 7H8.41417L9.70667 5.70667Z"
        fill="var(--svg-color,#008000)" />
</svg>