<svg width="17" height="16" viewBox="0 0 17 16" fill="none" xmlns="http://www.w3.org/2000/svg">
<g clip-path="url(#clip0_3317_9089)">
<path d="M8.5 16C12.9183 16 16.5 12.4183 16.5 8C16.5 3.58172 12.9183 0 8.5 0C4.08172 0 0.5 3.58172 0.5 8C0.5 12.4183 4.08172 16 8.5 16Z" fill="#F0F0F0"/>
<path d="M16.0024 10.7825C16.324 9.91582 16.5 8.97844 16.5 7.99988C16.5 7.02132 16.324 6.08394 16.0024 5.21729H0.997594C0.676031 6.08394 0.5 7.02132 0.5 7.99988C0.5 8.97844 0.676031 9.91582 0.997594 10.7825L8.5 11.4781L16.0024 10.7825Z" fill="#0052B4"/>
<path d="M8.4985 16.0001C11.9382 16.0001 14.8706 13.8291 16.0009 10.7827H0.996094C2.12644 13.8291 5.05878 16.0001 8.4985 16.0001Z" fill="#D80027"/>
</g>
<defs>
<clipPath id="clip0_3317_9089">
<rect width="16" height="16" fill="white" transform="translate(0.5)"/>
</clipPath>
</defs>
</svg>
