<svg xmlns="http://www.w3.org/2000/svg" width="20" height="20" fill="none" xmlns:v="https://vecta.io/nano"><g clip-path="url(#A)" stroke="#768c9e" stroke-width="1.5" stroke-linejoin="round"><path d="M4.166 5.833c0 .884.351 1.732.976 2.357s1.473.976 2.357.976 1.732-.351 2.357-.976.976-1.473.976-2.357-.351-1.732-.976-2.357S8.383 2.5 7.499 2.5s-1.732.351-2.357.976-.976 1.473-.976 2.357z"/><g stroke-linecap="round"><path d="M2.5 17.5v-1.667c0-.884.351-1.732.976-2.357s1.473-.976 2.357-.976h3.333c.884 0 1.732.351 2.357.976s.976 1.473.976 2.357V17.5m.835-14.892c.717.184 1.353.601 1.806 1.185a3.34 3.34 0 0 1 .7 2.044c0 .74-.246 1.459-.7 2.044a3.33 3.33 0 0 1-1.806 1.185M17.5 17.5v-1.667c-.004-.736-.252-1.449-.704-2.03A3.33 3.33 0 0 0 15 12.624"/></g></g><defs><clipPath id="A"><path fill="#fff" d="M0 0h20v20H0z"/></clipPath></defs></svg>