<svg xmlns="http://www.w3.org/2000/svg" width="28" height="28" fill="none" xmlns:v="https://vecta.io/nano"><path d="M20.666 2.453c2.011 1.161 3.684 2.827 4.853 4.834a13.33 13.33 0 0 1 1.813 6.605c.019 2.322-.569 4.609-1.706 6.634s-2.782 3.718-4.774 4.912-4.261 1.846-6.583 1.893-4.615-.513-6.654-1.625-3.752-2.737-4.969-4.714S.748 16.753.673 14.432L.666 14l.007-.432c.075-2.303.745-4.547 1.945-6.513s2.889-3.589 4.903-4.708S11.804.648 14.107.667s4.563.634 6.559 1.786zm-1.724 7.937c-.23-.23-.535-.367-.859-.388s-.644.078-.901.277l-.125.111-4.391 4.389-1.724-1.723-.125-.111c-.257-.199-.577-.297-.901-.277s-.629.158-.859.388-.367.535-.388.859.078.644.277.901l.111.125 2.667 2.667.125.111c.234.181.521.28.817.28s.583-.098.817-.28l.125-.111 5.333-5.333.111-.125c.199-.257.297-.577.277-.901s-.158-.63-.388-.859z" fill="#0ea5e9"/></svg>