<svg width="21" height="20" viewBox="0 0 21 20" fill="none" xmlns="http://www.w3.org/2000/svg">
<path d="M16.6417 4.07501L11.7583 1.90001C11.0416 1.58334 9.95832 1.58334 9.24165 1.90001L4.35832 4.07501C3.12498 4.62501 2.94165 5.37501 2.94165 5.77501C2.94165 6.17501 3.12498 6.92501 4.35832 7.47501L9.24165 9.65001C9.59998 9.80834 10.05 9.89167 10.5 9.89167C10.95 9.89167 11.4 9.80834 11.7583 9.65001L16.6417 7.47501C17.875 6.92501 18.0583 6.17501 18.0583 5.77501C18.0583 5.37501 17.8833 4.62501 16.6417 4.07501Z" fill="#1A9EDB"/>
<path d="M10.5 14.2C10.1833 14.2 9.86668 14.1333 9.57502 14.0083L3.95835 11.5083C3.10002 11.125 2.43335 10.1 2.43335 9.15832C2.43335 8.81666 2.70835 8.54166 3.05002 8.54166C3.39168 8.54166 3.66668 8.81666 3.66668 9.15832C3.66668 9.60832 4.04168 10.1917 4.45835 10.375L10.075 12.875C10.3417 12.9917 10.65 12.9917 10.9167 12.875L16.5333 10.375C16.95 10.1917 17.325 9.61666 17.325 9.15832C17.325 8.81666 17.6 8.54166 17.9417 8.54166C18.2833 8.54166 18.5583 8.81666 18.5583 9.15832C18.5583 10.0917 17.8917 11.125 17.0333 11.5083L11.4167 14.0083C11.1334 14.1333 10.8167 14.2 10.5 14.2Z" fill="#1A9EDB"/>
<path d="M10.5 18.3333C10.1833 18.3333 9.86668 18.2667 9.57502 18.1417L3.95835 15.6417C3.03335 15.2333 2.43335 14.3083 2.43335 13.2917C2.43335 12.95 2.70835 12.675 3.05002 12.675C3.39168 12.675 3.66668 12.95 3.66668 13.2917C3.66668 13.8167 3.97502 14.2917 4.45835 14.5083L10.075 17.0083C10.3417 17.125 10.65 17.125 10.9167 17.0083L16.5333 14.5083C17.0083 14.3 17.325 13.8167 17.325 13.2917C17.325 12.95 17.6 12.675 17.9417 12.675C18.2833 12.675 18.5583 12.95 18.5583 13.2917C18.5583 14.3083 17.9583 15.225 17.0333 15.6417L11.4167 18.1417C11.1334 18.2667 10.8167 18.3333 10.5 18.3333Z" fill="#1A9EDB"/>
</svg>
