<svg width="25" height="24" viewBox="0 0 25 24" fill="none" xmlns="http://www.w3.org/2000/svg">
<path fill-rule="evenodd" clip-rule="evenodd" d="M16.53 8.64922H15C14.1115 8.64922 13.2594 8.29627 12.6312 7.66803C12.0029 7.03978 11.65 6.18769 11.65 5.29922C11.65 4.41074 12.0029 3.55866 12.6312 2.93041C13.2594 2.30216 14.1115 1.94922 15 1.94922V3.44922C13.98 3.44922 13.15 4.17922 13.15 5.19922C13.15 6.21922 13.98 7.19922 15 7.19922H16.53C18.4 7.19922 20 8.54922 20 10.3592V11.9992H18.5V10.6992C18.5 9.38922 17.58 8.64922 16.53 8.64922ZM15.16 12.9992H17.5V15.3392L15.16 12.9992ZM19.35 4.72922C19.97 4.11922 20.35 3.27922 20.35 2.34922H18.85C18.85 3.36922 18.02 4.19922 17 4.19922V5.69922C19.24 5.69922 21 7.52922 21 9.76922V11.9992H22.5V9.75922C22.5 7.53922 21.22 5.61922 19.35 4.72922ZM20 12.9992H18.5V15.9992H20V12.9992ZM21 12.9992H22.5V15.9992H21V12.9992ZM9.5 12.9992L2.5 5.99922L3.91 4.58922L20.91 21.5892L19.5 22.9992L12.5 15.9992H2.5V12.9992H9.5Z" fill="#5F6368"/>
</svg>
