<svg width="18" height="18" viewBox="0 0 18 18" fill="none" xmlns="http://www.w3.org/2000/svg">
<g id="Frame">
<path id="Vector" d="M8.25 13.3875L6.31875 15.2813C6.18125 15.4188 6.00938 15.4875 5.80313 15.4875C5.59688 15.4875 5.425 15.4125 5.2875 15.2625C5.1375 15.125 5.0625 14.9531 5.0625 14.7469C5.0625 14.5406 5.1375 14.3625 5.2875 14.2125L8.25 11.25V9.75H6.75L3.76875 12.7313C3.63125 12.8688 3.45938 12.9375 3.25313 12.9375C3.04688 12.9375 2.86875 12.8625 2.71875 12.7125C2.58125 12.575 2.5125 12.4031 2.5125 12.1969C2.5125 11.9906 2.58125 11.8188 2.71875 11.6813L4.6125 9.75H2.23125C2.01875 9.75 1.84375 9.67813 1.70625 9.53438C1.56875 9.39063 1.5 9.2125 1.5 9C1.5 8.7875 1.57188 8.60938 1.71563 8.46563C1.85938 8.32188 2.0375 8.25 2.25 8.25H4.6125L2.71875 6.3375C2.58125 6.2 2.5125 6.02813 2.5125 5.82188C2.5125 5.61563 2.5875 5.4375 2.7375 5.2875C2.875 5.15 3.04688 5.08125 3.25313 5.08125C3.45938 5.08125 3.6375 5.15 3.7875 5.2875L6.75 8.25H8.25V6.75L5.26875 3.7875C5.13125 3.65 5.0625 3.47813 5.0625 3.27188C5.0625 3.06563 5.1375 2.8875 5.2875 2.7375C5.425 2.6 5.59688 2.53125 5.80313 2.53125C6.00938 2.53125 6.18125 2.6 6.31875 2.7375L8.25 4.6125V2.25C8.25 2.0375 8.32188 1.85938 8.46563 1.71563C8.60938 1.57188 8.7875 1.5 9 1.5C9.2125 1.5 9.39063 1.57188 9.53438 1.71563C9.67813 1.85938 9.75 2.0375 9.75 2.25V4.6125L11.6625 2.7375C11.8 2.6 11.9719 2.53125 12.1781 2.53125C12.3844 2.53125 12.5625 2.6 12.7125 2.7375C12.85 2.8875 12.9188 3.06563 12.9188 3.27188C12.9188 3.47813 12.85 3.65 12.7125 3.7875L9.75 6.75V8.25H11.25L14.2125 5.2875C14.35 5.15 14.5219 5.08125 14.7281 5.08125C14.9344 5.08125 15.1125 5.15625 15.2625 5.30625C15.4 5.44375 15.4688 5.61563 15.4688 5.82188C15.4688 6.02813 15.4 6.2 15.2625 6.3375L13.3875 8.25H15.75C15.9625 8.25 16.1406 8.32188 16.2844 8.46563C16.4281 8.60938 16.5 8.7875 16.5 9C16.5 9.2125 16.4281 9.39063 16.2844 9.53438C16.1406 9.67813 15.9625 9.75 15.75 9.75H13.3875L15.2625 11.6813C15.4 11.8188 15.4688 11.9906 15.4688 12.1969C15.4688 12.4031 15.4 12.575 15.2625 12.7125C15.1125 12.8625 14.9344 12.9375 14.7281 12.9375C14.5219 12.9375 14.35 12.8625 14.2125 12.7125L11.25 9.75H9.75V11.25L12.7125 14.2313C12.85 14.3688 12.9188 14.5406 12.9188 14.7469C12.9188 14.9531 12.8438 15.1313 12.6938 15.2813C12.5563 15.4188 12.3844 15.4875 12.1781 15.4875C11.9719 15.4875 11.8 15.4188 11.6625 15.2813L9.75 13.3875V15.7688C9.75 15.9813 9.67813 16.1563 9.53438 16.2938C9.39063 16.4313 9.2125 16.5 9 16.5C8.7875 16.5 8.60938 16.4281 8.46563 16.2844C8.32188 16.1406 8.25 15.9625 8.25 15.75V13.3875Z" fill="#9C9EAF"/>
</g>
</svg>
