<svg width="18" height="18" viewBox="0 0 18 18" fill="none" xmlns="http://www.w3.org/2000/svg">
<g id="Frame">
<path id="Vector" d="M7.8375 11.625C8.1375 11.925 8.525 12.0719 9 12.0656C9.475 12.0594 9.825 11.8875 10.05 11.55L14.25 5.25L7.95 9.45C7.6125 9.675 7.43438 10.0188 7.41563 10.4813C7.39688 10.9438 7.5375 11.325 7.8375 11.625ZM9 3C9.7375 3 10.4469 3.10313 11.1281 3.30938C11.8094 3.51562 12.45 3.825 13.05 4.2375L11.625 5.1375C11.2125 4.925 10.7844 4.76563 10.3406 4.65938C9.89688 4.55313 9.45 4.5 9 4.5C7.3375 4.5 5.92188 5.08438 4.75313 6.25313C3.58438 7.42188 3 8.8375 3 10.5C3 11.025 3.07188 11.5438 3.21563 12.0563C3.35938 12.5688 3.5625 13.05 3.825 13.5H14.175C14.4625 13.025 14.6719 12.5312 14.8031 12.0188C14.9344 11.5063 15 10.975 15 10.425C15 9.975 14.9469 9.5375 14.8406 9.1125C14.7344 8.6875 14.575 8.275 14.3625 7.875L15.2625 6.45C15.6375 7.0375 15.9344 7.6625 16.1531 8.325C16.3719 8.9875 16.4875 9.675 16.5 10.3875C16.5125 11.1 16.4313 11.7812 16.2563 12.4313C16.0813 13.0813 15.825 13.7 15.4875 14.2875C15.35 14.5125 15.1625 14.6875 14.925 14.8125C14.6875 14.9375 14.4375 15 14.175 15H3.825C3.5625 15 3.3125 14.9375 3.075 14.8125C2.8375 14.6875 2.65 14.5125 2.5125 14.2875C2.1875 13.725 1.9375 13.1281 1.7625 12.4969C1.5875 11.8656 1.5 11.2 1.5 10.5C1.5 9.4625 1.69688 8.49063 2.09063 7.58438C2.48438 6.67813 3.02188 5.88438 3.70312 5.20312C4.38438 4.52188 5.18125 3.98438 6.09375 3.59063C7.00625 3.19688 7.975 3 9 3Z" fill="#9C9EAF"/>
</g>
</svg>
