<svg width="24" height="24" viewBox="0 0 24 24" fill="none" xmlns="http://www.w3.org/2000/svg">
<g id="Frame">
<path id="Vector" fill-rule="evenodd" clip-rule="evenodd" d="M10 19.75V18C10 16.9391 9.57857 15.9217 8.82843 15.1716C8.07828 14.4214 7.06086 14 6 14H4.25C4.60793 15.3844 5.32995 16.6478 6.34108 17.6589C7.3522 18.67 8.61557 19.3921 10 19.75ZM2.08 13.25L2.2 14C2.65403 16.2622 3.8794 18.2966 5.66678 19.7557C7.45417 21.2148 9.6927 22.008 12 22C14.0313 22.0003 16.0145 21.382 17.6857 20.2274C19.3569 19.0728 20.6369 17.4366 21.3553 15.5366C22.0737 13.6366 22.1964 11.5629 21.7072 9.59142C21.2179 7.61994 20.1399 5.8442 18.6165 4.50051C17.0932 3.15683 15.1967 2.30892 13.1796 2.06963C11.1625 1.83033 9.12029 2.211 7.32484 3.16098C5.52939 4.11095 4.06581 5.58518 3.12888 7.38747C2.19194 9.18976 1.82609 11.2346 2.08 13.25ZM4.06 11C4.29866 9.06227 5.23769 7.2787 6.70017 5.9853C8.16265 4.6919 10.0476 3.97795 12 3.97795C13.9524 3.97795 15.8373 4.6919 17.2998 5.9853C18.7623 7.2787 19.7013 9.06227 19.94 11C17.7524 9.05511 14.9271 7.98078 12 7.98078C9.07288 7.98078 6.24757 9.05511 4.06 11ZM19.75 14H18C16.9391 14 15.9217 14.4214 15.1716 15.1716C14.4214 15.9217 14 16.9391 14 18V19.75C15.3844 19.3921 16.6478 18.67 17.6589 17.6589C18.67 16.6478 19.3921 15.3844 19.75 14ZM14 12C14 12.5304 13.7893 13.0391 13.4142 13.4142C13.0391 13.7893 12.5304 14 12 14C11.4696 14 10.9609 13.7893 10.5858 13.4142C10.2107 13.0391 10 12.5304 10 12C10 11.4696 10.2107 10.9609 10.5858 10.5858C10.9609 10.2107 11.4696 9.99999 12 9.99999C12.5304 9.99999 13.0391 10.2107 13.4142 10.5858C13.7893 10.9609 14 11.4696 14 12Z" fill="#9C9EAF"/>
</g>
</svg>
