<svg xmlns="http://www.w3.org/2000/svg" fill="none" viewBox="0 0 129 108"><rect width="100" height="100" x="10" y="8" fill="#008000" rx="50"/><g clip-path="url(#a)"><path stroke="white" stroke-linecap="round" stroke-linejoin="round" stroke-width="8" d="m41.3 58 13.4 13.3 26.6-26.6"/></g><circle cx="108" cy="24.5" r="2.5" fill="#C6951A"/><circle cx="13" cy="84.5" r="2.5" fill="#C6951A"/><circle cx="97.5" cy="104" r="4" fill="#008000"/><circle cx="3" cy="55.5" r="2.5" fill="#C6951A"/><circle cx="126" cy="60.5" r="2.5" fill="#CD32B4"/><circle cx="33.5" cy="105.5" r="2.5" fill="#CD32B4"/><circle cx="7.1" cy="31.9" r="2.5" fill="#CD32B4" transform="rotate(-105 7.1 32)"/><circle cx="120.5" cy="38" r="4" fill="#C6951A"/><circle cx="4.5" cy="79" r="4" fill="#008000"/><circle cx="74.5" cy="4" r="4" fill="#CD32B4"/><circle cx="114" cy="67.5" r="1.5" fill="#C6951A"/><circle cx="114" cy="23.5" r="1.5" fill="#008000"/><circle cx="4.6" cy="26.4" r="1.5" fill="#008000" transform="rotate(-105 4.6 26.4)"/><defs><clipPath id="a"><path fill="white" d="M28 26h64v64H28z"/></clipPath></defs></svg>