<svg xmlns="http://www.w3.org/2000/svg" fill="none" viewBox="0 0 51 50">
    <path fill="var(--svg-color,green)"
        d="M24.04 1.56a2 2 0 0 1 2.92 0l5.1 5.45a2 2 0 0 0 1.52.64l7.46-.26a2 2 0 0 1 2.07 2.07l-.26 7.46a2 2 0 0 0 .64 1.53l5.45 5.09a2 2 0 0 1 0 2.92l-5.45 5.1a2 2 0 0 0-.64 1.52l.26 7.46a2 2 0 0 1-2.07 2.07l-7.46-.26a2 2 0 0 0-1.53.64l-5.09 5.45a2 2 0 0 1-2.92 0l-5.1-5.45a2 2 0 0 0-1.52-.64l-7.46.26a2 2 0 0 1-2.07-2.07l.26-7.46a2 2 0 0 0-.64-1.53l-5.45-5.09a2 2 0 0 1 0-2.92l5.45-5.1a2 2 0 0 0 .64-1.52l-.26-7.46A2 2 0 0 1 9.96 7.4l7.46.26A2 2 0 0 0 18.95 7l5.09-5.45Z" />
    <path fill="#fff" fill-rule="evenodd"
        d="M34.04 19.3a1.06 1.06 0 0 1 0 1.5l-9.91 9.9a1.06 1.06 0 0 1-1.5 0l-5.67-5.66a1.06 1.06 0 1 1 1.5-1.5l4.92 4.92 9.16-9.17a1.06 1.06 0 0 1 1.5 0Z"
        clip-rule="evenodd" />
</svg>