<svg width="16" height="16" viewBox="0 0 16 16" fill="none" xmlns="http://www.w3.org/2000/svg">
<g clip-path="url(#clip0_13_5978)">
<path fill-rule="evenodd" clip-rule="evenodd" d="M3.33301 4.00002C3.1562 4.00002 2.98663 4.07026 2.8616 4.19528C2.73658 4.32031 2.66634 4.48988 2.66634 4.66669V11.3334C2.66634 11.5102 2.73658 11.6797 2.8616 11.8048C2.98663 11.9298 3.1562 12 3.33301 12H8.11301C8.25074 11.6097 8.50617 11.2716 8.84407 11.0325C9.18198 10.7934 9.58573 10.6651 9.99967 10.6651C10.4136 10.6651 10.8174 10.7934 11.1553 11.0325C11.4932 11.2716 11.7486 11.6097 11.8863 12H12.6663C12.8432 12 13.0127 11.9298 13.1377 11.8048C13.2628 11.6797 13.333 11.5102 13.333 11.3334V4.66669C13.333 4.48988 13.2628 4.32031 13.1377 4.19528C13.0127 4.07026 12.8432 4.00002 12.6663 4.00002H11.8863C11.7486 4.39038 11.4932 4.7284 11.1553 4.96749C10.8174 5.20659 10.4136 5.33499 9.99967 5.33499C9.58573 5.33499 9.18198 5.20659 8.84407 4.96749C8.50617 4.7284 8.25074 4.39038 8.11301 4.00002H3.33301ZM1.33301 4.66669C1.33301 4.13625 1.54372 3.62755 1.91879 3.25247C2.29387 2.8774 2.80257 2.66669 3.33301 2.66669H8.66634C8.84315 2.66669 9.01272 2.73693 9.13775 2.86195C9.26277 2.98697 9.33301 3.15654 9.33301 3.33335C9.33301 3.51016 9.40325 3.67973 9.52827 3.80476C9.65329 3.92978 9.82286 4.00002 9.99967 4.00002C10.1765 4.00002 10.3461 3.92978 10.4711 3.80476C10.5961 3.67973 10.6663 3.51016 10.6663 3.33335C10.6663 3.15654 10.7366 2.98697 10.8616 2.86195C10.9866 2.73693 11.1562 2.66669 11.333 2.66669H12.6663C13.1968 2.66669 13.7055 2.8774 14.0806 3.25247C14.4556 3.62755 14.6663 4.13625 14.6663 4.66669V11.3334C14.6663 11.8638 14.4556 12.3725 14.0806 12.7476C13.7055 13.1226 13.1968 13.3334 12.6663 13.3334H11.333C11.1562 13.3334 10.9866 13.2631 10.8616 13.1381C10.7366 13.0131 10.6663 12.8435 10.6663 12.6667C10.6663 12.4899 10.5961 12.3203 10.4711 12.1953C10.3461 12.0703 10.1765 12 9.99967 12C9.82286 12 9.65329 12.0703 9.52827 12.1953C9.40325 12.3203 9.33301 12.4899 9.33301 12.6667C9.33301 12.8435 9.26277 13.0131 9.13775 13.1381C9.01272 13.2631 8.84315 13.3334 8.66634 13.3334H3.33301C2.80257 13.3334 2.29387 13.1226 1.91879 12.7476C1.54372 12.3725 1.33301 11.8638 1.33301 11.3334V4.66669ZM9.99967 6.00002C10.1765 6.00002 10.3461 6.07026 10.4711 6.19528C10.5961 6.32031 10.6663 6.48988 10.6663 6.66669V7.00002C10.6663 7.17683 10.5961 7.3464 10.4711 7.47142C10.3461 7.59645 10.1765 7.66669 9.99967 7.66669C9.82286 7.66669 9.65329 7.59645 9.52827 7.47142C9.40325 7.3464 9.33301 7.17683 9.33301 7.00002V6.66669C9.33301 6.48988 9.40325 6.32031 9.52827 6.19528C9.65329 6.07026 9.82286 6.00002 9.99967 6.00002ZM10.6663 9.00002C10.6663 8.82321 10.5961 8.65364 10.4711 8.52861C10.3461 8.40359 10.1765 8.33335 9.99967 8.33335C9.82286 8.33335 9.65329 8.40359 9.52827 8.52861C9.40325 8.65364 9.33301 8.82321 9.33301 9.00002V9.33335C9.33301 9.51016 9.40325 9.67973 9.52827 9.80476C9.65329 9.92978 9.82286 10 9.99967 10C10.1765 10 10.3461 9.92978 10.4711 9.80476C10.5961 9.67973 10.6663 9.51016 10.6663 9.33335V9.00002Z" fill="#7E8B98"/>
</g>
<defs>
<clipPath id="clip0_13_5978">
<rect width="16" height="16" fill="white"/>
</clipPath>
</defs>
</svg>
