<svg width="16" height="16" viewBox="0 0 16 16" fill="none" xmlns="http://www.w3.org/2000/svg">
<g clip-path="url(#clip0_3317_9097)">
<mask id="mask0_3317_9097" style="mask-type:luminance" maskUnits="userSpaceOnUse" x="0" y="0" width="16" height="16">
<path d="M8 16C12.4183 16 16 12.4183 16 8C16 3.58172 12.4183 0 8 0C3.58172 0 0 3.58172 0 8C0 12.4183 3.58172 16 8 16Z" fill="white"/>
</mask>
<g mask="url(#mask0_3317_9097)">
<path d="M0 5.5625L7.94375 4.875L16 5.5625V6.25938L14.7437 7.95L16 9.74063V10.4375L8.0625 11.1687L0 10.4375V9.74063L1.14688 7.88438L0 6.25938V5.5625Z" fill="#D80027"/>
<path d="M0 0H16V5.5625H0V0Z" fill="#338AF3"/>
<path d="M0 6.25928H16V9.74053H0V6.25928Z" fill="#EEEEEE"/>
<path d="M0 10.4375H16V16H0V10.4375Z" fill="#6DA544"/>
<path d="M3.6639 3.30324C3.66349 2.94662 3.78508 2.60058 4.00848 2.3226C4.23189 2.04462 4.54366 1.85143 4.89203 1.77512C4.78212 1.75172 4.67002 1.74019 4.55765 1.74074C4.34038 1.74413 4.1262 1.79281 3.9288 1.88365C3.7314 1.9745 3.55512 2.10552 3.41122 2.26835C3.26732 2.43117 3.15897 2.62223 3.09308 2.8293C3.0272 3.03637 3.00523 3.25491 3.02858 3.47095C3.05193 3.68699 3.12008 3.89579 3.22869 4.084C3.3373 4.27221 3.48397 4.4357 3.65934 4.56402C3.83471 4.69234 4.03491 4.78267 4.24716 4.82925C4.45941 4.87582 4.67905 4.8776 4.89203 4.83449C4.1889 4.67824 3.6639 4.05324 3.6639 3.30324ZM5.82015 4.01574L5.92328 4.34074H6.26703L5.98578 4.54387L6.09515 4.86887L5.8139 4.66887L5.54203 4.86887L5.64828 4.54387L5.36703 4.34074H5.71078L5.82015 4.01574ZM6.9139 4.01574L7.02015 4.34074H7.3639L7.08265 4.54387L7.1889 4.86887L6.9139 4.66887L6.63265 4.86887L6.74203 4.54387L6.46078 4.34074H6.80453L6.9139 4.01574ZM8.00765 4.01574L8.1139 4.34074H8.45765L8.1764 4.54387L8.28578 4.86887L8.00453 4.66887L7.72953 4.86887L7.83578 4.54387L7.55453 4.34074H7.89828L8.00765 4.01574ZM9.1014 4.01574L9.20765 4.34074H9.5514L9.27015 4.54387L9.37953 4.86887L9.09828 4.66887L8.82328 4.86887L8.92953 4.54387L8.64828 4.34074H8.99203L9.1014 4.01574ZM10.1952 4.01574L10.3014 4.34074H10.6452L10.3639 4.54387L10.4733 4.86887L10.192 4.66887L9.91703 4.86887L10.0233 4.54387L9.74828 4.34074H10.092L10.1952 4.01574ZM6.9139 2.87824L7.02015 3.20324H7.3639L7.08265 3.40637L7.1889 3.73137L6.9139 3.52824L6.63265 3.73137L6.74203 3.40637L6.46078 3.20324H6.80453L6.9139 2.87824ZM8.00765 2.87824L8.1139 3.20324H8.45765L8.1764 3.40637L8.28578 3.73137L8.00453 3.52824L7.72953 3.73137L7.83578 3.40637L7.55453 3.20324H7.89828L8.00765 2.87824ZM9.1014 2.87824L9.20765 3.20324H9.5514L9.27015 3.40637L9.37953 3.73137L9.09828 3.52824L8.82328 3.73137L8.92953 3.40637L8.64828 3.20324H8.99203L9.1014 2.87824ZM10.1952 2.87824L10.3014 3.20324H10.6452L10.3639 3.40637L10.4733 3.73137L10.192 3.52824L9.91703 3.73137L10.0233 3.40637L9.74828 3.20324H10.092L10.1952 2.87824ZM8.00765 1.74074L8.1139 2.06574H8.45765L8.1764 2.26574L8.2889 2.59387L8.00765 2.39074L7.73265 2.59387L7.8389 2.26574L7.55765 2.06574H7.9014L8.00765 1.74074ZM9.1014 1.74074L9.20765 2.06574H9.5514L9.27015 2.26574L9.38265 2.59387L9.1014 2.39074L8.8264 2.59387L8.93265 2.26574L8.6514 2.06574H8.99515L9.1014 1.74074ZM10.1952 1.74074L10.3014 2.06574H10.6452L10.3639 2.26574L10.4764 2.59387L10.1952 2.39074L9.92015 2.59387L10.0264 2.26574L9.7514 2.06574H10.0952L10.1952 1.74074Z" fill="#EEEEEE"/>
</g>
</g>
<defs>
<clipPath id="clip0_3317_9097">
<rect width="16" height="16" fill="white"/>
</clipPath>
</defs>
</svg>
