<svg width="20" height="20" viewBox="0 0 20 20" fill="none" xmlns="http://www.w3.org/2000/svg">
<path d="M10 13C9.16667 13 8.45833 12.7083 7.875 12.125C7.29167 11.5417 7 10.8333 7 10C7 9.16667 7.29167 8.45833 7.875 7.875C8.45833 7.29167 9.16667 7 10 7C10.8333 7 11.5417 7.29167 12.125 7.875C12.7083 8.45833 13 9.16667 13 10C13 10.8333 12.7083 11.5417 12.125 12.125C11.5417 12.7083 10.8333 13 10 13ZM10.0044 11.5C10.4181 11.5 10.7708 11.3527 11.0625 11.0581C11.3542 10.7635 11.5 10.4094 11.5 9.99563C11.5 9.58188 11.3527 9.22917 11.0581 8.9375C10.7635 8.64583 10.4094 8.5 9.99563 8.5C9.58188 8.5 9.22917 8.64729 8.9375 8.94188C8.64583 9.23646 8.5 9.59062 8.5 10.0044C8.5 10.4181 8.64729 10.7708 8.94187 11.0625C9.23646 11.3542 9.59062 11.5 10.0044 11.5ZM4.5 17C4.0875 17 3.73437 16.8531 3.44062 16.5594C3.14687 16.2656 3 15.9125 3 15.5V12H4.5V15.5H8V17H4.5ZM12 17V15.5H15.5V12H17V15.5C17 15.9125 16.8531 16.2656 16.5594 16.5594C16.2656 16.8531 15.9125 17 15.5 17H12ZM3 8V4.5C3 4.0875 3.14687 3.73438 3.44062 3.44063C3.73437 3.14688 4.0875 3 4.5 3H8V4.5H4.5V8H3ZM15.5 8V4.5H12V3H15.5C15.9125 3 16.2656 3.14688 16.5594 3.44063C16.8531 3.73438 17 4.0875 17 4.5V8H15.5Z" fill="#5F6368"/>
</svg>
