<svg xmlns="http://www.w3.org/2000/svg" fill="none" viewBox="0 0 24 24">
    <path fill="#25D366"
        d="m0 24 1.69-6.16A11.91 11.91 0 0 1 20.4 3.49 11.91 11.91 0 0 1 6.3 22.35L0 24Zm6.6-3.8a9.9 9.9 0 0 0 15.28-8.3 9.88 9.88 0 1 0-18.03 5.63l-1 3.64 3.75-.98Zm11.38-5.47c-.07-.13-.27-.2-.57-.35-.3-.15-1.75-.87-2.03-.97-.27-.1-.47-.14-.67.15-.2.3-.76.97-.94 1.17-.17.2-.34.22-.64.07s-1.26-.46-2.4-1.47a8.95 8.95 0 0 1-1.64-2.06c-.18-.3-.02-.46.13-.6.13-.14.3-.35.44-.53.15-.17.2-.3.3-.5.1-.2.05-.37-.02-.51-.08-.15-.67-1.62-.92-2.21-.24-.58-.49-.5-.67-.51l-.57-.01c-.2 0-.52.07-.79.37S5.95 7.8 5.95 9.25s1.06 2.88 1.21 3.07c.15.2 2.1 3.2 5.08 4.5.7.3 1.26.48 1.7.62.7.22 1.35.2 1.87.12.57-.09 1.75-.72 2-1.42s.25-1.29.17-1.41Z" />
</svg>